{"glyphs":{"0":{"ha":854,"x_min":64,"x_max":779,"o":"m 64 437 q 131 715 64 600 q 244 839 176 793 q 410 892 319 889 l 418 892 q 582 846 505 892 q 701 725 654 801 q 779 412 779 600 q 708 121 779 239 q 596 3 663 45 q 435 -47 522 -46 l 427 -47 q 269 -4 343 -47 q 149 111 197 37 q 65 408 71 229 l 65 428 l 64 437 m 144 411 l 149 411 q 218 158 153 257 q 310 71 254 102 q 427 40 364 40 l 432 40 q 550 78 494 43 q 636 168 600 110 q 694 416 694 265 q 629 684 694 579 q 536 777 592 745 q 415 810 478 810 l 410 810 q 286 770 343 807 q 199 675 235 736 q 144 437 144 579 l 144 428 l 144 411 z "},"1":{"ha":441,"x_min":26,"x_max":323,"o":"m 31 706 q 26 713 31 706 q 26 737 22 721 q 46 761 31 753 l 261 886 q 293 890 277 895 q 317 871 309 886 q 321 840 325 856 q 301 815 317 823 l 86 690 q 55 686 71 682 q 31 706 39 690 m 240 0 l 240 697 q 252 727 240 715 q 282 739 264 739 q 312 727 300 739 q 323 697 323 715 l 323 0 q 312 -30 323 -18 q 282 -41 300 -41 q 252 -30 264 -41 q 240 0 240 -18 z "},"2":{"ha":712,"x_min":79,"x_max":628,"o":"m 79 25 l 79 32 q 136 225 79 134 q 310 397 188 307 q 347 424 317 401 q 387 454 376 446 q 419 479 397 463 q 454 510 440 496 q 481 539 468 524 q 524 612 511 576 q 532 663 532 637 q 529 688 532 671 q 475 772 521 738 q 367 808 427 808 l 364 808 q 253 772 303 808 q 191 685 204 738 q 172 659 186 668 q 140 654 157 650 q 115 673 123 659 q 110 704 106 688 q 205 839 131 786 q 367 888 276 888 l 370 888 q 527 836 458 888 q 612 701 595 785 q 616 660 616 680 q 604 582 616 620 q 546 482 586 529 q 498 433 526 458 q 459 398 471 408 q 404 357 447 389 l 361 325 q 208 175 254 245 q 164 25 163 106 l 164 4 q 154 -27 165 -14 q 125 -41 143 -40 q 95 -32 108 -43 q 81 -4 82 -21 q 79 25 79 5 m 201 -30 q 195 -24 201 -30 q 189 0 189 -18 q 201 30 189 18 q 231 41 212 41 l 586 41 q 616 30 604 41 q 628 0 628 18 q 616 -30 628 -18 q 586 -41 604 -41 l 231 -41 q 201 -30 212 -41 z "},"3":{"ha":724,"x_min":68,"x_max":640,"o":"m 77 68 q 68 99 66 82 q 85 126 71 115 q 115 134 98 136 q 143 118 132 132 q 184 78 161 94 q 332 35 244 35 q 460 66 406 35 q 530 136 507 92 q 554 232 554 179 q 529 326 554 285 q 489 367 513 351 q 471 394 475 376 q 476 425 467 411 q 504 443 486 439 q 534 437 521 447 q 602 368 577 408 l 603 367 q 640 231 640 304 q 606 94 640 157 q 504 -7 570 31 q 334 -49 430 -48 q 138 9 220 -49 q 77 68 100 36 m 118 708 q 134 757 122 732 l 135 754 q 163 799 144 777 q 200 836 180 820 q 245 865 221 852 q 297 884 269 876 q 351 890 328 890 l 353 890 l 354 890 l 355 890 q 406 886 380 890 q 454 871 429 882 q 498 846 479 860 q 536 812 519 830 q 566 771 553 794 q 585 724 579 745 q 589 705 587 713 q 591 688 591 694 l 591 668 q 590 640 591 651 q 585 611 587 621 q 575 585 581 594 q 554 545 567 562 q 525 509 541 524 q 489 478 514 498 q 435 449 464 458 q 378 435 411 439 q 323 431 350 431 q 294 443 305 431 q 282 472 282 454 q 294 502 282 490 q 323 514 306 514 q 366 518 345 514 q 406 528 393 524 q 441 549 427 537 q 465 568 454 557 q 485 593 479 585 q 498 618 490 602 q 504 635 501 623 l 509 652 q 510 669 510 659 l 510 682 l 510 692 q 505 701 509 696 q 493 730 501 717 q 473 757 488 740 q 449 779 465 768 q 421 794 435 789 q 387 804 410 798 q 354 808 370 808 l 353 808 l 351 808 l 350 808 q 313 804 330 808 q 278 791 294 800 q 249 774 258 782 q 225 750 237 763 q 208 722 216 739 q 200 693 203 709 q 183 667 197 676 q 152 660 168 657 q 125 677 135 663 q 118 708 115 691 z "},"4":{"ha":639,"x_min":-9,"x_max":532,"o":"m 28 229 q -8 251 3 229 q -7 294 -20 273 l 374 872 q 400 890 383 886 q 432 885 418 895 q 450 858 446 875 q 444 827 454 840 l 107 314 l 383 314 q 413 302 401 314 q 425 272 425 290 q 413 242 425 254 q 383 231 401 231 l 29 231 l 28 229 m 449 -1 l 449 603 q 460 633 449 621 q 490 644 472 644 q 520 632 509 644 q 532 603 532 621 l 532 -1 q 520 -31 532 -20 q 490 -43 509 -43 q 460 -31 472 -43 q 449 -1 449 -20 z "},"5":{"ha":732,"x_min":102,"x_max":639,"o":"m 115 41 q 102 70 103 53 q 113 100 102 87 q 141 113 123 113 q 171 103 158 114 q 221 66 196 81 l 218 68 q 277 46 243 54 q 339 37 309 38 l 350 37 l 361 37 l 372 37 q 418 50 395 41 q 461 71 439 58 q 499 100 482 83 q 528 138 515 117 q 547 180 541 161 q 555 227 553 203 l 555 228 l 555 229 l 555 232 q 551 269 555 250 q 541 306 547 285 q 524 338 534 324 q 498 368 514 353 q 412 416 464 401 q 334 427 378 426 l 309 427 q 233 415 275 425 q 172 399 200 408 q 140 400 155 393 q 118 424 125 407 q 119 456 113 441 q 143 478 126 471 q 212 498 175 490 q 300 511 255 508 q 334 513 311 513 q 435 498 388 513 q 554 429 504 479 q 591 385 574 410 q 616 338 607 361 q 633 286 627 311 q 639 233 639 264 l 639 229 l 639 224 l 639 218 q 626 153 636 184 q 599 92 616 122 q 558 39 582 62 q 507 -2 536 16 q 449 -29 478 -20 q 385 -45 414 -40 l 371 -45 l 357 -45 l 343 -45 q 261 -34 303 -45 q 183 -4 220 -22 q 115 41 147 14 m 117 557 l 117 848 q 129 879 117 867 q 158 890 140 890 q 188 879 176 890 q 200 848 200 867 l 200 557 q 188 527 200 538 q 158 515 176 515 q 129 527 140 515 q 117 557 117 538 m 248 819 q 242 825 248 819 q 236 849 236 831 q 248 879 236 867 q 278 890 260 890 l 541 890 q 570 879 559 890 q 582 849 582 867 q 570 819 582 831 q 541 807 558 807 l 278 807 q 248 819 260 807 z "},"6":{"ha":732,"x_min":57,"x_max":654,"o":"m 57 282 q 69 392 57 339 q 211 663 100 517 q 501 900 326 811 q 533 901 517 907 q 557 881 550 896 q 558 849 564 865 q 538 825 553 832 q 275 610 378 746 q 149 370 174 476 q 138 281 138 325 q 164 153 138 205 q 249 66 193 97 q 354 40 298 40 q 378 41 371 40 q 509 103 456 50 q 559 211 553 151 q 561 232 561 218 q 536 326 561 283 q 458 404 507 376 q 358 435 412 431 l 338 435 q 293 431 314 435 q 262 437 276 428 q 244 464 248 447 q 251 495 241 481 q 278 513 261 510 q 336 518 304 518 l 347 517 q 376 515 367 517 q 511 472 448 510 q 618 366 579 433 q 654 229 654 302 q 653 200 654 210 q 576 45 642 110 q 395 -40 503 -29 q 361 -41 384 -41 q 215 -5 283 -41 q 94 115 136 36 q 57 282 57 188 z "},"7":{"ha":671,"x_min":79,"x_max":611,"o":"m 91 820 q 85 826 91 820 q 79 850 79 832 q 91 880 79 868 q 121 892 103 892 l 570 892 q 600 880 588 892 q 611 850 611 868 q 599 820 611 832 q 570 808 587 808 l 121 808 q 91 820 102 808 m 131 -38 q 123 -34 131 -38 q 110 -14 115 -31 q 111 18 104 3 l 460 722 q 483 743 467 738 q 515 742 500 749 q 536 718 530 734 q 534 686 542 701 l 186 -18 q 162 -39 179 -34 q 131 -38 146 -45 z "},"8":{"ha":707,"x_min":77,"x_max":623,"o":"m 77 235 q 117 380 77 313 q 157 433 134 410 q 186 446 169 446 q 217 433 204 446 q 229 404 229 421 q 216 374 229 386 q 187 338 201 358 q 160 236 159 289 q 161 215 160 222 q 250 69 170 122 q 353 39 298 39 q 416 50 386 39 q 522 149 487 77 q 539 229 539 186 q 528 294 539 261 q 429 408 500 374 q 351 425 410 418 q 256 446 293 431 q 174 504 208 465 q 125 591 139 543 q 115 659 115 622 q 150 781 115 724 q 307 888 204 868 q 349 892 328 892 q 461 863 408 892 q 566 745 536 821 q 582 659 583 703 q 566 574 582 614 q 538 524 556 549 q 510 508 527 510 q 479 515 493 505 q 464 543 466 526 q 471 573 461 559 q 488 606 481 587 l 489 607 q 498 660 498 631 q 488 715 498 689 q 421 791 468 766 q 349 811 387 811 q 323 808 340 811 q 221 739 257 796 q 199 659 199 702 q 205 615 199 639 q 239 559 215 583 q 290 522 262 534 q 363 507 318 511 q 468 482 432 500 q 607 321 570 432 q 623 231 623 275 q 597 114 623 168 q 444 -28 551 11 q 353 -45 399 -45 q 204 -1 272 -45 q 78 205 92 73 q 77 235 77 215 z "},"9":{"ha":694,"x_min":62,"x_max":621,"o":"m 62 607 q 64 629 62 621 q 149 804 72 731 q 302 885 212 868 q 349 889 325 889 q 476 856 418 889 q 576 758 538 821 q 616 636 608 704 q 621 574 621 606 q 603 437 621 510 q 475 182 570 305 q 243 -37 382 60 q 212 -43 229 -47 q 185 -26 195 -40 q 178 5 175 -12 q 196 32 182 22 q 408 233 321 119 q 522 458 492 343 q 538 572 538 517 q 533 625 538 600 q 503 718 526 678 q 436 786 477 761 q 346 808 395 808 q 313 806 335 808 q 201 749 248 795 q 142 625 149 696 l 142 611 q 183 498 142 547 q 282 439 222 454 q 336 432 313 432 q 370 435 347 432 q 400 428 387 437 q 416 401 414 418 q 410 371 419 385 q 383 354 400 357 q 338 350 361 350 l 340 343 q 265 353 300 343 q 123 440 178 376 q 62 607 62 513 z "}," ":{"ha":264,"x_min":0,"x_max":0,"o":""},"!":{"ha":180,"x_min":-3,"x_max":183,"o":"m 24 -15 q 11 -1 24 -15 q -3 51 -3 12 q 24 117 -3 90 q 90 144 52 144 q 156 117 129 144 q 183 51 183 90 q 156 -15 183 12 q 90 -41 129 -41 q 24 -15 52 -41 m 49 214 l 49 895 q 60 924 49 913 q 90 936 72 936 q 120 924 109 936 q 132 895 132 913 l 132 214 q 120 184 132 195 q 90 172 109 172 q 60 184 72 172 q 49 214 49 195 z "},"\"":{"ha":190,"x_min":1,"x_max":189,"o":"m 1 684 l 1 901 q 13 931 1 920 q 43 943 25 943 q 73 931 61 943 q 85 901 85 920 l 85 684 q 73 653 85 665 q 43 642 61 642 q 13 653 25 642 q 1 684 1 665 m 106 684 l 106 901 q 117 931 106 920 q 147 943 129 943 q 177 931 165 943 q 189 901 189 920 l 189 684 q 177 653 189 665 q 147 642 165 642 q 117 653 129 642 q 106 684 106 665 z "},"#":{"ha":568,"x_min":11,"x_max":530,"o":"m 23 198 q 17 204 23 198 q 11 228 11 210 q 23 257 11 245 q 53 269 35 269 l 90 269 l 110 343 l 53 343 q 23 355 35 343 q 11 385 11 367 q 23 415 11 403 q 53 427 35 427 l 132 427 l 183 623 q 202 648 187 640 q 233 653 216 657 q 259 634 250 648 q 264 603 268 619 l 218 429 l 383 429 l 435 625 q 453 651 439 642 q 485 656 468 660 q 510 637 501 652 q 515 606 519 623 l 469 432 l 489 432 q 519 420 507 432 q 530 390 530 408 q 519 360 530 372 q 489 349 507 349 l 447 349 l 428 275 l 489 275 q 519 263 507 275 q 530 233 530 252 q 519 203 530 215 q 489 192 507 192 l 406 192 l 351 -11 q 333 -37 347 -28 q 301 -42 318 -46 q 276 -23 285 -37 q 271 8 267 -8 l 319 189 l 154 189 l 100 -14 q 81 -40 96 -31 q 50 -44 66 -49 q 24 -25 33 -40 q 20 5 16 -11 l 68 186 l 53 186 q 23 198 35 186 m 176 275 l 342 275 l 361 349 l 196 349 l 176 275 z "},"$":{"ha":616,"x_min":-5,"x_max":633,"o":"m 11 62 q -5 91 -3 74 q 3 121 -7 107 q 31 137 14 134 q 61 129 47 139 q 110 97 86 111 l 110 100 q 272 45 188 54 q 319 41 302 42 q 416 56 374 41 q 517 118 480 75 q 551 205 551 157 l 551 215 q 525 283 550 250 q 463 336 503 314 q 410 360 439 350 q 337 381 382 370 q 279 396 293 392 q 123 471 180 425 q 64 542 86 503 q 37 632 39 587 l 37 643 q 65 747 37 699 q 150 829 94 799 q 262 861 199 857 l 281 861 l 285 861 q 262 897 262 872 l 262 942 q 274 972 262 960 q 304 983 286 983 q 334 971 322 983 q 346 942 346 960 l 346 897 q 319 859 346 868 q 374 846 347 854 q 485 793 433 829 l 485 818 q 497 848 485 836 q 527 860 509 860 q 556 848 545 860 q 568 818 568 836 l 568 697 q 541 660 568 668 q 494 672 511 652 q 353 768 439 743 q 285 779 317 779 l 269 779 q 193 758 227 777 q 139 707 159 739 q 122 643 122 677 l 122 636 q 139 581 125 606 q 179 532 155 553 q 304 473 224 494 q 364 457 317 469 q 444 435 411 446 q 504 407 476 424 q 591 330 558 375 q 633 218 629 280 l 633 203 q 579 61 633 125 q 441 -26 529 3 q 318 -45 383 -45 q 260 -40 289 -45 q 68 25 161 -28 q 11 62 36 43 m 264 -102 q 276 -72 264 -83 q 306 -60 288 -60 q 335 -72 323 -60 q 347 -102 347 -83 l 347 -142 q 335 -172 347 -160 q 306 -183 323 -183 q 276 -172 288 -183 q 264 -142 264 -160 l 264 -102 m 264 107 l 264 318 q 276 348 264 336 q 306 359 288 359 q 335 348 323 359 q 347 318 347 336 l 347 107 q 335 77 347 89 q 306 65 323 65 q 276 77 288 65 q 264 107 264 89 m 264 557 l 264 710 q 276 740 264 728 q 306 751 288 751 q 335 740 323 751 q 347 710 347 728 l 347 557 q 335 527 347 538 q 306 515 323 515 q 276 527 288 515 q 264 557 264 538 z "},"%":{"ha":876,"x_min":-9,"x_max":863,"o":"m -9 697 q 26 847 -9 786 q 90 917 53 892 q 183 947 133 945 l 189 947 q 282 921 239 947 q 350 854 322 897 q 392 688 391 788 q 354 530 392 595 q 292 465 329 489 q 200 436 250 439 l 195 436 q 105 460 146 436 q 39 524 65 484 q -7 684 -4 589 l -7 699 l -9 697 m 64 -33 q 48 -6 50 -22 q 56 25 46 11 l 739 920 q 767 935 750 933 q 798 928 783 937 q 813 900 811 917 q 806 869 815 884 l 122 -25 q 95 -41 111 -39 q 64 -33 78 -43 m 74 679 q 106 564 77 610 q 144 528 119 541 q 192 515 165 515 l 195 515 q 244 530 222 515 q 281 570 265 544 q 307 684 307 612 q 278 807 307 759 q 239 847 264 832 q 189 861 215 861 l 186 861 q 136 846 158 861 q 98 806 114 832 q 74 697 73 764 l 74 685 l 74 679 m 461 220 q 497 370 461 309 q 561 439 524 414 q 654 469 604 467 l 660 469 q 753 443 710 469 q 821 376 793 419 q 863 210 862 310 q 825 53 863 117 q 762 -12 800 12 q 671 -41 721 -39 l 665 -41 q 576 -18 616 -41 q 510 46 536 5 q 464 205 467 111 l 464 221 l 461 220 m 545 201 q 576 86 547 132 q 615 50 590 64 q 663 37 636 38 l 665 37 q 715 53 692 37 q 751 92 736 66 q 778 205 778 134 q 749 329 778 281 q 710 370 735 354 q 660 383 686 383 l 657 383 q 607 368 631 383 q 570 328 585 355 q 545 220 545 286 l 545 207 l 545 201 z "},"&":{"ha":979,"x_min":-17,"x_max":871,"o":"m -17 249 q -16 282 -17 271 q 78 467 -3 389 q 106 490 92 480 q 137 499 119 501 q 164 484 154 497 q 173 452 175 470 q 157 425 171 435 q 136 407 143 414 l 138 408 q 69 273 78 351 q 68 249 68 265 q 96 146 68 193 q 192 58 129 86 q 288 37 237 37 q 321 40 298 37 q 440 96 387 50 l 450 106 q 480 116 463 117 q 508 103 497 115 q 519 73 519 90 q 505 45 518 56 l 492 31 q 329 -45 420 -29 q 283 -49 305 -49 q 154 -20 214 -49 q 21 104 66 22 q -17 249 -17 171 m 146 676 q 157 746 146 709 q 224 843 178 804 q 334 890 271 883 l 353 890 q 460 857 411 890 q 530 746 518 816 q 533 718 533 729 q 514 637 533 677 q 447 559 489 590 q 390 525 423 541 q 358 524 374 518 q 335 544 342 529 q 333 576 328 559 q 354 600 339 593 q 396 625 378 611 q 439 673 425 648 q 450 717 450 696 l 450 730 q 414 787 444 766 q 355 804 387 804 l 346 804 q 282 777 311 800 q 241 715 253 753 q 235 673 235 692 q 237 648 235 665 q 265 587 243 615 l 685 62 q 725 39 702 41 l 733 39 q 766 49 753 39 q 791 83 785 60 q 810 109 795 100 q 842 113 825 117 q 867 94 859 109 q 871 62 875 79 q 812 -20 855 8 l 804 -17 q 725 -40 770 -41 l 707 -40 q 614 16 648 -32 l 195 541 q 150 639 160 585 q 146 676 146 658 m 550 283 q 568 325 561 311 l 564 326 q 611 396 585 371 q 689 433 652 429 l 701 433 l 707 433 q 785 403 753 433 q 818 328 818 372 q 806 298 818 309 q 776 286 794 286 q 746 298 758 286 q 734 328 734 310 q 728 343 734 337 q 708 350 721 350 l 707 350 l 703 350 q 672 335 689 349 q 643 290 655 319 q 627 254 637 279 q 604 232 620 239 q 574 231 589 225 q 551 253 558 237 q 550 283 545 268 z "},"'":{"ha":223,"x_min":20,"x_max":210,"o":"m 20 848 q 47 915 20 887 q 113 942 74 942 l 114 942 q 144 937 131 942 l 143 933 q 192 895 174 924 q 210 839 209 872 l 210 833 q 191 761 210 796 q 150 708 175 736 q 82 653 118 672 q 50 650 66 645 q 25 671 33 656 q 22 703 17 686 q 43 728 28 720 q 83 760 61 737 q 38 793 56 769 q 20 848 20 818 z "},"(":{"ha":336,"x_min":62,"x_max":266,"o":"m 62 433 q 186 917 62 690 q 211 937 194 932 q 243 933 228 942 q 263 908 258 925 q 260 876 268 892 q 147 432 147 668 q 262 -16 147 195 q 266 -47 271 -31 q 246 -72 261 -64 q 214 -76 231 -81 q 189 -56 197 -71 q 64 431 64 171 l 62 433 z "},")":{"ha":336,"x_min":54,"x_max":256,"o":"m 74 -74 q 66 -69 74 -74 q 54 -48 58 -65 q 57 -17 49 -32 q 172 431 172 193 l 171 428 q 58 872 171 664 q 55 904 50 888 q 75 929 60 921 q 107 932 90 937 q 132 913 123 928 q 256 429 256 686 q 131 -57 256 170 q 106 -77 123 -73 q 74 -74 89 -82 z "},"*":{"ha":370,"x_min":26,"x_max":346,"o":"m 31 665 q 26 673 31 665 q 26 697 22 681 q 46 721 31 713 l 104 754 l 46 787 q 26 812 31 795 q 31 843 22 828 q 55 863 39 859 q 86 859 71 867 l 144 825 l 144 892 q 156 922 144 910 q 186 933 168 933 q 216 921 204 933 q 228 892 228 909 l 228 825 l 286 859 q 318 863 302 867 q 342 843 334 859 q 346 812 350 828 q 326 787 342 796 l 268 754 l 326 721 q 346 697 342 713 q 342 665 350 681 q 317 646 334 650 q 286 650 301 642 l 228 684 l 228 616 q 216 587 228 598 q 186 575 204 575 q 156 587 168 575 q 144 616 144 599 l 144 684 l 86 650 q 55 646 71 642 q 31 665 39 650 z "},"+":{"ha":568,"x_min":52,"x_max":507,"o":"m 63 360 q 57 366 63 360 q 52 390 52 372 q 63 420 52 408 q 93 432 75 432 l 239 432 l 239 572 q 251 602 239 591 q 280 614 262 614 q 310 602 298 614 q 322 572 322 590 l 322 432 l 465 432 q 495 420 484 432 q 507 390 507 408 q 495 360 507 372 q 465 349 484 349 l 322 349 l 322 200 q 310 170 322 182 q 280 158 298 158 q 251 170 262 158 q 239 200 239 182 l 239 349 l 93 349 q 63 360 75 349 z "},",":{"ha":288,"x_min":45,"x_max":232,"o":"m 45 53 q 71 117 45 90 q 135 143 97 143 l 136 143 l 144 143 q 168 139 155 143 l 165 136 q 214 97 196 127 q 232 41 231 75 l 232 36 q 212 -36 232 -1 q 172 -89 197 -61 q 122 -140 155 -107 q 93 -151 110 -151 q 64 -139 75 -151 q 53 -109 53 -126 q 65 -81 53 -92 q 110 -35 96 -50 q 63 -2 81 -26 q 45 53 45 22 z "},"-":{"ha":281,"x_min":-21,"x_max":298,"o":"m -9 360 q -15 366 -9 360 q -21 390 -21 372 q -9 420 -21 408 q 21 432 3 432 l 258 432 l 257 432 q 287 420 275 432 q 298 390 298 408 q 287 360 298 372 q 257 349 275 349 l 21 349 q -9 360 3 349 z "},".":{"ha":236,"x_min":24,"x_max":210,"o":"m 51 -15 q 37 -1 51 -15 q 24 51 24 12 q 51 117 24 90 q 117 144 78 144 q 182 117 155 144 q 210 51 210 90 q 182 -15 210 12 q 117 -41 155 -41 q 51 -15 78 -41 z "},"/":{"ha":444,"x_min":49,"x_max":410,"o":"m 49 0 l 329 895 q 350 920 334 911 q 382 922 366 928 q 407 902 399 917 q 410 869 415 886 l 129 -25 q 108 -50 123 -42 q 76 -53 93 -58 q 52 -32 60 -47 q 49 0 43 -17 z "},":":{"ha":272,"x_min":25,"x_max":211,"o":"m 52 -15 q 39 -1 52 -15 q 25 51 25 12 q 52 117 25 90 q 118 144 79 144 q 184 117 157 144 q 211 51 211 90 q 184 -15 211 12 q 118 -41 157 -41 q 52 -15 79 -41 m 52 508 q 39 521 52 508 q 25 573 25 534 q 52 640 25 612 q 118 667 79 667 q 184 640 157 667 q 211 573 211 612 q 184 508 211 534 q 118 481 157 481 q 52 508 79 481 z "},";":{"ha":269,"x_min":35,"x_max":225,"o":"m 35 50 q 62 116 35 89 q 127 143 89 143 l 129 143 q 160 139 144 143 l 158 136 q 207 97 189 127 q 225 41 224 75 l 225 36 q 205 -36 225 -1 q 165 -89 190 -61 q 115 -140 149 -107 q 85 -151 103 -151 q 57 -139 68 -151 q 46 -109 46 -126 q 58 -81 46 -92 q 98 -39 86 -53 q 53 -5 71 -29 q 35 50 35 20 m 62 508 q 48 521 62 508 q 35 573 35 534 q 62 640 35 612 q 128 667 89 667 q 194 640 167 667 q 221 573 221 612 q 194 508 221 534 q 128 481 167 481 q 62 508 89 481 z "},"<":{"ha":180,"x_min":-22,"x_max":221,"o":"m 1 267 q -22 304 -22 278 q 3 342 -22 330 q 78 376 53 364 q 161 421 106 390 q 193 425 177 429 q 217 406 208 421 q 221 374 225 390 q 201 350 216 358 q 117 306 146 319 l 117 304 q 200 260 144 291 q 220 236 216 252 q 215 204 224 220 q 191 185 207 189 q 160 189 175 180 q 77 232 132 205 q 1 267 52 244 z "},"=":{"ha":568,"x_min":17,"x_max":536,"o":"m 28 282 q 23 288 28 282 q 17 312 17 294 q 28 342 17 330 q 58 354 40 354 l 494 354 q 525 342 513 354 q 536 312 536 330 q 525 282 536 294 q 494 271 513 271 l 58 271 q 28 282 40 271 m 28 440 q 23 446 28 440 q 17 470 17 452 q 28 499 17 488 q 58 511 40 511 l 494 511 q 525 499 513 511 q 536 470 536 488 q 525 440 536 452 q 494 428 513 428 l 58 428 q 28 440 40 428 z "},">":{"ha":180,"x_min":-36,"x_max":207,"o":"m -17 353 q -36 377 -32 361 q -32 409 -40 393 q -8 428 -24 424 q 24 424 8 432 q 107 379 79 393 l 107 380 q 182 346 132 368 q 207 309 207 335 q 183 271 207 282 q 109 236 133 248 q 25 193 53 208 q -6 189 9 185 q -31 209 -22 193 q -35 240 -39 224 q -16 264 -31 256 q 68 309 40 294 q -17 353 39 322 z "},"?":{"ha":460,"x_min":26,"x_max":386,"o":"m 32 842 q 27 849 32 842 q 26 873 22 856 q 45 900 31 890 q 153 936 94 932 l 172 936 q 298 897 243 936 q 382 770 366 848 q 386 728 386 749 q 374 650 386 688 q 321 554 357 602 q 271 490 317 549 q 210 401 225 431 q 178 286 179 346 l 178 214 q 166 184 178 195 q 136 172 154 172 q 106 184 118 172 q 94 214 94 196 l 94 289 l 98 288 q 139 439 100 366 q 175 496 155 468 q 220 555 195 525 q 257 603 245 586 q 297 677 285 642 q 306 729 305 703 q 302 754 306 737 q 253 831 293 803 q 175 854 220 854 l 161 854 q 90 829 121 850 q 59 824 77 820 q 32 842 41 828 m 75 -16 q 61 -3 75 -16 q 47 50 47 11 q 75 116 47 89 q 140 143 102 143 q 206 116 179 143 q 233 50 233 89 q 206 -16 233 11 q 140 -43 179 -43 q 75 -16 102 -43 z "},"@":{"ha":659,"x_min":-25,"x_max":674,"o":"m -25 298 q -16 390 -25 347 q 46 528 3 469 q 182 633 99 598 q 321 660 247 660 q 350 659 340 660 q 481 621 418 652 q 586 532 543 589 q 650 323 650 447 l 650 300 q 612 136 644 201 q 568 77 594 99 q 537 67 555 66 q 510 83 519 69 q 501 115 499 97 q 517 142 503 132 q 539 174 530 155 l 543 180 q 572 311 568 232 l 572 330 q 525 490 572 427 q 449 554 494 530 q 349 582 401 578 l 323 582 q 216 561 267 582 q 114 482 154 534 q 68 376 81 436 q 60 302 60 342 q 62 257 60 287 q 94 142 68 197 q 164 50 121 87 q 277 -5 214 10 q 346 -14 310 -14 q 406 -9 376 -14 q 610 74 515 7 q 641 80 623 83 q 668 63 659 77 q 674 31 677 49 q 657 4 671 14 q 418 -93 546 -73 q 345 -98 386 -98 q 257 -89 297 -98 q 109 -16 174 -69 q 18 104 52 33 q -21 244 -12 168 q -25 298 -25 272 m 122 182 l 122 193 q 155 296 122 254 q 240 355 187 338 l 325 383 q 357 380 342 389 q 378 356 372 372 q 375 324 383 339 q 350 302 367 309 l 265 275 l 262 272 q 203 189 203 252 l 203 184 q 215 153 205 165 q 236 140 223 143 q 250 139 240 139 q 273 143 258 139 l 322 160 q 354 158 339 165 q 375 133 370 150 q 373 101 380 117 q 349 81 366 86 l 298 64 q 252 57 273 57 q 216 61 233 57 q 153 103 180 71 q 122 182 129 132 m 162 425 q 155 430 162 425 q 144 452 149 435 q 150 484 140 469 q 168 505 158 496 q 224 546 192 530 q 318 567 264 564 l 323 567 q 368 561 347 567 q 421 538 399 554 q 469 472 454 514 q 479 415 479 447 l 479 412 l 479 404 l 479 386 l 479 375 l 479 132 q 468 102 479 114 q 437 90 456 90 q 408 102 419 90 q 396 132 396 114 l 396 375 l 396 386 l 396 404 l 396 414 l 396 416 q 392 444 396 432 q 372 472 385 464 q 351 481 364 477 q 325 484 334 484 l 319 484 q 258 471 286 484 q 229 450 241 463 l 221 437 q 194 419 212 424 q 162 425 176 415 z "},"A":{"ha":908,"x_min":24,"x_max":870,"o":"m 27 -16 q 24 0 24 -7 q 28 17 24 8 l 336 736 q 360 758 343 751 q 392 757 376 764 q 413 733 407 750 q 412 701 419 717 l 104 -18 q 81 -39 98 -34 q 65 -43 73 -42 q 49 -39 57 -43 q 27 -16 33 -33 m 305 284 q 299 290 305 284 q 293 314 293 296 q 305 343 293 332 q 335 355 317 355 l 557 355 q 587 343 575 355 q 599 314 599 332 q 587 284 599 296 q 557 272 575 272 l 335 272 q 305 284 317 272 m 409 903 q 431 926 415 920 q 447 930 439 930 q 463 927 454 930 q 486 905 479 921 l 867 17 q 870 0 870 9 q 867 -16 870 -7 q 846 -39 861 -33 q 829 -43 838 -42 q 814 -39 822 -43 q 790 -18 797 -33 l 410 871 q 406 887 406 879 q 409 903 406 895 z "},"B":{"ha":940,"x_min":118,"x_max":854,"o":"m 118 -1 l 118 888 q 130 918 118 906 q 160 929 142 929 q 190 917 178 929 q 201 888 201 905 l 201 -1 q 190 -31 201 -20 q 160 -43 178 -43 q 130 -31 142 -43 q 118 -1 118 -20 m 259 858 q 253 863 259 858 q 248 887 248 869 q 259 917 248 905 q 289 929 271 929 l 501 929 q 708 859 644 929 q 772 685 772 789 q 701 521 772 583 q 501 458 629 458 l 301 458 q 271 470 283 458 q 260 500 260 482 q 272 530 260 518 q 301 542 283 542 l 501 542 q 641 581 593 542 q 689 685 689 619 q 501 846 689 846 l 289 846 q 259 858 271 846 m 269 -30 q 263 -24 269 -30 q 257 0 257 -18 q 269 30 257 18 q 298 41 281 41 l 522 41 q 612 51 571 41 q 690 84 653 61 q 748 152 726 107 q 770 257 770 196 l 770 258 q 711 414 770 363 q 697 442 698 425 q 707 474 696 460 q 735 488 718 488 q 737 488 736 488 q 766 478 753 488 q 854 258 854 401 l 852 257 q 764 38 852 117 q 522 -41 675 -41 l 298 -41 q 269 -30 280 -41 z "},"C":{"ha":894,"x_min":50,"x_max":821,"o":"m 50 422 l 50 440 q 89 644 50 549 q 265 864 146 786 q 492 930 368 930 q 718 864 615 930 q 736 837 732 854 q 731 805 741 819 q 704 787 721 791 q 672 793 686 783 q 492 846 589 846 q 311 793 395 846 q 167 610 214 729 q 134 439 134 528 l 134 425 q 180 241 138 323 q 311 97 228 150 q 493 41 395 45 l 498 41 q 749 146 644 41 q 779 158 761 158 q 808 146 796 158 q 821 116 821 134 q 808 86 821 98 q 500 -41 681 -41 l 496 -39 l 490 -39 q 265 29 367 -36 q 106 204 161 94 q 50 422 54 304 z "},"D":{"ha":851,"x_min":117,"x_max":768,"o":"m 117 3 l 117 892 q 129 922 117 910 q 158 933 140 933 q 188 921 176 933 q 200 892 200 909 l 200 3 q 188 -27 200 -16 q 158 -39 176 -39 q 129 -27 140 -39 q 117 3 117 -16 m 247 -30 q 241 -24 247 -30 q 235 0 235 -18 q 247 30 235 18 q 277 41 258 41 l 342 41 l 359 41 l 378 41 q 460 57 418 43 q 600 151 545 85 q 668 286 646 204 q 688 439 688 354 l 688 441 q 669 593 688 522 q 607 722 650 667 q 510 803 567 774 q 386 842 456 831 q 334 847 366 844 l 286 847 q 256 859 268 847 q 244 889 244 871 q 256 919 244 907 q 286 930 268 930 l 335 930 l 332 933 q 396 928 376 930 q 546 879 479 914 q 669 777 621 840 q 747 616 722 710 q 768 444 768 538 l 768 441 q 747 265 768 345 q 664 98 720 165 q 485 -22 593 12 q 382 -41 432 -41 l 359 -41 l 339 -41 l 277 -41 q 247 -30 258 -41 z "},"E":{"ha":848,"x_min":118,"x_max":762,"o":"m 118 0 l 118 889 q 130 919 118 907 q 160 930 142 930 q 190 919 178 930 q 201 889 201 907 l 201 0 q 190 -30 201 -18 q 160 -41 178 -41 q 130 -30 142 -41 q 118 0 118 -18 m 247 -30 q 241 -24 247 -30 q 235 0 235 -18 q 247 30 235 18 q 277 41 258 41 l 721 41 q 751 30 739 41 q 762 0 762 18 q 751 -30 762 -18 q 721 -41 739 -41 l 277 -41 q 247 -30 258 -41 m 249 448 q 243 454 249 448 q 237 478 237 460 q 249 508 237 496 q 279 519 261 519 l 637 519 q 667 508 656 519 q 679 478 679 496 q 667 448 679 460 q 637 436 656 436 l 279 436 q 249 448 261 436 m 249 859 q 243 865 249 859 q 237 889 237 871 q 249 919 237 907 q 279 930 261 930 l 720 930 q 749 919 738 930 q 761 889 761 907 q 749 859 761 871 q 720 847 737 847 l 279 847 q 249 859 261 847 z "},"F":{"ha":793,"x_min":118,"x_max":739,"o":"m 118 0 l 118 889 q 130 919 118 907 q 160 930 142 930 q 190 919 178 930 q 201 889 201 907 l 201 0 q 190 -30 201 -18 q 160 -41 178 -41 q 130 -30 142 -41 q 118 0 118 -18 m 249 448 q 243 454 249 448 q 237 478 237 460 q 249 508 237 496 q 279 519 261 519 l 615 519 q 645 508 633 519 q 657 478 657 496 q 645 448 657 460 q 615 436 633 436 l 279 436 q 249 448 261 436 m 249 859 q 243 865 249 859 q 237 889 237 871 q 249 919 237 907 q 279 930 261 930 l 697 930 q 727 919 715 930 q 739 889 739 907 q 727 859 739 871 q 697 847 715 847 l 279 847 q 249 859 261 847 z "},"G":{"ha":933,"x_min":56,"x_max":852,"o":"m 56 421 l 56 429 l 56 437 q 60 509 56 472 q 72 576 64 543 q 93 643 81 610 q 136 726 114 690 q 195 802 161 766 q 268 864 227 836 q 339 900 304 886 q 415 922 374 914 q 494 930 455 930 q 574 922 533 930 q 650 900 615 914 q 721 864 685 886 q 739 837 734 854 q 733 805 743 819 q 706 787 724 791 q 675 793 689 783 q 618 822 650 808 l 621 827 q 559 844 595 838 q 497 851 525 851 q 435 844 469 851 q 374 827 399 838 q 317 798 342 813 q 257 749 288 779 q 208 686 228 717 q 172 615 186 650 q 154 559 164 593 q 142 501 146 530 q 138 443 138 472 l 138 435 l 138 427 q 146 364 139 395 q 163 302 153 331 q 187 245 174 272 q 222 191 203 216 q 268 140 243 164 q 318 100 293 115 q 375 71 343 85 q 436 53 400 60 q 498 46 471 46 q 581 57 538 46 q 656 89 618 66 q 764 235 745 142 q 770 290 769 257 l 770 432 q 781 462 770 450 q 811 473 793 473 q 841 462 829 473 q 852 432 852 450 l 852 292 q 847 218 852 247 q 699 17 819 90 q 602 -25 654 -9 q 498 -39 554 -39 q 419 -31 458 -39 q 343 -7 385 -24 q 272 29 309 7 q 210 78 241 49 q 155 136 180 106 q 113 203 132 165 q 83 272 97 235 q 64 346 70 311 q 56 421 58 384 m 387 402 q 381 409 387 402 q 375 433 375 415 q 388 463 375 452 q 418 475 400 475 l 681 473 q 711 461 699 473 q 722 431 722 449 q 710 400 722 412 q 679 389 697 389 l 416 390 q 387 402 398 390 z "},"H":{"ha":923,"x_min":117,"x_max":806,"o":"m 117 0 l 117 889 q 129 919 117 907 q 158 930 140 930 q 188 919 176 930 q 200 889 200 907 l 200 0 q 188 -30 200 -18 q 158 -41 176 -41 q 129 -30 140 -41 q 117 0 117 -18 m 248 448 q 242 454 248 448 q 236 478 236 460 q 248 508 236 496 q 278 519 260 519 l 647 519 q 677 508 665 519 q 689 478 689 496 q 677 448 689 460 q 647 436 665 436 l 278 436 q 248 448 260 436 m 722 0 l 722 889 q 734 919 722 907 q 764 930 746 930 q 794 919 782 930 q 806 889 806 907 l 806 0 q 794 -30 806 -18 q 764 -41 782 -41 q 734 -30 746 -41 q 722 0 722 -18 z "},"I":{"ha":319,"x_min":118,"x_max":201,"o":"m 118 0 l 118 889 q 130 919 118 907 q 160 930 142 930 q 190 919 178 930 q 201 889 201 907 l 201 0 q 190 -30 201 -18 q 160 -41 178 -41 q 130 -30 142 -41 q 118 0 118 -18 z "},"J":{"ha":785,"x_min":56,"x_max":675,"o":"m 56 244 q 65 270 56 258 q 93 284 76 283 q 123 275 110 286 q 138 248 136 264 q 211 98 144 159 q 366 39 276 39 l 367 39 q 530 110 464 39 q 559 150 546 127 q 584 170 568 165 q 615 165 600 174 q 635 141 631 157 q 631 110 639 125 q 590 56 615 82 l 590 57 q 366 -40 497 -40 l 364 -40 q 155 40 245 -40 q 56 244 56 132 m 591 282 l 591 889 q 603 919 591 907 q 633 930 615 930 q 663 919 652 930 q 675 889 675 907 l 675 282 q 663 252 675 264 q 633 240 652 240 q 603 252 615 240 q 591 282 591 264 z "},"K":{"ha":851,"x_min":118,"x_max":794,"o":"m 118 0 l 118 889 q 130 919 118 907 q 160 930 142 930 q 190 919 178 930 q 201 889 201 907 l 201 0 q 190 -30 201 -18 q 160 -41 178 -41 q 130 -30 142 -41 q 118 0 118 -18 m 235 457 q 229 463 235 457 q 222 487 222 469 q 235 517 222 504 l 639 921 q 669 933 651 933 q 699 921 686 933 q 711 891 711 908 q 699 861 711 873 l 294 457 q 265 445 282 445 q 235 457 248 444 m 325 368 q 313 398 313 380 q 325 428 313 415 q 355 440 338 440 q 385 428 372 440 l 782 31 q 794 1 794 18 q 782 -29 794 -17 q 752 -41 770 -41 q 722 -29 734 -41 l 325 368 z "},"L":{"ha":774,"x_min":118,"x_max":758,"o":"m 118 0 l 118 889 q 130 919 118 907 q 160 930 142 930 q 190 919 178 930 q 201 889 201 907 l 201 0 q 190 -30 201 -18 q 160 -41 178 -41 q 130 -30 142 -41 q 118 0 118 -18 m 269 -30 q 263 -24 269 -30 q 257 0 257 -18 q 269 30 257 18 q 298 41 281 41 l 717 41 q 747 30 735 41 q 758 0 758 18 q 746 -30 758 -18 q 717 -41 734 -41 l 298 -41 q 269 -30 280 -41 z "},"M":{"ha":1241,"x_min":118,"x_max":1126,"o":"m 118 0 l 118 889 q 130 919 118 907 q 160 930 142 930 q 190 919 178 930 q 201 889 201 907 l 201 0 q 190 -30 201 -18 q 160 -41 178 -41 q 130 -30 142 -41 q 118 0 118 -18 m 240 672 q 261 696 245 689 q 293 697 277 703 q 317 676 310 692 l 650 17 q 651 -15 656 1 q 631 -39 646 -32 q 613 -43 622 -43 q 599 -40 606 -43 q 575 -20 582 -35 l 241 640 q 238 658 237 649 q 240 672 237 665 m 672 163 q 670 176 670 170 q 675 195 670 185 l 1046 908 q 1071 929 1054 924 q 1084 931 1078 931 q 1103 926 1093 931 q 1124 901 1118 918 q 1126 888 1126 895 q 1121 869 1126 879 l 750 155 q 725 134 742 140 q 693 137 708 129 q 672 163 677 146 m 1042 0 l 1042 619 q 1054 649 1042 637 q 1083 661 1065 661 q 1113 649 1101 661 q 1125 619 1125 637 l 1125 0 q 1113 -30 1125 -18 q 1083 -41 1101 -41 q 1054 -30 1065 -41 q 1042 0 1042 -18 z "},"N":{"ha":920,"x_min":119,"x_max":806,"o":"m 119 0 l 119 611 q 131 641 119 629 q 161 653 143 653 q 191 641 179 653 q 203 611 203 629 l 203 0 q 191 -30 203 -18 q 161 -41 179 -41 q 131 -30 143 -41 q 119 0 119 -18 m 121 897 q 139 924 125 914 q 170 929 153 933 q 197 911 187 925 l 799 22 q 806 1 806 13 q 804 -9 806 -3 q 786 -36 800 -26 q 765 -43 777 -43 q 755 -41 760 -43 q 728 -24 737 -37 l 126 865 q 119 886 119 875 q 121 897 119 891 m 721 278 l 721 889 q 733 919 721 907 q 763 930 745 930 q 792 919 781 930 q 804 889 804 907 l 804 278 q 792 248 804 260 q 763 236 781 236 q 733 248 745 236 q 721 278 721 260 z "},"O":{"ha":1023,"x_min":52,"x_max":951,"o":"m 183 101 q 117 173 183 101 q 52 444 52 244 q 183 787 52 644 q 502 930 314 930 q 820 787 689 930 q 951 444 951 644 q 820 101 951 244 q 502 -41 689 -41 q 183 101 314 -41 m 241 730 q 187 671 241 730 q 134 445 134 612 q 241 159 134 277 q 500 41 349 41 q 759 159 652 41 q 867 445 867 277 q 759 730 867 612 q 500 847 652 847 q 241 730 349 847 z "},"P":{"ha":842,"x_min":119,"x_max":778,"o":"m 119 0 l 119 889 q 131 919 119 907 q 161 930 143 930 q 191 919 179 930 q 203 889 203 907 l 203 0 q 191 -30 203 -18 q 161 -41 179 -41 q 131 -30 143 -41 q 119 0 119 -18 m 271 859 q 266 865 271 859 q 260 889 260 871 q 272 919 260 907 q 301 930 283 930 l 503 930 q 708 848 637 930 q 778 644 778 766 q 705 446 778 518 q 519 374 632 374 l 306 374 q 276 386 288 374 q 264 415 264 397 q 276 445 264 433 q 306 457 288 457 l 519 457 q 647 506 600 457 q 694 644 694 555 q 651 787 694 726 q 503 847 607 847 l 301 847 q 271 859 283 847 z "},"Q":{"ha":1038,"x_min":52,"x_max":951,"o":"m 183 98 q 117 170 183 98 q 52 441 52 241 q 183 785 52 642 q 502 928 314 928 q 820 785 689 928 q 951 441 951 642 q 892 201 951 314 q 867 180 884 186 q 834 183 850 175 q 814 209 819 192 q 817 240 808 225 q 867 443 867 333 q 759 728 867 611 q 500 846 652 846 q 241 728 349 846 q 134 443 134 611 q 241 158 134 275 q 500 40 349 40 q 639 71 570 40 q 671 71 654 77 q 694 50 688 65 q 695 18 701 35 q 673 -5 689 1 q 501 -41 593 -41 l 501 -45 q 183 98 314 -45 m 496 318 q 484 348 484 330 q 496 378 484 366 q 526 390 509 390 q 555 378 543 390 l 904 29 q 917 -1 916 17 q 904 -31 917 -18 q 874 -43 892 -43 q 844 -31 857 -43 l 496 318 z "},"R":{"ha":903,"x_min":119,"x_max":825,"o":"m 119 0 l 119 889 q 131 919 119 907 q 161 930 143 930 q 191 919 179 930 q 203 889 203 907 l 203 0 q 191 -30 203 -18 q 161 -41 179 -41 q 131 -30 143 -41 q 119 0 119 -18 m 270 859 q 264 865 270 859 q 258 889 258 871 q 270 919 258 907 q 300 930 282 930 l 519 930 l 519 929 q 709 865 639 929 q 779 676 779 800 q 710 492 779 555 q 522 429 640 429 l 309 429 q 278 441 290 429 q 267 471 267 453 q 278 501 267 489 q 309 513 290 513 l 522 513 q 696 677 696 513 q 519 847 696 847 l 300 847 q 270 859 281 847 m 386 319 q 374 348 374 330 q 385 378 374 366 q 413 390 396 390 q 443 379 431 390 l 812 29 q 825 1 825 18 q 814 -29 825 -17 q 786 -41 803 -41 q 755 -31 768 -41 l 386 319 z "},"S":{"ha":809,"x_min":68,"x_max":724,"o":"m 68 243 l 68 252 q 82 281 69 270 q 113 292 94 293 q 142 278 131 290 q 154 248 154 265 l 154 241 q 207 115 154 168 q 298 58 244 78 q 410 40 349 40 l 411 40 q 507 54 464 40 q 587 100 556 70 q 639 218 639 149 l 639 221 q 651 252 639 239 q 681 264 663 264 q 711 252 699 264 q 724 222 724 240 l 724 218 l 720 220 q 642 41 720 115 q 530 -22 595 -1 q 408 -40 472 -41 l 407 -40 q 268 -18 333 -40 q 144 58 194 7 q 68 243 68 134 m 207 854 q 301 914 244 893 q 403 929 347 930 l 406 929 q 591 871 514 929 q 693 685 686 800 q 693 681 693 683 q 683 654 693 665 q 653 641 671 642 q 622 651 635 639 q 608 681 610 663 q 541 804 604 758 l 547 804 q 410 846 492 846 l 407 846 q 332 833 367 846 q 269 796 293 820 q 232 713 236 763 q 218 683 231 694 q 188 672 205 671 q 157 686 170 673 q 147 713 146 697 q 207 854 147 793 m 181 608 q 200 633 184 624 q 223 640 212 641 q 231 640 227 640 q 257 621 248 636 q 286 585 271 600 l 286 583 q 419 504 335 533 q 466 488 433 498 q 519 470 498 478 q 569 449 541 463 q 618 419 597 435 q 659 386 642 402 q 669 358 669 374 q 656 328 669 339 q 628 317 644 317 q 626 317 627 317 q 597 330 608 318 q 570 354 584 344 q 521 381 547 370 q 450 407 494 393 q 390 427 406 421 q 225 526 286 464 q 187 576 204 550 q 180 600 180 588 q 181 608 180 604 z "},"T":{"ha":795,"x_min":29,"x_max":764,"o":"m 41 859 q 35 865 41 859 q 29 889 29 871 q 41 919 29 907 q 71 930 53 930 l 722 930 q 752 919 741 930 q 764 889 764 907 q 752 859 764 871 q 722 847 741 847 l 71 847 q 41 859 52 847 m 354 0 l 354 764 q 366 794 354 782 q 396 806 378 806 q 426 794 414 806 q 437 764 437 782 l 437 0 q 426 -30 437 -18 q 396 -41 414 -41 q 366 -30 378 -41 q 354 0 354 -18 z "},"U":{"ha":958,"x_min":103,"x_max":848,"o":"m 103 236 l 103 889 q 115 919 103 907 q 144 930 126 930 q 174 919 163 930 q 186 889 186 907 l 186 236 q 174 206 186 218 q 144 195 163 195 q 115 206 126 195 q 103 236 103 218 m 167 129 q 196 139 179 140 q 225 126 214 139 q 293 78 253 97 l 294 77 q 473 42 366 42 q 656 78 581 41 q 724 126 696 98 q 752 139 734 138 q 782 129 770 140 q 795 101 794 118 q 785 71 796 83 q 692 3 746 29 q 473 -41 603 -42 q 257 3 350 -41 q 164 71 203 29 q 153 98 154 82 q 167 129 153 117 m 765 235 l 765 888 q 777 918 765 906 q 807 929 789 929 q 837 917 825 929 q 848 888 848 905 l 848 235 q 837 205 848 216 q 807 193 825 193 q 777 205 789 193 q 765 235 765 216 z "},"V":{"ha":861,"x_min":53,"x_max":798,"o":"m 56 873 q 53 888 53 881 q 57 905 53 897 q 81 928 64 921 q 95 930 88 930 q 113 926 104 930 q 135 903 128 920 l 464 14 q 463 -18 469 -3 q 439 -40 456 -33 q 425 -43 431 -43 q 407 -39 416 -43 q 385 -16 391 -32 l 56 873 m 484 278 l 717 903 q 739 926 724 920 q 756 930 748 930 q 771 928 764 930 q 794 905 788 921 q 798 888 798 897 q 796 873 798 881 l 562 249 q 541 225 555 232 q 523 221 532 221 q 509 224 515 221 q 485 245 492 231 q 481 263 481 254 q 484 278 481 271 z "},"W":{"ha":1265,"x_min":53,"x_max":1201,"o":"m 56 875 q 53 890 53 882 q 57 907 53 899 q 81 929 64 922 q 95 932 88 932 q 113 928 104 932 q 135 904 128 921 l 464 16 q 463 -17 469 -1 q 439 -39 456 -32 q 425 -41 431 -41 q 407 -37 416 -41 q 385 -14 391 -31 l 56 875 m 468 240 l 715 904 q 737 928 722 921 q 755 932 746 932 q 770 929 762 932 q 793 907 787 922 q 794 875 800 892 l 547 211 q 525 187 541 194 q 493 186 510 180 q 469 208 476 193 q 466 226 465 217 q 468 240 465 233 m 653 339 q 650 353 650 346 q 654 370 650 361 q 676 392 661 385 q 707 390 692 397 q 729 368 722 383 l 867 16 q 865 -15 872 0 q 843 -37 859 -31 q 829 -40 836 -40 l 812 -36 q 790 -14 797 -29 l 653 339 m 885 273 l 1120 904 q 1141 928 1126 921 q 1159 932 1150 932 q 1174 929 1166 932 q 1197 907 1191 922 q 1201 890 1201 898 q 1198 875 1201 882 l 964 244 q 942 221 957 227 q 924 217 933 217 q 909 220 917 217 q 886 241 892 227 q 882 259 882 250 q 885 273 882 266 z "},"X":{"ha":1083,"x_min":67,"x_max":1019,"o":"m 67 -1 q 78 26 67 15 l 410 385 q 438 398 420 397 q 468 388 456 399 q 481 359 481 376 q 471 329 482 342 l 139 -29 q 111 -42 128 -41 q 109 -43 109 -42 q 81 -32 92 -43 q 67 -1 67 -20 m 138 920 q 165 930 149 930 q 168 930 166 930 q 196 917 185 929 l 1008 28 q 1019 0 1019 16 q 1019 -2 1019 -1 q 1006 -31 1018 -20 q 978 -41 994 -41 q 976 -41 977 -41 q 947 -28 958 -40 l 135 861 q 124 889 125 873 q 138 920 124 908 m 621 602 q 632 629 621 618 l 896 916 q 924 928 907 928 q 926 928 926 928 q 954 918 943 928 q 967 890 966 907 q 967 888 967 888 q 957 860 967 871 l 693 574 q 665 560 682 562 q 663 560 663 560 q 635 571 646 560 q 621 602 621 583 z "},"Y":{"ha":915,"x_min":34,"x_max":876,"o":"m 47 920 q 75 930 59 930 q 77 930 76 930 q 106 917 95 929 l 485 503 q 495 473 496 490 q 482 445 494 456 q 452 434 469 433 q 424 447 435 435 l 45 861 q 34 889 35 873 q 47 920 34 908 m 412 0 l 412 334 q 424 363 412 352 q 454 375 436 375 q 484 363 472 375 q 496 334 496 351 l 496 0 q 484 -30 496 -18 q 454 -41 472 -41 q 424 -30 436 -41 q 412 0 412 -18 m 553 628 q 564 656 553 644 l 804 917 q 833 930 815 929 q 835 930 834 930 q 863 920 851 930 q 876 891 875 909 q 876 889 876 890 q 865 861 876 873 l 625 600 q 597 587 614 588 q 595 587 595 587 q 567 597 578 587 q 553 628 553 609 z "},"Z":{"ha":976,"x_min":77,"x_max":921,"o":"m 77 -1 q 86 25 77 14 l 700 783 q 727 799 709 797 q 758 790 745 802 q 774 763 772 781 q 765 732 777 746 l 151 -26 q 124 -42 142 -40 q 119 -43 121 -42 q 93 -33 104 -43 q 77 -1 77 -22 m 113 860 q 107 866 113 860 q 102 890 102 872 q 113 920 102 908 q 143 932 125 932 l 829 932 q 859 920 848 932 q 871 890 871 908 q 859 860 871 872 q 829 848 847 848 l 143 848 q 113 860 125 848 m 295 -30 q 289 -24 295 -30 q 283 0 283 -18 q 295 30 283 18 q 325 41 307 41 l 879 41 q 909 30 897 41 q 921 0 921 18 q 909 -30 921 -18 q 879 -41 897 -41 l 325 -41 q 295 -30 307 -41 z "},"[":{"ha":236,"x_min":47,"x_max":227,"o":"m 47 895 q 59 924 47 913 q 89 936 71 936 l 184 936 q 215 924 203 936 q 227 895 227 913 q 215 864 227 876 q 184 852 203 852 l 131 852 l 132 -69 l 184 -69 q 215 -81 203 -69 q 227 -111 227 -93 q 215 -141 227 -129 q 184 -153 203 -153 l 90 -153 q 60 -141 72 -153 q 49 -111 49 -129 l 47 895 z "},"\\":{"ha":336,"x_min":-12,"x_max":349,"o":"m -12 882 q -9 914 -18 899 q 15 935 -1 929 q 47 932 32 940 q 68 907 62 924 l 349 12 q 346 -20 354 -5 q 321 -40 338 -35 q 289 -38 304 -46 q 268 -12 273 -29 l -12 882 z "},"]":{"ha":236,"x_min":-5,"x_max":174,"o":"m 6 -141 q 0 -135 6 -141 q -5 -111 -5 -129 q 6 -81 -5 -93 q 36 -69 18 -69 l 90 -69 l 89 852 l 36 852 q 6 864 18 852 q -5 895 -5 876 q 6 924 -5 913 q 36 936 18 936 l 131 936 q 161 924 149 936 q 172 895 172 913 l 174 -111 q 162 -141 174 -130 q 132 -153 150 -153 l 36 -153 q 6 -141 18 -153 z "},"^":{"ha":226,"x_min":-31,"x_max":252,"o":"m -16 671 q -31 698 -29 681 q -22 729 -33 715 l 79 861 l 78 860 q 111 877 90 877 q 144 860 132 876 l 244 728 q 252 697 254 714 q 236 669 250 681 q 206 662 222 660 q 178 677 189 664 l 111 766 l 43 677 q 16 662 33 664 q -16 671 -1 660 z "},"_":{"ha":532,"x_min":-41,"x_max":574,"o":"m -30 -41 q -36 -35 -30 -41 q -41 -11 -41 -29 q -30 19 -41 7 q 0 31 -18 31 l 532 31 q 562 19 550 31 q 574 -11 574 7 q 562 -41 574 -29 q 532 -53 550 -53 l 0 -53 q -30 -41 -18 -53 z "},"`":{"ha":141,"x_min":-24,"x_max":163,"o":"m -22 818 q -24 850 -29 833 q -3 873 -18 867 q 29 875 12 880 q 53 854 46 869 q 149 736 86 788 l 147 737 q 162 709 161 726 q 153 678 164 692 q 124 663 142 664 q 93 672 107 661 q -22 818 16 737 z "},"a":{"ha":908,"x_min":24,"x_max":870,"o":"m 27 -16 q 24 0 24 -7 q 28 17 24 8 l 336 736 q 360 758 343 751 q 392 757 376 764 q 413 733 407 750 q 412 701 419 717 l 104 -18 q 81 -39 98 -34 q 65 -43 73 -42 q 49 -39 57 -43 q 27 -16 33 -33 m 305 284 q 299 290 305 284 q 293 314 293 296 q 305 343 293 332 q 335 355 317 355 l 557 355 q 587 343 575 355 q 599 314 599 332 q 587 284 599 296 q 557 272 575 272 l 335 272 q 305 284 317 272 m 409 903 q 431 926 415 920 q 447 930 439 930 q 463 927 454 930 q 486 905 479 921 l 867 17 q 870 0 870 9 q 867 -16 870 -7 q 846 -39 861 -33 q 829 -43 838 -42 q 814 -39 822 -43 q 790 -18 797 -33 l 410 871 q 406 887 406 879 q 409 903 406 895 z "},"b":{"ha":940,"x_min":118,"x_max":854,"o":"m 118 -1 l 118 888 q 130 918 118 906 q 160 929 142 929 q 190 917 178 929 q 201 888 201 905 l 201 -1 q 190 -31 201 -20 q 160 -43 178 -43 q 130 -31 142 -43 q 118 -1 118 -20 m 259 858 q 253 863 259 858 q 248 887 248 869 q 259 917 248 905 q 289 929 271 929 l 501 929 q 708 859 644 929 q 772 685 772 789 q 701 521 772 583 q 501 458 629 458 l 301 458 q 271 470 283 458 q 260 500 260 482 q 272 530 260 518 q 301 542 283 542 l 501 542 q 641 581 593 542 q 689 685 689 619 q 501 846 689 846 l 289 846 q 259 858 271 846 m 269 -30 q 263 -24 269 -30 q 257 0 257 -18 q 269 30 257 18 q 298 41 281 41 l 522 41 q 612 51 571 41 q 690 84 653 61 q 748 152 726 107 q 770 257 770 196 l 770 258 q 711 414 770 363 q 697 442 698 425 q 707 474 696 460 q 735 488 718 488 q 737 488 736 488 q 766 478 753 488 q 854 258 854 401 l 852 257 q 764 38 852 117 q 522 -41 675 -41 l 298 -41 q 269 -30 280 -41 z "},"c":{"ha":894,"x_min":50,"x_max":821,"o":"m 50 422 l 50 440 q 89 644 50 549 q 265 864 146 786 q 492 930 368 930 q 718 864 615 930 q 736 837 732 854 q 731 805 741 819 q 704 787 721 791 q 672 793 686 783 q 492 846 589 846 q 311 793 395 846 q 167 610 214 729 q 134 439 134 528 l 134 425 q 180 241 138 323 q 311 97 228 150 q 493 41 395 45 l 498 41 q 749 146 644 41 q 779 158 761 158 q 808 146 796 158 q 821 116 821 134 q 808 86 821 98 q 500 -41 681 -41 l 496 -39 l 490 -39 q 265 29 367 -36 q 106 204 161 94 q 50 422 54 304 z "},"d":{"ha":851,"x_min":117,"x_max":768,"o":"m 117 3 l 117 892 q 129 922 117 910 q 158 933 140 933 q 188 921 176 933 q 200 892 200 909 l 200 3 q 188 -27 200 -16 q 158 -39 176 -39 q 129 -27 140 -39 q 117 3 117 -16 m 247 -30 q 241 -24 247 -30 q 235 0 235 -18 q 247 30 235 18 q 277 41 258 41 l 342 41 l 359 41 l 378 41 q 460 57 418 43 q 600 151 545 85 q 668 286 646 204 q 688 439 688 354 l 688 441 q 669 593 688 522 q 607 722 650 667 q 510 803 567 774 q 386 842 456 831 q 334 847 366 844 l 286 847 q 256 859 268 847 q 244 889 244 871 q 256 919 244 907 q 286 930 268 930 l 335 930 l 332 933 q 396 928 376 930 q 546 879 479 914 q 669 777 621 840 q 747 616 722 710 q 768 444 768 538 l 768 441 q 747 265 768 345 q 664 98 720 165 q 485 -22 593 12 q 382 -41 432 -41 l 359 -41 l 339 -41 l 277 -41 q 247 -30 258 -41 z "},"e":{"ha":848,"x_min":118,"x_max":762,"o":"m 118 0 l 118 889 q 130 919 118 907 q 160 930 142 930 q 190 919 178 930 q 201 889 201 907 l 201 0 q 190 -30 201 -18 q 160 -41 178 -41 q 130 -30 142 -41 q 118 0 118 -18 m 247 -30 q 241 -24 247 -30 q 235 0 235 -18 q 247 30 235 18 q 277 41 258 41 l 721 41 q 751 30 739 41 q 762 0 762 18 q 751 -30 762 -18 q 721 -41 739 -41 l 277 -41 q 247 -30 258 -41 m 249 448 q 243 454 249 448 q 237 478 237 460 q 249 508 237 496 q 279 519 261 519 l 637 519 q 667 508 656 519 q 679 478 679 496 q 667 448 679 460 q 637 436 656 436 l 279 436 q 249 448 261 436 m 249 859 q 243 865 249 859 q 237 889 237 871 q 249 919 237 907 q 279 930 261 930 l 720 930 q 749 919 738 930 q 761 889 761 907 q 749 859 761 871 q 720 847 737 847 l 279 847 q 249 859 261 847 z "},"f":{"ha":793,"x_min":118,"x_max":739,"o":"m 118 0 l 118 889 q 130 919 118 907 q 160 930 142 930 q 190 919 178 930 q 201 889 201 907 l 201 0 q 190 -30 201 -18 q 160 -41 178 -41 q 130 -30 142 -41 q 118 0 118 -18 m 249 448 q 243 454 249 448 q 237 478 237 460 q 249 508 237 496 q 279 519 261 519 l 615 519 q 645 508 633 519 q 657 478 657 496 q 645 448 657 460 q 615 436 633 436 l 279 436 q 249 448 261 436 m 249 859 q 243 865 249 859 q 237 889 237 871 q 249 919 237 907 q 279 930 261 930 l 697 930 q 727 919 715 930 q 739 889 739 907 q 727 859 739 871 q 697 847 715 847 l 279 847 q 249 859 261 847 z "},"g":{"ha":933,"x_min":56,"x_max":852,"o":"m 56 421 l 56 429 l 56 437 q 60 509 56 472 q 72 576 64 543 q 93 643 81 610 q 136 726 114 690 q 195 802 161 766 q 268 864 227 836 q 339 900 304 886 q 415 922 374 914 q 494 930 455 930 q 574 922 533 930 q 650 900 615 914 q 721 864 685 886 q 739 837 734 854 q 733 805 743 819 q 706 787 724 791 q 675 793 689 783 q 618 822 650 808 l 621 827 q 559 844 595 838 q 497 851 525 851 q 435 844 469 851 q 374 827 399 838 q 317 798 342 813 q 257 749 288 779 q 208 686 228 717 q 172 615 186 650 q 154 559 164 593 q 142 501 146 530 q 138 443 138 472 l 138 435 l 138 427 q 146 364 139 395 q 163 302 153 331 q 187 245 174 272 q 222 191 203 216 q 268 140 243 164 q 318 100 293 115 q 375 71 343 85 q 436 53 400 60 q 498 46 471 46 q 581 57 538 46 q 656 89 618 66 q 764 235 745 142 q 770 290 769 257 l 770 432 q 781 462 770 450 q 811 473 793 473 q 841 462 829 473 q 852 432 852 450 l 852 292 q 847 218 852 247 q 699 17 819 90 q 602 -25 654 -9 q 498 -39 554 -39 q 419 -31 458 -39 q 343 -7 385 -24 q 272 29 309 7 q 210 78 241 49 q 155 136 180 106 q 113 203 132 165 q 83 272 97 235 q 64 346 70 311 q 56 421 58 384 m 387 402 q 381 409 387 402 q 375 433 375 415 q 388 463 375 452 q 418 475 400 475 l 681 473 q 711 461 699 473 q 722 431 722 449 q 710 400 722 412 q 679 389 697 389 l 416 390 q 387 402 398 390 z "},"h":{"ha":923,"x_min":117,"x_max":806,"o":"m 117 0 l 117 889 q 129 919 117 907 q 158 930 140 930 q 188 919 176 930 q 200 889 200 907 l 200 0 q 188 -30 200 -18 q 158 -41 176 -41 q 129 -30 140 -41 q 117 0 117 -18 m 248 448 q 242 454 248 448 q 236 478 236 460 q 248 508 236 496 q 278 519 260 519 l 647 519 q 677 508 665 519 q 689 478 689 496 q 677 448 689 460 q 647 436 665 436 l 278 436 q 248 448 260 436 m 722 0 l 722 889 q 734 919 722 907 q 764 930 746 930 q 794 919 782 930 q 806 889 806 907 l 806 0 q 794 -30 806 -18 q 764 -41 782 -41 q 734 -30 746 -41 q 722 0 722 -18 z "},"i":{"ha":319,"x_min":118,"x_max":201,"o":"m 118 0 l 118 889 q 130 919 118 907 q 160 930 142 930 q 190 919 178 930 q 201 889 201 907 l 201 0 q 190 -30 201 -18 q 160 -41 178 -41 q 130 -30 142 -41 q 118 0 118 -18 z "},"j":{"ha":791,"x_min":62,"x_max":682,"o":"m 62 244 q 72 270 62 258 q 100 284 83 283 q 130 275 117 286 q 144 248 143 264 q 218 98 151 159 q 372 39 283 39 l 374 39 q 538 110 471 39 q 567 150 553 127 q 591 170 575 165 q 622 165 607 174 q 642 141 637 157 q 637 110 646 125 q 597 56 622 82 l 597 57 q 372 -40 505 -40 l 371 -40 q 163 40 252 -40 q 62 244 62 132 m 599 282 l 599 889 q 611 919 599 907 q 641 930 623 930 q 670 919 659 930 q 682 889 682 907 l 682 282 q 670 252 682 264 q 641 240 659 240 q 611 252 623 240 q 599 282 599 264 z "},"k":{"ha":851,"x_min":118,"x_max":794,"o":"m 118 0 l 118 889 q 130 919 118 907 q 160 930 142 930 q 190 919 178 930 q 201 889 201 907 l 201 0 q 190 -30 201 -18 q 160 -41 178 -41 q 130 -30 142 -41 q 118 0 118 -18 m 235 457 q 229 463 235 457 q 222 487 222 469 q 235 517 222 504 l 639 921 q 669 933 651 933 q 699 921 686 933 q 711 891 711 908 q 699 861 711 873 l 294 457 q 265 445 282 445 q 235 457 248 444 m 325 368 q 313 398 313 380 q 325 428 313 415 q 355 440 338 440 q 385 428 372 440 l 782 31 q 794 1 794 18 q 782 -29 794 -17 q 752 -41 770 -41 q 722 -29 734 -41 l 325 368 z "},"l":{"ha":774,"x_min":118,"x_max":758,"o":"m 118 0 l 118 889 q 130 919 118 907 q 160 930 142 930 q 190 919 178 930 q 201 889 201 907 l 201 0 q 190 -30 201 -18 q 160 -41 178 -41 q 130 -30 142 -41 q 118 0 118 -18 m 269 -30 q 263 -24 269 -30 q 257 0 257 -18 q 269 30 257 18 q 298 41 281 41 l 717 41 q 747 30 735 41 q 758 0 758 18 q 746 -30 758 -18 q 717 -41 734 -41 l 298 -41 q 269 -30 280 -41 z "},"m":{"ha":1241,"x_min":118,"x_max":1126,"o":"m 118 0 l 118 889 q 130 919 118 907 q 160 930 142 930 q 190 919 178 930 q 201 889 201 907 l 201 0 q 190 -30 201 -18 q 160 -41 178 -41 q 130 -30 142 -41 q 118 0 118 -18 m 240 672 q 261 696 245 689 q 293 697 277 703 q 317 676 310 692 l 650 17 q 651 -15 656 1 q 631 -39 646 -32 q 613 -43 622 -43 q 599 -40 606 -43 q 575 -20 582 -35 l 241 640 q 238 658 237 649 q 240 672 237 665 m 672 163 q 670 176 670 170 q 675 195 670 185 l 1046 908 q 1071 929 1054 924 q 1084 931 1078 931 q 1103 926 1093 931 q 1124 901 1118 918 q 1126 888 1126 895 q 1121 869 1126 879 l 750 155 q 725 134 742 140 q 693 137 708 129 q 672 163 677 146 m 1042 0 l 1042 619 q 1054 649 1042 637 q 1083 661 1065 661 q 1113 649 1101 661 q 1125 619 1125 637 l 1125 0 q 1113 -30 1125 -18 q 1083 -41 1101 -41 q 1054 -30 1065 -41 q 1042 0 1042 -18 z "},"n":{"ha":920,"x_min":119,"x_max":806,"o":"m 119 0 l 119 611 q 131 641 119 629 q 161 653 143 653 q 191 641 179 653 q 203 611 203 629 l 203 0 q 191 -30 203 -18 q 161 -41 179 -41 q 131 -30 143 -41 q 119 0 119 -18 m 121 897 q 139 924 125 914 q 170 929 153 933 q 197 911 187 925 l 799 22 q 806 1 806 13 q 804 -9 806 -3 q 786 -36 800 -26 q 765 -43 777 -43 q 755 -41 760 -43 q 728 -24 737 -37 l 126 865 q 119 886 119 875 q 121 897 119 891 m 721 278 l 721 889 q 733 919 721 907 q 763 930 745 930 q 792 919 781 930 q 804 889 804 907 l 804 278 q 792 248 804 260 q 763 236 781 236 q 733 248 745 236 q 721 278 721 260 z "},"o":{"ha":1023,"x_min":52,"x_max":951,"o":"m 183 101 q 117 173 183 101 q 52 444 52 244 q 183 787 52 644 q 502 930 314 930 q 820 787 689 930 q 951 444 951 644 q 820 101 951 244 q 502 -41 689 -41 q 183 101 314 -41 m 241 730 q 187 671 241 730 q 134 445 134 612 q 241 159 134 277 q 500 41 349 41 q 759 159 652 41 q 867 445 867 277 q 759 730 867 612 q 500 847 652 847 q 241 730 349 847 z "},"p":{"ha":842,"x_min":119,"x_max":778,"o":"m 119 0 l 119 889 q 131 919 119 907 q 161 930 143 930 q 191 919 179 930 q 203 889 203 907 l 203 0 q 191 -30 203 -18 q 161 -41 179 -41 q 131 -30 143 -41 q 119 0 119 -18 m 271 859 q 266 865 271 859 q 260 889 260 871 q 272 919 260 907 q 301 930 283 930 l 503 930 q 708 848 637 930 q 778 644 778 766 q 705 446 778 518 q 519 374 632 374 l 306 374 q 276 386 288 374 q 264 415 264 397 q 276 445 264 433 q 306 457 288 457 l 519 457 q 647 506 600 457 q 694 644 694 555 q 651 787 694 726 q 503 847 607 847 l 301 847 q 271 859 283 847 z "},"q":{"ha":1038,"x_min":52,"x_max":951,"o":"m 183 98 q 117 170 183 98 q 52 441 52 241 q 183 785 52 642 q 502 928 314 928 q 820 785 689 928 q 951 441 951 642 q 892 201 951 314 q 867 180 884 186 q 834 183 850 175 q 814 209 819 192 q 817 240 808 225 q 867 443 867 333 q 759 728 867 611 q 500 846 652 846 q 241 728 349 846 q 134 443 134 611 q 241 158 134 275 q 500 40 349 40 q 639 71 570 40 q 671 71 654 77 q 694 50 688 65 q 695 18 701 35 q 673 -5 689 1 q 501 -41 593 -41 l 501 -45 q 183 98 314 -45 m 496 318 q 484 348 484 330 q 496 378 484 366 q 526 390 509 390 q 555 378 543 390 l 904 29 q 917 -1 916 17 q 904 -31 917 -18 q 874 -43 892 -43 q 844 -31 857 -43 l 496 318 z "},"r":{"ha":903,"x_min":119,"x_max":825,"o":"m 119 0 l 119 889 q 131 919 119 907 q 161 930 143 930 q 191 919 179 930 q 203 889 203 907 l 203 0 q 191 -30 203 -18 q 161 -41 179 -41 q 131 -30 143 -41 q 119 0 119 -18 m 270 859 q 264 865 270 859 q 258 889 258 871 q 270 919 258 907 q 300 930 282 930 l 519 930 l 519 929 q 709 865 639 929 q 779 676 779 800 q 710 492 779 555 q 522 429 640 429 l 309 429 q 278 441 290 429 q 267 471 267 453 q 278 501 267 489 q 309 513 290 513 l 522 513 q 696 677 696 513 q 519 847 696 847 l 300 847 q 270 859 281 847 m 375 330 q 363 359 363 342 q 374 389 363 376 q 402 401 385 401 q 432 390 419 401 l 812 29 q 825 1 825 18 q 814 -29 825 -17 q 786 -41 803 -41 q 755 -31 768 -41 l 375 330 z "},"s":{"ha":809,"x_min":68,"x_max":724,"o":"m 68 243 l 68 252 q 82 281 69 270 q 113 292 94 293 q 142 278 131 290 q 154 248 154 265 l 154 241 q 207 115 154 168 q 298 58 244 78 q 410 40 349 40 l 411 40 q 507 54 464 40 q 587 100 556 70 q 639 218 639 149 l 639 221 q 651 252 639 239 q 681 264 663 264 q 711 252 699 264 q 724 222 724 240 l 724 218 l 720 220 q 642 41 720 115 q 530 -22 595 -1 q 408 -40 472 -41 l 407 -40 q 268 -18 333 -40 q 144 58 194 7 q 68 243 68 134 m 207 854 q 301 914 244 893 q 403 929 347 930 l 406 929 q 591 871 514 929 q 693 685 686 800 q 693 681 693 683 q 683 654 693 665 q 653 641 671 642 q 622 651 635 639 q 608 681 610 663 q 541 804 604 758 l 547 804 q 410 846 492 846 l 407 846 q 332 833 367 846 q 269 796 293 820 q 232 713 236 763 q 218 683 231 694 q 188 672 205 671 q 157 686 170 673 q 147 713 146 697 q 207 854 147 793 m 181 608 q 200 633 184 624 q 223 640 212 641 q 231 640 227 640 q 257 621 248 636 q 286 585 271 600 l 286 583 q 419 504 335 533 q 466 488 433 498 q 519 470 498 478 q 569 449 541 463 q 618 419 597 435 q 659 386 642 402 q 669 358 669 374 q 656 328 669 339 q 628 317 644 317 q 626 317 627 317 q 597 330 608 318 q 570 354 584 344 q 521 381 547 370 q 450 407 494 393 q 390 427 406 421 q 225 526 286 464 q 187 576 204 550 q 180 600 180 588 q 181 608 180 604 z "},"t":{"ha":795,"x_min":29,"x_max":764,"o":"m 41 859 q 35 865 41 859 q 29 889 29 871 q 41 919 29 907 q 71 930 53 930 l 722 930 q 752 919 741 930 q 764 889 764 907 q 752 859 764 871 q 722 847 741 847 l 71 847 q 41 859 52 847 m 354 0 l 354 764 q 366 794 354 782 q 396 806 378 806 q 426 794 414 806 q 437 764 437 782 l 437 0 q 426 -30 437 -18 q 396 -41 414 -41 q 366 -30 378 -41 q 354 0 354 -18 z "},"u":{"ha":958,"x_min":103,"x_max":848,"o":"m 103 236 l 103 889 q 115 919 103 907 q 144 930 126 930 q 174 919 163 930 q 186 889 186 907 l 186 236 q 174 206 186 218 q 144 195 163 195 q 115 206 126 195 q 103 236 103 218 m 167 129 q 196 139 179 140 q 225 126 214 139 q 293 78 253 97 l 294 77 q 473 42 366 42 q 656 78 581 41 q 724 126 696 98 q 752 139 734 138 q 782 129 770 140 q 795 101 794 118 q 785 71 796 83 q 692 3 746 29 q 473 -41 603 -42 q 257 3 350 -41 q 164 71 203 29 q 153 98 154 82 q 167 129 153 117 m 765 235 l 765 888 q 777 918 765 906 q 807 929 789 929 q 837 917 825 929 q 848 888 848 905 l 848 235 q 837 205 848 216 q 807 193 825 193 q 777 205 789 193 q 765 235 765 216 z "},"v":{"ha":861,"x_min":53,"x_max":798,"o":"m 56 873 q 53 888 53 881 q 57 905 53 897 q 81 928 64 921 q 95 930 88 930 q 113 926 104 930 q 135 903 128 920 l 464 14 q 463 -18 469 -3 q 439 -40 456 -33 q 425 -43 431 -43 q 407 -39 416 -43 q 385 -16 391 -32 l 56 873 m 484 278 l 717 903 q 739 926 724 920 q 756 930 748 930 q 771 928 764 930 q 794 905 788 921 q 798 888 798 897 q 796 873 798 881 l 562 249 q 541 225 555 232 q 523 221 532 221 q 509 224 515 221 q 485 245 492 231 q 481 263 481 254 q 484 278 481 271 z "},"w":{"ha":1265,"x_min":53,"x_max":1201,"o":"m 56 875 q 53 890 53 882 q 57 907 53 899 q 81 929 64 922 q 95 932 88 932 q 113 928 104 932 q 135 904 128 921 l 464 16 q 463 -17 469 -1 q 439 -39 456 -32 q 425 -41 431 -41 q 407 -37 416 -41 q 385 -14 391 -31 l 56 875 m 468 240 l 715 904 q 737 928 722 921 q 755 932 746 932 q 770 929 762 932 q 793 907 787 922 q 794 875 800 892 l 547 211 q 525 187 541 194 q 493 186 510 180 q 469 208 476 193 q 466 226 465 217 q 468 240 465 233 m 653 339 q 650 353 650 346 q 654 370 650 361 q 676 392 661 385 q 707 390 692 397 q 729 368 722 383 l 867 16 q 865 -15 872 0 q 843 -37 859 -31 q 829 -40 836 -40 l 812 -36 q 790 -14 797 -29 l 653 339 m 885 273 l 1120 904 q 1141 928 1126 921 q 1159 932 1150 932 q 1174 929 1166 932 q 1197 907 1191 922 q 1201 890 1201 898 q 1198 875 1201 882 l 964 244 q 942 221 957 227 q 924 217 933 217 q 909 220 917 217 q 886 241 892 227 q 882 259 882 250 q 885 273 882 266 z "},"x":{"ha":1083,"x_min":67,"x_max":1019,"o":"m 67 -1 q 78 26 67 15 l 410 385 q 438 398 420 397 q 468 388 456 399 q 481 359 481 376 q 471 329 482 342 l 139 -29 q 111 -42 128 -41 q 109 -43 109 -42 q 81 -32 92 -43 q 67 -1 67 -20 m 138 920 q 165 930 149 930 q 168 930 166 930 q 196 917 185 929 l 1008 28 q 1019 0 1019 16 q 1019 -2 1019 -1 q 1006 -31 1018 -20 q 978 -41 994 -41 q 976 -41 977 -41 q 947 -28 958 -40 l 135 861 q 124 889 125 873 q 138 920 124 908 m 621 602 q 632 629 621 618 l 896 916 q 924 928 907 928 q 926 928 926 928 q 954 918 943 928 q 967 890 966 907 q 967 888 967 888 q 957 860 967 871 l 693 574 q 665 560 682 562 q 663 560 663 560 q 635 571 646 560 q 621 602 621 583 z "},"y":{"ha":915,"x_min":34,"x_max":876,"o":"m 47 920 q 75 930 59 930 q 77 930 76 930 q 106 917 95 929 l 485 503 q 495 473 496 490 q 482 445 494 456 q 452 434 469 433 q 424 447 435 435 l 45 861 q 34 889 35 873 q 47 920 34 908 m 412 0 l 412 334 q 424 363 412 352 q 454 375 436 375 q 484 363 472 375 q 496 334 496 351 l 496 0 q 484 -30 496 -18 q 454 -41 472 -41 q 424 -30 436 -41 q 412 0 412 -18 m 553 628 q 564 656 553 644 l 804 917 q 833 930 815 929 q 835 930 834 930 q 863 920 851 930 q 876 891 875 909 q 876 889 876 890 q 865 861 876 873 l 625 600 q 597 587 614 588 q 595 587 595 587 q 567 597 578 587 q 553 628 553 609 z "},"z":{"ha":976,"x_min":77,"x_max":921,"o":"m 77 -1 q 86 25 77 14 l 700 783 q 727 799 709 797 q 758 790 745 802 q 774 763 772 781 q 765 732 777 746 l 151 -26 q 124 -42 142 -40 q 119 -43 121 -42 q 93 -33 104 -43 q 77 -1 77 -22 m 113 860 q 107 866 113 860 q 102 890 102 872 q 113 920 102 908 q 143 932 125 932 l 829 932 q 859 920 848 932 q 871 890 871 908 q 859 860 871 872 q 829 848 847 848 l 143 848 q 113 860 125 848 m 295 -30 q 289 -24 295 -30 q 283 0 283 -18 q 295 30 283 18 q 325 41 307 41 l 879 41 q 909 30 897 41 q 921 0 921 18 q 909 -30 921 -18 q 879 -41 897 -41 l 325 -41 q 295 -30 307 -41 z "},"{":{"ha":236,"x_min":-22,"x_max":224,"o":"m -11 358 q -16 364 -11 358 q -22 388 -22 370 q -11 417 -22 406 q 20 429 1 429 q 47 431 43 429 l 47 869 q 70 925 47 904 q 127 946 92 946 q 200 932 158 946 q 224 910 217 926 q 223 878 231 893 q 200 856 216 863 q 170 856 184 848 q 131 865 153 863 l 129 415 q 121 385 129 397 q 125 372 123 379 q 128 360 127 366 q 129 354 129 355 l 129 -90 q 182 -75 134 -77 q 183 -74 183 -75 q 184 -72 183 -72 q 187 -75 187 -72 q 215 -91 204 -78 q 224 -121 225 -104 q 208 -148 221 -138 q 178 -157 195 -158 q 46 -89 45 -133 l 46 343 q 20 346 35 346 q -11 358 1 346 z "},"|":{"ha":166,"x_min":41,"x_max":125,"o":"m 41 -58 l 41 895 q 53 924 41 913 q 83 936 65 936 q 113 924 102 936 q 125 895 125 913 l 125 -58 q 113 -88 125 -77 q 83 -100 102 -100 q 53 -88 65 -100 q 41 -58 41 -77 z "},"}":{"ha":236,"x_min":9,"x_max":256,"o":"m 9 -111 q 19 -81 8 -94 q 46 -65 29 -68 l 47 -65 q 74 -72 56 -65 q 103 -79 92 -78 l 103 364 q 104 370 103 366 q 106 382 104 375 q 111 395 109 389 q 103 425 103 407 l 103 868 q 64 859 81 865 q 33 859 48 852 q 10 881 17 865 q 10 912 3 896 q 33 935 17 929 q 106 949 75 948 q 164 928 142 949 q 186 872 186 907 l 186 433 q 214 432 190 432 q 244 420 232 432 q 256 390 256 408 q 244 360 256 372 q 214 349 232 349 q 187 346 198 349 l 187 -81 q 164 -142 187 -121 q 109 -163 140 -163 q 76 -160 87 -163 q 61 -155 64 -158 q 57 -151 58 -153 q 54 -149 56 -149 q 25 -139 37 -150 q 9 -111 12 -128 z "},"~":{"ha":366,"x_min":-11,"x_max":386,"o":"m -11 754 q 7 814 -11 787 q 85 857 31 852 l 93 857 l 104 857 q 144 846 123 856 q 189 817 161 839 q 245 774 235 778 q 265 770 255 770 l 267 770 q 283 775 275 770 q 293 786 290 779 q 294 791 296 793 l 293 789 q 294 796 294 791 l 293 800 q 300 831 290 817 q 327 848 310 846 q 358 842 343 851 q 375 815 372 832 q 378 794 378 807 l 386 793 q 380 761 385 773 q 376 750 380 758 q 335 702 363 720 q 277 682 307 684 l 271 682 q 220 693 244 682 q 140 749 197 701 q 114 765 125 761 q 100 770 106 769 l 96 770 l 93 770 q 77 762 82 770 q 74 753 74 758 l 74 749 q 72 716 79 732 q 47 696 64 701 q 15 698 31 690 q -5 722 0 705 q -11 754 -11 739 z "},"":{"ha":251,"x_min":22,"x_max":222,"o":"m 34 409 q 28 415 34 409 q 22 439 22 421 q 34 469 22 457 q 64 481 46 481 l 180 481 q 211 469 199 481 q 222 439 222 457 q 211 409 222 421 q 180 397 199 397 l 64 397 q 34 409 45 397 z "},"":{"ha":180,"x_min":-3,"x_max":183,"o":"m 24 716 q 11 730 24 716 q -3 782 -3 743 q 24 848 -3 821 q 90 875 52 875 q 156 848 129 875 q 183 782 183 821 q 156 716 183 743 q 90 689 129 689 q 24 716 52 689 m 49 -61 l 49 619 q 60 649 49 637 q 90 661 72 661 q 120 649 109 661 q 132 619 132 637 l 132 -61 q 120 -91 132 -79 q 90 -103 109 -103 q 60 -91 72 -103 q 49 -61 49 -79 z "},"":{"ha":830,"x_min":49,"x_max":755,"o":"m 49 386 l 49 404 q 85 591 49 500 q 248 794 136 722 q 454 857 342 857 q 661 794 567 857 q 679 771 675 786 q 674 742 682 755 q 650 724 665 728 q 621 729 635 721 q 454 779 545 779 q 288 729 363 779 q 155 562 197 671 q 126 404 126 487 l 126 390 q 168 222 129 298 q 288 90 211 139 q 454 39 366 41 l 460 39 q 690 135 595 39 q 745 135 717 161 q 755 108 755 124 q 745 81 755 92 q 461 -37 627 -37 l 457 -37 l 452 -37 q 246 24 339 -35 q 100 184 153 82 q 49 386 53 276 m 401 153 l 401 647 q 413 677 401 665 q 443 689 425 689 q 473 677 461 689 q 485 647 485 665 l 485 153 q 473 123 485 134 q 443 111 461 111 q 413 123 425 111 q 401 153 401 134 z "},"":{"ha":631,"x_min":-22,"x_max":659,"o":"m -22 65 l -22 71 q 0 135 -21 106 q 50 176 20 161 q 114 191 79 190 q 167 182 142 191 l 179 178 q 183 260 183 216 l 183 264 q 179 347 183 305 l 57 347 q 27 359 39 347 q 16 389 16 371 q 27 419 16 407 q 57 431 39 431 l 165 431 l 164 436 q 148 495 160 452 q 131 564 136 538 q 119 654 120 611 q 125 713 119 686 q 189 829 140 783 q 311 888 241 880 q 339 889 322 889 q 422 872 384 889 q 511 804 475 851 q 555 700 547 758 q 558 667 558 677 q 546 589 558 627 q 524 565 539 572 q 492 564 509 558 q 468 586 475 570 q 467 618 461 602 q 475 667 475 642 l 479 665 q 478 686 479 679 q 449 750 471 724 q 392 791 424 779 q 339 803 366 802 q 321 802 327 803 q 248 765 276 795 q 205 692 216 736 q 201 652 201 672 q 211 581 201 625 q 228 518 216 559 q 245 454 240 476 l 250 429 l 446 429 q 476 417 464 429 q 488 388 488 406 q 476 358 488 370 q 446 346 464 346 l 264 346 q 268 262 268 304 l 268 257 q 258 135 268 183 q 340 82 328 89 q 422 54 382 60 q 447 53 431 53 q 515 68 481 53 q 581 129 558 87 q 606 150 589 144 q 638 147 623 155 q 659 122 653 139 q 656 90 664 106 q 553 -8 621 24 q 449 -31 504 -31 q 411 -28 437 -31 q 301 9 357 -21 q 233 53 280 20 q 168 -26 210 1 q 111 -47 143 -43 q 101 -48 109 -47 q 93 -49 94 -49 q 60 -43 72 -47 q 49 -39 57 -41 q -4 4 16 -26 q -22 65 -22 31 m 61 65 q 66 49 61 57 q 82 37 71 42 q 86 36 85 36 q 97 35 90 35 l 103 35 q 123 43 114 36 q 160 90 144 58 l 163 97 l 160 96 q 143 103 149 101 q 114 107 127 107 q 85 101 96 107 q 66 86 74 96 q 61 66 61 77 l 61 65 z "},"":{"ha":672,"x_min":57,"x_max":618,"o":"m 70 188 q 63 194 70 188 q 57 217 57 200 q 69 248 57 235 l 144 322 q 103 455 103 383 q 144 589 103 528 l 69 664 q 57 694 57 676 q 70 724 57 711 q 99 736 82 736 q 129 724 117 736 l 204 648 q 337 690 264 690 q 471 648 411 690 l 546 724 q 575 736 558 736 q 605 724 593 736 q 618 694 618 711 q 606 664 618 676 l 530 589 q 572 455 572 528 q 530 322 572 383 l 606 248 q 618 218 618 235 q 605 188 618 200 q 575 175 593 175 q 546 187 558 175 l 471 262 q 337 221 411 221 q 204 262 264 221 l 129 187 q 99 175 117 175 q 70 188 82 175 m 187 456 q 230 350 187 393 q 336 307 273 307 q 433 345 392 307 q 440 353 435 347 q 449 359 446 358 q 486 457 486 401 q 443 562 486 519 l 441 561 q 336 604 399 604 q 235 566 278 604 l 231 561 l 227 557 q 187 456 187 514 z "},"":{"ha":958,"x_min":58,"x_max":899,"o":"m 71 921 q 65 915 71 921 q 58 892 58 909 q 68 863 57 875 l 385 517 l 496 517 l 129 918 q 101 931 118 930 q 71 921 83 932 m 237 311 q 231 317 237 311 q 225 337 225 322 q 237 364 225 353 q 267 375 249 375 l 703 375 q 733 364 721 375 q 745 337 745 353 q 733 311 745 322 q 703 300 721 300 l 518 300 l 518 -1 q 506 -31 518 -20 q 476 -43 494 -43 q 447 -31 458 -43 q 435 -1 435 -20 l 435 300 l 267 300 q 237 311 248 300 m 237 453 q 231 458 237 453 q 225 479 225 464 q 237 506 225 494 q 267 517 249 517 l 383 517 l 435 461 q 465 450 447 449 q 494 463 482 450 q 513 482 510 476 q 507 503 515 488 l 496 515 l 703 515 l 703 517 q 733 506 721 517 q 745 479 745 494 q 733 453 745 464 q 703 441 721 441 l 267 441 q 237 453 248 441 m 590 598 q 584 604 590 598 q 577 627 578 610 q 587 657 576 644 l 828 918 q 856 931 839 930 q 886 921 873 932 q 899 892 899 909 q 889 863 900 875 l 648 602 q 620 588 637 589 q 590 598 603 587 z "},"":{"ha":166,"x_min":41,"x_max":125,"o":"m 41 0 l 41 326 q 53 356 41 345 q 83 368 65 368 q 113 356 102 368 q 125 326 125 345 l 125 0 q 113 -30 125 -18 q 83 -41 102 -41 q 53 -30 65 -41 q 41 0 41 -18 m 41 524 l 41 850 q 53 880 41 868 q 83 892 65 892 q 113 880 102 892 q 125 850 125 868 l 125 524 q 113 494 125 505 q 83 482 102 482 q 53 494 65 482 q 41 524 41 505 z "},"":{"ha":852,"x_min":61,"x_max":783,"o":"m 77 -41 q 61 -13 62 -31 q 71 18 60 4 q 99 33 82 32 q 131 24 117 35 q 179 -12 156 4 l 180 -9 q 342 -72 258 -60 q 387 -77 364 -76 q 485 -60 439 -77 q 585 9 549 -37 q 621 111 621 56 l 621 121 q 595 200 619 162 q 532 258 572 233 q 478 283 508 272 q 406 306 449 294 q 349 322 363 318 q 193 404 249 354 q 134 481 157 436 q 107 578 109 527 l 107 589 q 135 700 107 648 q 203 779 159 746 q 220 817 208 798 q 302 905 249 873 q 415 940 353 936 l 435 940 q 528 925 482 940 q 636 868 585 907 l 636 899 q 648 928 636 917 q 678 940 660 940 q 708 928 696 940 q 720 899 720 917 l 720 766 q 690 726 720 734 q 643 742 661 717 q 500 848 585 821 q 433 860 464 859 l 419 860 q 345 836 379 857 q 290 779 309 814 q 278 747 282 766 q 277 739 278 742 q 272 705 273 722 l 272 697 q 289 633 275 663 q 329 581 304 604 q 453 515 370 542 q 501 502 469 511 q 554 486 533 492 q 604 468 575 479 q 654 441 632 456 q 742 358 709 408 q 783 239 779 302 l 783 224 q 730 71 783 139 q 686 24 707 40 q 647 -46 671 -16 q 509 -140 594 -111 q 385 -161 448 -161 q 326 -157 355 -161 q 134 -83 227 -143 q 77 -41 102 -62 m 189 579 q 205 515 192 545 q 245 463 221 486 q 370 397 287 424 q 418 384 385 393 q 471 367 450 374 q 520 349 492 361 q 571 323 549 338 q 659 240 625 290 q 690 170 681 205 l 693 171 q 701 224 701 196 l 701 233 q 675 313 700 275 q 612 371 652 346 q 559 396 589 385 q 486 419 529 407 q 429 435 443 431 q 273 517 330 467 q 214 593 237 549 q 197 640 203 616 q 189 587 189 615 l 189 579 z "},"":{"ha":361,"x_min":53,"x_max":309,"o":"m 53 808 q 67 845 53 829 q 106 861 82 861 q 142 847 127 861 q 158 808 158 832 q 143 771 158 787 q 106 755 129 755 q 69 770 85 755 q 53 808 53 785 m 203 808 q 217 845 203 829 q 256 861 232 861 q 293 847 277 861 q 309 808 309 832 q 294 771 309 787 q 256 755 279 755 q 219 770 235 755 q 203 808 203 785 z "},"":{"ha":294,"x_min":3,"x_max":283,"o":"m 44 623 q 23 643 44 623 q 3 722 3 664 q 44 822 3 781 q 143 863 85 863 q 242 822 201 863 q 283 722 283 781 q 242 623 283 664 q 143 582 201 582 q 44 623 85 582 m 63 802 q 47 786 63 802 q 31 722 31 770 q 63 642 31 675 q 143 610 96 610 q 223 642 191 610 q 256 722 256 675 q 223 802 256 770 q 143 835 191 835 q 63 802 96 835 m 79 724 l 79 732 q 92 778 82 761 q 118 804 102 794 q 150 812 134 812 l 155 812 q 180 804 169 811 q 193 811 184 811 q 207 798 207 811 l 207 777 l 203 772 q 193 759 203 762 q 178 764 183 755 q 150 779 171 777 l 147 779 q 128 775 136 779 q 113 760 119 771 q 103 726 106 747 l 103 721 q 111 689 103 701 q 129 674 118 680 q 157 668 140 668 q 189 675 172 668 q 207 668 201 680 q 200 650 212 656 q 158 642 180 642 q 119 650 138 642 q 90 676 101 661 q 79 724 79 697 z "},"":{"ha":494,"x_min":151,"x_max":585,"o":"m 151 536 l 311 911 q 339 924 318 930 q 351 896 359 917 l 192 521 q 164 509 185 501 q 151 536 144 515 m 310 668 q 288 690 288 668 q 310 713 288 713 l 425 713 q 447 690 448 713 q 425 668 447 668 l 310 668 m 347 985 q 359 1013 340 1006 q 387 1000 380 1019 l 585 536 q 572 509 591 515 q 545 521 551 502 l 347 985 z "},"":{"ha":591,"x_min":50,"x_max":543,"o":"m 74 140 q 50 178 50 151 q 75 215 50 204 q 150 253 92 222 q 232 300 176 267 q 263 304 248 308 q 288 284 279 300 q 292 253 296 269 q 272 229 288 237 q 184 182 203 192 l 180 178 l 183 176 q 271 129 201 167 q 290 105 286 121 q 286 74 294 89 q 262 54 278 58 q 231 58 245 50 q 149 103 175 89 q 74 140 90 134 m 323 143 q 300 180 300 154 q 325 218 300 207 q 400 253 375 241 q 484 297 428 267 q 515 301 499 305 q 539 282 530 297 q 543 251 547 267 q 524 227 539 235 q 439 182 468 196 l 439 180 q 522 136 467 167 q 542 112 538 128 q 537 80 546 96 q 513 61 529 65 q 482 65 497 57 q 399 109 454 81 q 323 143 374 121 z "},"":{"ha":385,"x_min":-20,"x_max":404,"o":"m -8 360 q -14 366 -8 360 q -20 390 -20 372 q -8 420 -20 408 q 22 432 4 432 l 363 432 q 393 420 381 432 q 404 390 404 408 l 404 290 q 392 260 404 272 q 362 249 380 249 q 333 260 345 249 q 321 290 321 272 l 321 349 l 22 349 q -8 360 4 349 z "},"":{"ha":219,"x_min":-21,"x_max":236,"o":"m -9 360 q -15 366 -9 360 q -21 390 -21 372 q -9 420 -21 408 q 21 432 3 432 l 196 432 l 195 432 q 224 420 213 432 q 236 390 236 408 q 224 360 236 372 q 195 349 212 349 l 21 349 q -9 360 3 349 z "},"":{"ha":294,"x_min":9,"x_max":290,"o":"m 51 626 q 30 646 51 626 q 9 725 9 667 q 51 824 9 783 q 150 865 92 865 q 249 824 208 865 q 290 725 290 783 q 249 626 290 667 q 150 585 208 585 q 51 626 92 585 m 70 805 q 54 789 70 805 q 37 725 37 772 q 70 645 37 677 q 150 612 103 612 q 230 645 197 612 q 262 725 262 677 q 230 805 262 772 q 150 838 197 838 q 70 805 103 838 m 104 639 q 90 653 90 639 q 104 667 90 667 l 106 667 l 106 782 l 104 782 q 91 796 91 782 q 104 810 90 810 l 119 810 l 122 810 l 158 810 q 194 796 180 810 q 207 760 207 782 q 193 728 207 740 q 158 715 179 715 q 204 664 180 675 q 211 646 216 659 q 193 639 205 633 q 132 705 160 654 l 132 668 l 134 668 q 147 654 147 668 q 134 640 147 640 l 118 640 l 103 640 l 104 639 m 131 743 l 135 743 l 155 743 q 176 761 176 743 q 155 783 176 783 l 131 783 l 131 743 z "},"":{"ha":462,"x_min":11,"x_max":452,"o":"m 23 360 q 17 366 23 360 q 11 390 11 372 q 23 420 11 408 q 53 432 35 432 l 410 432 q 440 420 428 432 q 452 390 452 408 q 440 360 452 372 q 410 349 428 349 l 53 349 q 23 360 35 349 z "},"":{"ha":237,"x_min":8,"x_max":208,"o":"m 37 1101 q 23 1116 37 1101 q 8 1172 8 1131 q 37 1243 8 1214 q 108 1272 66 1272 q 179 1243 150 1272 q 208 1172 208 1214 q 179 1101 208 1131 q 108 1072 150 1072 q 37 1101 66 1072 m 108 1189 q 100 1189 108 1189 q 92 1172 92 1189 q 108 1156 92 1156 q 125 1172 125 1156 q 108 1189 125 1189 z "},"":{"ha":568,"x_min":52,"x_max":507,"o":"m 63 359 q 57 365 63 359 q 52 389 52 371 q 63 419 52 407 q 93 431 75 431 l 239 431 l 239 571 q 251 601 239 589 q 280 612 262 612 q 310 601 298 612 q 322 571 322 589 l 322 431 l 465 431 q 495 419 484 431 q 507 389 507 407 q 495 359 507 371 q 465 347 484 347 l 322 347 l 322 199 q 310 169 322 180 q 280 157 298 157 q 251 169 262 157 q 239 199 239 180 l 239 347 l 93 347 q 63 359 75 347 m 70 -174 q 64 -169 70 -174 q 58 -144 58 -163 q 70 -115 58 -126 q 100 -103 82 -103 l 457 -103 q 487 -115 475 -103 q 498 -144 498 -126 q 487 -174 498 -163 q 457 -186 475 -186 l 100 -186 q 70 -174 81 -186 z "},"":{"ha":541,"x_min":50,"x_max":495,"o":"m 50 383 l 50 403 q 94 530 50 471 q 222 639 133 583 q 343 722 321 700 q 371 761 360 739 q 375 785 375 773 q 374 794 375 791 q 342 835 368 817 q 269 854 310 854 l 268 854 q 193 833 225 854 q 154 790 163 815 q 133 765 149 773 q 101 763 118 757 q 76 784 85 768 q 74 815 68 799 q 149 904 90 869 q 267 936 201 936 l 269 936 q 386 904 334 936 q 454 814 441 871 q 458 785 458 797 q 447 730 458 757 q 401 664 431 694 q 265 568 364 627 q 160 481 189 521 q 135 428 142 456 l 376 428 l 427 472 q 456 483 439 483 q 485 470 473 482 q 495 440 496 457 q 482 411 494 422 l 419 355 l 422 355 q 395 346 412 346 l 92 346 q 64 356 75 346 q 50 383 53 366 z "},"":{"ha":541,"x_min":51,"x_max":489,"o":"m 61 416 q 51 447 50 429 q 64 475 52 464 q 94 486 77 486 q 122 472 111 485 q 149 450 132 460 q 253 427 193 427 q 345 444 304 427 q 390 482 374 458 q 406 527 406 502 q 392 571 406 551 q 342 610 375 595 q 268 627 313 621 q 250 628 261 628 q 221 641 232 629 q 211 671 210 653 q 224 700 212 689 q 254 711 236 711 l 257 711 q 286 713 277 711 q 314 718 306 715 q 338 729 325 722 q 353 741 346 733 q 364 753 361 749 q 371 765 370 761 l 375 774 q 376 782 376 777 q 378 789 378 786 l 378 793 l 378 798 q 376 802 378 799 q 371 814 374 810 q 359 827 368 818 q 345 838 353 833 q 325 846 339 840 q 301 851 318 848 q 277 852 293 852 l 275 852 l 273 852 l 272 852 q 248 850 264 852 q 224 843 237 848 q 204 833 210 838 q 189 821 193 825 q 179 808 184 817 q 174 796 176 804 q 155 770 170 779 q 124 765 140 761 q 98 784 107 770 q 93 815 89 799 q 106 850 97 833 l 109 843 q 132 873 115 854 q 161 899 144 889 q 196 916 180 909 q 233 926 221 924 q 273 930 253 930 l 275 930 l 277 930 l 278 930 q 315 928 290 930 q 351 920 335 925 q 385 904 362 916 q 415 882 401 893 q 440 854 429 871 q 457 822 450 841 q 460 810 460 817 q 460 804 460 808 q 461 798 461 799 l 461 785 q 458 765 461 774 q 453 746 456 754 q 444 728 452 739 q 427 700 433 708 q 403 676 416 688 l 397 672 q 458 618 436 650 q 489 525 489 578 q 460 432 489 473 q 380 367 432 391 q 254 342 326 342 q 109 378 170 342 q 61 416 82 395 z "},"":{"ha":224,"x_min":-22,"x_max":165,"o":"m -13 676 q -18 683 -13 676 q -22 708 -24 690 q -7 736 -21 725 q 89 854 56 787 q 112 875 96 870 q 144 873 129 880 q 165 850 160 867 q 164 818 171 833 q 49 672 125 737 l 47 671 q 16 661 34 660 q -13 676 -1 663 z "},"":{"ha":496,"x_min":-7,"x_max":606,"o":"m 5 -335 q -1 -329 5 -335 q -7 -306 -7 -323 q 5 -276 -7 -288 q 35 -264 17 -264 l 56 -264 l 56 183 l 56 197 l 56 201 l 56 575 l 35 575 q 5 587 16 575 q -7 617 -7 599 q 5 647 -7 635 q 35 659 17 659 l 97 659 q 127 647 115 659 q 139 616 139 635 l 139 182 q 178 71 142 105 q 290 37 214 37 q 454 107 350 37 l 454 575 l 400 575 q 370 587 382 575 q 358 617 358 599 q 370 647 358 635 q 400 659 382 659 l 496 659 l 497 661 q 527 649 515 661 q 539 619 539 637 l 539 114 l 539 110 l 539 58 l 542 43 l 564 43 q 594 31 582 43 q 606 1 606 20 q 594 -28 606 -17 q 564 -40 582 -40 l 539 -40 l 532 -39 q 518 -37 525 -39 q 501 -29 511 -35 q 482 -16 490 -24 q 460 18 467 0 q 290 -41 385 -41 q 139 -1 196 -41 l 139 -264 l 160 -264 q 190 -276 178 -264 q 201 -306 201 -288 q 190 -335 201 -323 q 160 -347 178 -347 l 97 -347 l 35 -347 q 5 -335 16 -347 z "},"":{"ha":484,"x_min":1,"x_max":489,"o":"m 1 632 q 48 768 1 717 q 172 819 96 819 l 275 819 l 400 819 l 401 823 l 449 823 q 479 810 467 822 q 489 779 490 798 q 475 749 488 761 q 444 739 463 737 l 432 739 l 432 -72 l 446 -72 q 476 -84 464 -72 q 488 -114 488 -96 q 476 -144 488 -132 q 446 -155 464 -155 l 390 -155 q 360 -144 372 -155 q 349 -114 349 -132 l 349 739 l 317 739 l 317 514 l 317 489 l 317 486 l 317 -117 q 305 -146 317 -135 q 275 -158 293 -158 l 218 -158 q 188 -146 200 -158 q 176 -117 176 -135 q 188 -87 176 -98 q 218 -75 200 -75 l 233 -75 l 233 447 l 174 447 q 51 498 100 450 q 1 632 1 546 m 85 632 q 174 532 85 535 l 232 532 l 233 736 l 172 736 q 107 708 130 736 q 85 632 85 680 z "},"":{"ha":180,"x_min":24,"x_max":210,"o":"m 51 -15 q 37 -1 51 -15 q 24 51 24 12 q 51 117 24 90 q 117 144 78 144 q 182 117 155 144 q 210 51 210 90 q 182 -15 210 12 q 117 -41 155 -41 q 51 -15 78 -41 z "},"":{"ha":462,"x_min":73,"x_max":293,"o":"m 94 -203 q 73 -179 79 -196 q 74 -148 66 -163 q 97 -126 81 -132 q 129 -126 114 -119 q 165 -136 144 -134 l 179 -136 q 199 -134 187 -136 q 212 -125 210 -128 q 215 -119 215 -122 l 207 -121 q 205 -117 207 -118 q 193 -111 200 -111 l 191 -111 q 182 -113 185 -111 q 135 -97 153 -122 q 135 -49 117 -72 l 187 26 q 215 44 197 40 q 248 36 233 47 q 264 8 261 26 q 257 -24 268 -9 l 244 -41 q 264 -56 258 -50 q 293 -121 293 -82 l 293 -122 q 268 -186 293 -157 q 216 -215 248 -207 q 175 -221 198 -220 q 153 -220 161 -221 q 94 -203 122 -216 z "},"":{"ha":298,"x_min":9,"x_max":286,"o":"m 28 833 q 21 837 28 833 q 9 858 14 842 q 15 889 5 875 q 40 908 24 904 l 157 935 q 193 926 176 939 q 210 893 210 914 l 210 425 l 244 425 q 274 413 262 425 q 286 384 286 401 q 274 354 286 366 q 244 342 262 342 l 168 342 l 92 342 l 90 343 q 60 355 72 343 q 49 385 49 367 q 60 415 49 403 q 90 427 72 427 l 125 427 l 125 843 l 60 828 q 28 833 43 824 z "},"":{"ha":389,"x_min":-26,"x_max":390,"o":"m -26 628 q 9 786 -26 721 q 77 860 35 832 q 174 892 121 890 l 179 892 q 277 865 231 892 q 346 794 319 839 q 390 616 391 724 q 351 449 390 515 q 286 379 326 406 q 191 349 243 351 l 184 349 q 92 375 134 349 q 22 441 49 400 q -24 611 -20 509 l -24 628 l -26 628 m 57 614 l 58 612 q 92 486 61 534 q 134 446 110 460 q 184 432 160 432 l 187 432 q 239 447 214 432 q 278 490 262 463 q 307 615 307 539 q 275 750 307 699 q 232 793 258 778 q 179 808 207 808 l 176 808 q 122 790 149 808 q 82 746 97 773 q 57 628 57 700 l 57 614 z "},"":{"ha":579,"x_min":33,"x_max":525,"o":"m 53 228 q 33 252 37 236 q 38 283 29 268 q 62 303 46 298 q 93 298 78 307 q 176 254 149 268 q 252 220 201 242 q 277 182 277 209 q 253 144 277 155 q 178 110 203 122 q 94 66 122 82 q 63 62 79 58 q 39 82 47 66 q 35 113 31 97 q 54 138 39 129 q 138 182 110 168 l 138 183 q 53 228 109 197 m 302 235 q 283 259 288 243 q 288 291 279 275 q 312 310 296 306 q 343 306 328 314 q 425 258 399 273 q 500 221 484 228 q 525 183 525 210 q 501 146 525 157 q 427 109 484 139 q 345 64 400 95 q 313 60 329 56 q 289 79 297 64 q 285 110 281 94 q 304 135 289 126 q 392 182 374 172 l 395 183 l 392 184 l 390 187 q 302 235 372 197 z "},"":{"ha":952,"x_min":9,"x_max":900,"o":"m 28 833 q 21 837 28 833 q 9 858 14 842 q 15 889 5 875 q 40 908 24 904 l 157 935 q 193 926 176 939 q 210 893 210 914 l 210 425 l 244 425 q 274 413 262 425 q 286 384 286 401 q 274 354 286 366 q 244 342 262 342 l 168 342 l 92 342 l 90 343 q 60 355 72 343 q 49 385 49 367 q 60 415 49 403 q 90 427 72 427 l 125 427 l 125 843 l 60 828 q 28 833 43 824 m 231 1 l 511 896 q 532 921 517 913 q 564 924 547 929 q 589 903 581 918 q 591 871 597 888 l 311 -24 q 291 -49 306 -41 q 258 -52 275 -57 q 233 -31 241 -46 q 231 1 225 -16 m 510 161 q 513 203 500 182 l 760 653 q 787 671 769 667 q 818 665 804 675 q 836 638 832 656 q 831 607 840 621 l 627 222 l 736 222 q 766 211 754 222 q 778 181 778 199 q 766 151 778 163 q 736 139 754 139 l 549 139 l 546 139 q 510 161 521 139 m 817 1 l 817 507 q 828 537 817 526 q 858 549 840 549 q 888 537 876 549 q 900 507 900 525 l 900 1 q 888 -28 900 -17 q 858 -40 876 -40 q 828 -28 840 -40 q 817 1 817 -17 z "},"":{"ha":997,"x_min":9,"x_max":954,"o":"m 28 833 q 21 837 28 833 q 9 858 14 842 q 15 889 5 875 q 40 908 24 904 l 157 935 q 193 926 176 939 q 210 893 210 914 l 210 425 l 244 425 q 274 413 262 425 q 286 384 286 401 q 274 354 286 366 q 244 342 262 342 l 168 342 l 92 342 l 90 343 q 60 355 72 343 q 49 385 49 367 q 60 415 49 403 q 90 427 72 427 l 125 427 l 125 843 l 60 828 q 28 833 43 824 m 235 1 l 515 896 q 536 921 521 913 q 568 924 551 929 q 593 903 585 918 q 596 871 602 888 l 315 -24 q 295 -49 310 -41 q 262 -52 279 -57 q 237 -31 245 -46 q 235 1 229 -16 m 509 -3 l 509 17 q 553 144 509 85 q 681 253 591 197 q 802 336 779 314 q 829 375 819 353 q 833 399 833 387 q 832 408 833 406 q 800 449 827 431 q 728 468 768 469 l 726 468 q 652 447 684 468 q 612 404 621 429 q 592 379 607 387 q 560 376 576 371 q 535 397 543 382 q 532 429 526 412 q 607 518 547 484 q 725 550 660 550 l 728 550 q 844 518 793 550 q 913 428 900 485 q 917 399 917 411 q 905 345 917 371 q 860 278 890 309 q 724 182 823 241 q 618 94 647 134 q 593 41 600 69 l 835 41 l 885 86 q 915 96 897 97 q 943 83 932 96 q 954 53 954 71 q 940 25 953 36 l 878 -31 l 880 -31 q 852 -40 869 -40 l 550 -40 q 522 -30 533 -40 q 509 -3 511 -20 z "},"":{"ha":997,"x_min":9,"x_max":900,"o":"m 28 833 q 21 837 28 833 q 9 858 14 842 q 15 889 5 875 q 40 908 24 904 l 157 935 q 193 926 176 939 q 210 893 210 914 l 210 425 l 244 425 q 274 413 262 425 q 286 384 286 401 q 274 354 286 366 q 244 342 262 342 l 168 342 l 92 342 l 90 343 q 60 355 72 343 q 49 385 49 367 q 60 415 49 403 q 90 427 72 427 l 125 427 l 125 843 l 60 828 q 28 833 43 824 m 231 1 l 511 896 q 532 921 517 913 q 564 924 547 929 q 589 903 581 918 q 591 871 597 888 l 311 -24 q 291 -49 306 -41 q 258 -52 275 -57 q 233 -31 241 -46 q 231 1 225 -16 m 510 161 q 513 203 500 182 l 760 653 q 787 671 769 667 q 818 665 804 675 q 836 638 832 656 q 831 607 840 621 l 627 222 l 736 222 q 766 211 754 222 q 778 181 778 199 q 766 151 778 163 q 736 139 754 139 l 549 139 l 546 139 q 510 161 521 139 m 817 1 l 817 507 q 828 537 817 526 q 858 549 840 549 q 888 537 876 549 q 900 507 900 525 l 900 1 q 888 -28 900 -17 q 858 -40 876 -40 q 828 -28 840 -40 q 817 1 817 -17 z "},"":{"ha":315,"x_min":-75,"x_max":285,"o":"m -75 167 q -62 244 -75 207 q -9 340 -45 292 q 40 405 -5 346 q 102 493 86 464 q 134 608 132 549 l 134 681 q 145 711 134 699 q 175 722 157 722 q 205 710 193 722 q 216 681 216 699 l 216 606 l 212 607 q 172 456 211 529 q 137 398 157 427 q 91 339 117 370 q 54 292 65 309 q 14 216 26 253 q 5 165 5 191 q 8 140 5 157 q 58 64 18 92 q 136 40 92 40 l 150 40 q 221 65 190 44 q 252 71 235 75 q 279 53 269 66 q 285 21 289 39 q 267 -5 281 4 q 158 -41 218 -37 l 139 -41 q 12 -3 68 -41 q -71 125 -56 46 q -75 167 -75 146 m 105 779 q 92 792 105 779 q 78 845 78 806 q 105 910 78 884 q 171 937 132 937 q 237 910 210 937 q 264 845 264 884 q 237 779 264 806 q 171 751 210 751 q 105 779 132 751 z "},"":{"ha":908,"x_min":27,"x_max":867,"o":"m 48 -39 q 41 -35 48 -39 q 27 -15 33 -32 q 28 17 21 1 l 336 736 q 360 758 343 751 q 392 757 376 764 q 413 733 407 750 q 412 701 419 717 l 104 -18 q 81 -40 98 -34 q 48 -39 64 -46 m 305 284 q 299 290 305 284 q 293 314 293 296 q 305 343 293 332 q 335 355 317 355 l 557 355 q 587 343 575 355 q 599 314 599 332 q 587 284 599 296 q 557 272 575 272 l 335 272 q 305 284 317 272 m 323 1226 q 322 1258 317 1242 q 343 1282 328 1275 q 375 1283 358 1289 q 399 1263 392 1278 q 494 1145 432 1196 l 493 1146 q 508 1118 507 1135 q 499 1086 510 1100 q 470 1071 488 1072 q 439 1080 453 1069 q 323 1226 362 1145 m 410 871 q 409 903 403 886 q 430 926 415 920 q 463 927 446 933 q 486 905 479 921 l 867 17 q 867 -15 873 1 q 846 -39 861 -32 q 814 -40 831 -46 q 790 -18 798 -33 l 410 871 z "},"":{"ha":908,"x_min":27,"x_max":867,"o":"m 48 -39 q 41 -35 48 -39 q 27 -15 33 -32 q 28 17 21 1 l 336 736 q 360 758 343 751 q 392 757 376 764 q 413 733 407 750 q 412 701 419 717 l 104 -18 q 81 -40 98 -34 q 48 -39 64 -46 m 305 284 q 299 290 305 284 q 293 314 293 296 q 305 343 293 332 q 335 355 317 355 l 557 355 q 587 343 575 355 q 599 314 599 332 q 587 284 599 296 q 557 272 575 272 l 335 272 q 305 284 317 272 m 408 1085 q 403 1092 408 1085 q 399 1116 397 1099 q 414 1145 400 1133 q 510 1263 476 1196 q 533 1284 517 1278 q 565 1282 550 1289 q 586 1258 581 1275 q 585 1226 591 1242 q 469 1080 546 1145 l 468 1079 q 437 1069 454 1068 q 408 1085 419 1071 m 410 871 q 409 903 403 886 q 430 926 415 920 q 463 927 446 933 q 486 905 479 921 l 867 17 q 867 -15 873 1 q 846 -39 861 -32 q 814 -40 831 -46 q 790 -18 798 -33 l 410 871 z "},"":{"ha":908,"x_min":27,"x_max":867,"o":"m 48 -39 q 41 -35 48 -39 q 27 -15 33 -32 q 28 17 21 1 l 336 736 q 360 758 343 751 q 392 757 376 764 q 413 733 407 750 q 412 701 419 717 l 104 -18 q 81 -40 98 -34 q 48 -39 64 -46 m 305 284 q 299 290 305 284 q 293 314 293 296 q 305 343 293 332 q 335 355 317 355 l 557 355 q 587 343 575 355 q 599 314 599 332 q 587 284 599 296 q 557 272 575 272 l 335 272 q 305 284 317 272 m 323 1079 q 308 1106 310 1089 q 317 1137 306 1124 l 418 1270 l 416 1268 q 450 1285 429 1285 q 484 1268 471 1284 l 583 1136 q 591 1106 593 1122 q 575 1078 589 1089 q 545 1070 562 1068 q 517 1086 528 1072 l 450 1175 l 382 1086 q 355 1070 372 1073 q 323 1079 338 1068 m 410 871 q 409 903 403 886 q 430 926 415 920 q 463 927 446 933 q 486 905 479 921 l 867 17 q 867 -15 873 1 q 846 -39 861 -32 q 814 -40 831 -46 q 790 -18 798 -33 l 410 871 z "},"":{"ha":908,"x_min":27,"x_max":867,"o":"m 48 -39 q 41 -35 48 -39 q 27 -15 33 -32 q 28 17 21 1 l 336 736 q 360 758 343 751 q 392 757 376 764 q 413 733 407 750 q 412 701 419 717 l 104 -18 q 81 -40 98 -34 q 48 -39 64 -46 m 261 1137 q 279 1197 261 1171 q 357 1240 303 1236 l 366 1240 l 376 1240 q 416 1229 395 1239 q 461 1200 433 1222 q 518 1157 507 1161 q 538 1153 528 1153 l 539 1153 q 555 1158 547 1153 q 565 1170 562 1162 q 567 1175 568 1177 l 566 1173 q 567 1179 567 1175 l 566 1183 q 572 1215 563 1200 q 598 1232 582 1229 q 630 1225 615 1235 q 647 1198 644 1215 q 650 1178 650 1190 l 659 1177 q 653 1145 657 1157 q 648 1133 653 1142 q 607 1085 635 1103 q 549 1065 579 1067 l 543 1065 q 492 1076 517 1065 q 412 1132 469 1084 q 386 1149 397 1144 q 372 1153 378 1153 l 368 1153 l 366 1153 q 349 1146 355 1153 q 346 1136 346 1142 l 346 1132 q 344 1100 351 1115 q 319 1079 336 1084 q 287 1081 302 1074 q 267 1105 272 1089 q 261 1137 261 1122 m 305 284 q 299 290 305 284 q 293 314 293 296 q 305 343 293 332 q 335 355 317 355 l 557 355 q 587 343 575 355 q 599 314 599 332 q 587 284 599 296 q 557 272 575 272 l 335 272 q 305 284 317 272 m 410 871 q 409 903 403 886 q 430 926 415 920 q 463 927 446 933 q 486 905 479 921 l 867 17 q 867 -15 873 1 q 846 -39 861 -32 q 814 -40 831 -46 q 790 -18 798 -33 l 410 871 z "},"":{"ha":908,"x_min":27,"x_max":867,"o":"m 48 -39 q 41 -35 48 -39 q 27 -15 33 -32 q 28 17 21 1 l 336 736 q 360 758 343 751 q 392 757 376 764 q 413 733 407 750 q 412 701 419 717 l 104 -18 q 81 -40 98 -34 q 48 -39 64 -46 m 305 284 q 299 290 305 284 q 293 314 293 296 q 305 343 293 332 q 335 355 317 355 l 557 355 q 587 343 575 355 q 599 314 599 332 q 587 284 599 296 q 557 272 575 272 l 335 272 q 305 284 317 272 m 329 1153 q 343 1190 329 1174 q 382 1206 358 1206 q 419 1191 403 1206 q 435 1153 435 1177 q 420 1116 435 1132 q 382 1100 406 1100 q 345 1115 361 1100 q 329 1153 329 1129 m 410 871 q 409 903 403 886 q 430 926 415 920 q 463 927 446 933 q 486 905 479 921 l 867 17 q 867 -15 873 1 q 846 -39 861 -32 q 814 -40 831 -46 q 790 -18 798 -33 l 410 871 m 479 1153 q 494 1190 479 1174 q 532 1206 509 1206 q 569 1191 553 1206 q 585 1153 585 1177 q 570 1116 585 1132 q 532 1100 555 1100 q 495 1115 511 1100 q 479 1153 479 1129 z "},"":{"ha":908,"x_min":27,"x_max":867,"o":"m 48 -39 q 41 -35 48 -39 q 27 -15 33 -32 q 28 17 21 1 l 336 736 q 360 758 343 751 q 392 757 376 764 q 413 733 407 750 q 412 701 419 717 l 104 -18 q 81 -40 98 -34 q 48 -39 64 -46 m 305 284 q 299 290 305 284 q 293 314 293 296 q 305 343 293 332 q 335 355 317 355 l 557 355 q 587 343 575 355 q 599 314 599 332 q 587 284 599 296 q 557 272 575 272 l 335 272 q 305 284 317 272 m 378 1101 q 363 1116 378 1101 q 349 1172 349 1131 q 378 1243 349 1214 q 449 1272 407 1272 q 519 1243 490 1272 q 549 1172 549 1214 q 519 1101 549 1131 q 449 1072 490 1072 q 378 1101 407 1072 m 410 871 q 409 903 403 886 q 430 926 415 920 q 463 927 446 933 q 486 905 479 921 l 867 17 q 867 -15 873 1 q 846 -39 861 -32 q 814 -40 831 -46 q 790 -18 798 -33 l 410 871 m 449 1189 q 440 1189 449 1189 q 432 1172 432 1189 q 449 1156 432 1156 q 465 1172 465 1156 q 449 1189 465 1189 z "},"":{"ha":1499,"x_min":24,"x_max":1429,"o":"m 39 -32 q 32 -26 39 -32 q 24 -4 25 -21 q 33 28 22 14 l 682 794 q 710 809 693 808 q 742 800 728 811 q 757 771 755 789 q 747 741 758 754 l 98 -26 q 70 -41 87 -40 q 39 -32 53 -43 m 459 284 q 453 290 459 284 q 447 314 447 296 q 459 343 447 332 q 489 355 471 355 l 705 355 q 735 343 724 355 q 747 314 747 332 q 735 284 747 296 q 705 272 724 272 l 489 272 q 459 284 471 272 m 785 1 l 785 890 q 797 920 785 909 q 826 932 808 932 q 856 920 844 932 q 868 890 868 908 l 868 1 q 856 -28 868 -17 q 826 -40 844 -40 q 797 -28 808 -40 q 785 1 785 -17 m 913 -28 q 907 -23 913 -28 q 901 1 901 -17 q 913 31 901 20 q 943 43 925 43 l 1388 43 q 1417 31 1406 43 q 1429 1 1429 20 q 1417 -28 1429 -17 q 1388 -40 1406 -40 l 943 -40 q 913 -28 925 -40 m 916 449 q 910 455 916 449 q 904 479 904 461 q 916 509 904 497 q 946 521 928 521 l 1304 521 q 1334 509 1322 521 q 1346 479 1346 497 q 1334 449 1346 461 q 1304 437 1322 437 l 946 437 q 916 449 928 437 m 916 860 q 910 866 916 860 q 904 890 904 872 q 916 920 904 908 q 946 932 928 932 l 1386 932 q 1416 920 1404 932 q 1428 890 1428 908 q 1416 860 1428 872 q 1386 848 1404 848 l 946 848 q 916 860 928 848 z "},"":{"ha":894,"x_min":50,"x_max":821,"o":"m 50 422 l 50 440 q 89 644 50 549 q 265 864 146 786 q 492 930 368 930 q 718 864 615 930 q 736 837 732 854 q 731 805 741 819 q 704 787 721 791 q 672 793 686 783 q 492 846 589 846 q 311 793 395 846 q 167 610 214 729 q 134 439 134 528 l 134 425 q 180 241 138 323 q 311 97 228 150 q 493 41 395 45 l 498 41 q 749 146 644 41 q 779 158 761 158 q 808 146 796 158 q 821 116 821 134 q 808 86 821 98 q 500 -41 681 -41 l 496 -39 l 490 -39 q 265 29 367 -36 q 106 204 161 94 q 50 422 54 304 m 282 -318 q 260 -295 267 -311 q 261 -263 254 -278 q 284 -241 268 -248 q 316 -242 301 -235 q 353 -252 332 -249 l 367 -252 q 386 -249 375 -252 q 400 -240 397 -243 q 403 -235 403 -237 l 395 -236 q 393 -232 395 -233 q 380 -227 388 -227 l 378 -227 q 370 -228 372 -227 q 322 -212 340 -237 q 322 -164 304 -189 l 375 -89 q 403 -72 385 -75 q 435 -79 421 -68 q 452 -107 448 -89 q 444 -139 456 -125 l 432 -157 q 452 -171 446 -165 q 481 -236 481 -197 l 481 -237 q 456 -301 481 -272 q 404 -330 436 -322 q 363 -336 386 -336 q 340 -335 349 -336 q 282 -318 309 -331 z "},"":{"ha":848,"x_min":118,"x_max":762,"o":"m 118 0 l 118 889 q 130 919 118 907 q 160 930 142 930 q 190 919 178 930 q 201 889 201 907 l 201 0 q 190 -30 201 -18 q 160 -41 178 -41 q 130 -30 142 -41 q 118 0 118 -18 m 247 -30 q 241 -24 247 -30 q 235 0 235 -18 q 247 30 235 18 q 277 41 258 41 l 721 41 q 751 30 739 41 q 762 0 762 18 q 751 -30 762 -18 q 721 -41 739 -41 l 277 -41 q 247 -30 258 -41 m 249 448 q 243 454 249 448 q 237 478 237 460 q 249 508 237 496 q 279 519 261 519 l 637 519 q 667 508 656 519 q 679 478 679 496 q 667 448 679 460 q 637 436 656 436 l 279 436 q 249 448 261 436 m 249 859 q 243 865 249 859 q 237 889 237 871 q 249 919 237 907 q 279 930 261 930 l 720 930 q 749 919 738 930 q 761 889 761 907 q 749 859 761 871 q 720 847 737 847 l 279 847 q 249 859 261 847 m 323 1226 q 322 1258 317 1242 q 343 1282 328 1275 q 375 1283 358 1289 q 399 1263 392 1278 q 494 1145 432 1196 l 493 1146 q 508 1118 507 1135 q 499 1086 510 1100 q 470 1071 488 1072 q 439 1080 453 1069 q 323 1226 362 1145 z "},"":{"ha":848,"x_min":118,"x_max":762,"o":"m 118 0 l 118 889 q 130 919 118 907 q 160 930 142 930 q 190 919 178 930 q 201 889 201 907 l 201 0 q 190 -30 201 -18 q 160 -41 178 -41 q 130 -30 142 -41 q 118 0 118 -18 m 247 -30 q 241 -24 247 -30 q 235 0 235 -18 q 247 30 235 18 q 277 41 258 41 l 721 41 q 751 30 739 41 q 762 0 762 18 q 751 -30 762 -18 q 721 -41 739 -41 l 277 -41 q 247 -30 258 -41 m 249 448 q 243 454 249 448 q 237 478 237 460 q 249 508 237 496 q 279 519 261 519 l 637 519 q 667 508 656 519 q 679 478 679 496 q 667 448 679 460 q 637 436 656 436 l 279 436 q 249 448 261 436 m 249 859 q 243 865 249 859 q 237 889 237 871 q 249 919 237 907 q 279 930 261 930 l 720 930 q 749 919 738 930 q 761 889 761 907 q 749 859 761 871 q 720 847 737 847 l 279 847 q 249 859 261 847 m 407 1085 q 401 1092 407 1085 q 397 1116 396 1099 q 412 1145 399 1133 q 509 1263 475 1196 q 532 1284 515 1278 q 564 1282 549 1289 q 585 1258 579 1275 q 583 1226 590 1242 q 468 1080 545 1145 l 467 1079 q 435 1069 453 1068 q 407 1085 418 1071 z "},"":{"ha":848,"x_min":118,"x_max":762,"o":"m 118 0 l 118 889 q 130 919 118 907 q 160 930 142 930 q 190 919 178 930 q 201 889 201 907 l 201 0 q 190 -30 201 -18 q 160 -41 178 -41 q 130 -30 142 -41 q 118 0 118 -18 m 247 -30 q 241 -24 247 -30 q 235 0 235 -18 q 247 30 235 18 q 277 41 258 41 l 721 41 q 751 30 739 41 q 762 0 762 18 q 751 -30 762 -18 q 721 -41 739 -41 l 277 -41 q 247 -30 258 -41 m 249 448 q 243 454 249 448 q 237 478 237 460 q 249 508 237 496 q 279 519 261 519 l 637 519 q 667 508 656 519 q 679 478 679 496 q 667 448 679 460 q 637 436 656 436 l 279 436 q 249 448 261 436 m 249 859 q 243 865 249 859 q 237 889 237 871 q 249 919 237 907 q 279 930 261 930 l 720 930 q 749 919 738 930 q 761 889 761 907 q 749 859 761 871 q 720 847 737 847 l 279 847 q 249 859 261 847 m 323 1079 q 308 1106 310 1089 q 317 1137 306 1124 l 418 1270 l 416 1268 q 450 1285 429 1285 q 484 1268 471 1284 l 583 1136 q 591 1106 593 1122 q 575 1078 589 1089 q 545 1070 562 1068 q 517 1086 528 1072 l 450 1175 l 382 1086 q 355 1070 372 1073 q 323 1079 338 1068 z "},"":{"ha":848,"x_min":118,"x_max":762,"o":"m 118 0 l 118 889 q 130 919 118 907 q 160 930 142 930 q 190 919 178 930 q 201 889 201 907 l 201 0 q 190 -30 201 -18 q 160 -41 178 -41 q 130 -30 142 -41 q 118 0 118 -18 m 247 -30 q 241 -24 247 -30 q 235 0 235 -18 q 247 30 235 18 q 277 41 258 41 l 721 41 q 751 30 739 41 q 762 0 762 18 q 751 -30 762 -18 q 721 -41 739 -41 l 277 -41 q 247 -30 258 -41 m 249 448 q 243 454 249 448 q 237 478 237 460 q 249 508 237 496 q 279 519 261 519 l 637 519 q 667 508 656 519 q 679 478 679 496 q 667 448 679 460 q 637 436 656 436 l 279 436 q 249 448 261 436 m 249 859 q 243 865 249 859 q 237 889 237 871 q 249 919 237 907 q 279 930 261 930 l 720 930 q 749 919 738 930 q 761 889 761 907 q 749 859 761 871 q 720 847 737 847 l 279 847 q 249 859 261 847 m 328 1153 q 342 1190 328 1174 q 380 1206 357 1206 q 417 1191 401 1206 q 433 1153 433 1177 q 419 1116 433 1132 q 380 1100 404 1100 q 343 1115 359 1100 q 328 1153 328 1129 m 478 1153 q 493 1190 478 1174 q 530 1206 507 1206 q 567 1191 551 1206 q 583 1153 583 1177 q 569 1116 583 1132 q 530 1100 554 1100 q 494 1115 509 1100 q 478 1153 478 1129 z "},"":{"ha":319,"x_min":60,"x_max":246,"o":"m 61 1226 q 60 1258 54 1242 q 80 1282 65 1275 q 112 1283 96 1289 q 136 1263 129 1278 q 232 1145 170 1196 l 231 1146 q 246 1118 244 1135 q 236 1086 248 1100 q 208 1071 225 1072 q 176 1080 191 1069 q 61 1226 100 1145 m 118 0 l 118 889 q 130 919 118 907 q 160 930 142 930 q 190 919 178 930 q 201 889 201 907 l 201 0 q 190 -30 201 -18 q 160 -41 178 -41 q 130 -30 142 -41 q 118 0 118 -18 z "},"":{"ha":319,"x_min":92,"x_max":279,"o":"m 101 1085 q 96 1092 101 1085 q 92 1116 90 1099 q 107 1145 93 1133 q 203 1263 170 1196 q 226 1284 210 1278 q 258 1282 243 1289 q 279 1258 273 1275 q 278 1226 285 1242 q 163 1080 239 1145 l 161 1079 q 130 1069 148 1068 q 101 1085 113 1071 m 118 0 l 118 889 q 130 919 118 907 q 160 930 142 930 q 190 919 178 930 q 201 889 201 907 l 201 0 q 190 -30 201 -18 q 160 -41 178 -41 q 130 -30 142 -41 q 118 0 118 -18 z "},"":{"ha":319,"x_min":19,"x_max":302,"o":"m 35 1079 q 19 1106 21 1089 q 28 1137 17 1124 l 129 1270 l 127 1268 q 161 1285 140 1285 q 195 1268 182 1284 l 294 1136 q 302 1106 304 1122 q 286 1078 300 1089 q 256 1070 273 1068 q 228 1086 239 1072 l 161 1175 l 93 1086 q 66 1070 83 1073 q 35 1079 49 1068 m 118 0 l 118 889 q 130 919 118 907 q 160 930 142 930 q 190 919 178 930 q 201 889 201 907 l 201 0 q 190 -30 201 -18 q 160 -41 178 -41 q 130 -30 142 -41 q 118 0 118 -18 z "},"":{"ha":319,"x_min":28,"x_max":283,"o":"m 28 1153 q 42 1190 28 1174 q 81 1206 57 1206 q 118 1191 102 1206 q 134 1153 134 1177 q 119 1116 134 1132 q 81 1100 104 1100 q 44 1115 60 1100 q 28 1153 28 1129 m 118 0 l 118 889 q 130 919 118 907 q 160 930 142 930 q 190 919 178 930 q 201 889 201 907 l 201 0 q 190 -30 201 -18 q 160 -41 178 -41 q 130 -30 142 -41 q 118 0 118 -18 m 178 1153 q 192 1190 178 1174 q 231 1206 207 1206 q 268 1191 252 1206 q 283 1153 283 1177 q 269 1116 283 1132 q 231 1100 254 1100 q 194 1115 210 1100 q 178 1153 178 1129 z "},"":{"ha":1017,"x_min":5,"x_max":940,"o":"m 17 411 q 11 417 17 411 q 5 440 5 422 q 17 470 5 458 q 47 482 29 482 l 222 482 l 221 482 q 251 470 239 482 q 262 440 262 458 q 251 411 262 422 q 221 399 239 399 l 47 399 q 17 411 29 399 m 289 3 l 289 892 q 301 922 289 910 q 331 933 313 933 q 360 921 349 933 q 372 892 372 909 l 372 3 q 360 -27 372 -16 q 331 -39 349 -39 q 301 -27 313 -39 q 289 3 289 -16 m 419 -30 q 413 -24 419 -30 q 407 0 407 -18 q 419 30 407 18 q 449 41 431 41 l 514 41 l 532 41 l 550 41 q 632 57 590 43 q 772 151 717 85 q 840 286 819 204 q 860 439 860 354 l 860 441 q 842 593 860 522 q 779 722 822 667 q 682 803 739 774 q 558 842 628 831 q 505 847 538 844 l 458 847 q 428 859 440 847 q 416 889 416 871 q 428 919 416 907 q 458 930 440 930 l 507 930 l 504 933 q 568 928 549 930 q 718 879 652 914 q 842 777 793 840 q 920 616 895 710 q 940 444 941 538 l 940 441 q 920 265 940 345 q 836 98 892 165 q 657 -22 766 12 q 554 -41 604 -41 l 532 -41 l 511 -41 l 449 -41 q 419 -30 431 -41 m 449 411 q 443 417 449 411 q 437 440 437 422 q 449 470 437 458 q 479 482 461 482 l 654 482 l 653 482 q 683 470 671 482 q 694 440 694 458 q 683 411 694 422 q 653 399 671 399 l 479 399 q 449 411 461 399 z "},"":{"ha":920,"x_min":119,"x_max":804,"o":"m 119 0 l 119 611 q 131 641 119 629 q 161 653 143 653 q 191 641 179 653 q 203 611 203 629 l 203 0 q 191 -30 203 -18 q 161 -41 179 -41 q 131 -30 143 -41 q 119 0 119 -18 m 126 865 q 121 897 117 879 q 139 924 125 914 q 170 929 153 933 q 197 911 187 925 l 799 22 q 804 -9 808 9 q 786 -36 800 -26 q 755 -42 772 -46 q 728 -24 737 -37 l 126 865 m 262 1137 q 281 1197 262 1171 q 358 1240 304 1236 l 367 1240 l 378 1240 q 418 1229 396 1239 q 463 1200 435 1222 q 519 1157 509 1161 q 539 1153 530 1153 l 541 1153 q 557 1158 549 1153 q 567 1170 564 1162 q 568 1175 570 1177 l 567 1173 q 568 1179 568 1175 l 567 1183 q 574 1215 564 1200 q 600 1232 583 1229 q 631 1225 616 1235 q 648 1198 646 1215 q 652 1178 651 1190 l 660 1177 q 654 1145 659 1157 q 650 1133 654 1142 q 608 1085 636 1103 q 550 1065 581 1067 l 545 1065 q 493 1076 518 1065 q 414 1132 471 1084 q 387 1149 398 1144 q 374 1153 379 1153 l 370 1153 l 367 1153 q 350 1146 356 1153 q 347 1136 347 1142 l 347 1132 q 345 1100 353 1115 q 321 1079 338 1084 q 289 1081 304 1074 q 268 1105 273 1089 q 262 1137 262 1122 m 721 278 l 721 889 q 733 919 721 907 q 763 930 745 930 q 792 919 781 930 q 804 889 804 907 l 804 278 q 792 248 804 260 q 763 236 781 236 q 733 248 745 236 q 721 278 721 260 z "},"":{"ha":1023,"x_min":52,"x_max":951,"o":"m 183 101 q 117 173 183 101 q 52 444 52 244 q 183 787 52 644 q 502 930 314 930 q 820 787 689 930 q 951 444 951 644 q 820 101 951 244 q 502 -41 689 -41 q 183 101 314 -41 m 241 730 q 187 671 241 730 q 134 445 134 612 q 241 159 134 277 q 500 41 349 41 q 759 159 652 41 q 867 445 867 277 q 759 730 867 612 q 500 847 652 847 q 241 730 349 847 m 367 1226 q 365 1258 359 1242 q 386 1282 371 1275 q 418 1283 401 1289 q 441 1263 435 1278 q 538 1145 475 1196 l 536 1146 q 551 1118 550 1135 q 542 1086 553 1100 q 513 1071 530 1072 q 482 1080 496 1069 q 367 1226 406 1145 z "},"":{"ha":1023,"x_min":52,"x_max":951,"o":"m 183 101 q 117 173 183 101 q 52 444 52 244 q 183 787 52 644 q 502 930 314 930 q 820 787 689 930 q 951 444 951 644 q 820 101 951 244 q 502 -41 689 -41 q 183 101 314 -41 m 241 730 q 187 671 241 730 q 134 445 134 612 q 241 159 134 277 q 500 41 349 41 q 759 159 652 41 q 867 445 867 277 q 759 730 867 612 q 500 847 652 847 q 241 730 349 847 m 430 1085 q 425 1092 430 1085 q 421 1116 419 1099 q 436 1145 422 1133 q 532 1263 498 1196 q 555 1284 538 1278 q 588 1282 572 1289 q 608 1258 603 1275 q 607 1226 614 1242 q 492 1080 568 1145 l 490 1079 q 459 1069 477 1068 q 430 1085 441 1071 z "},"":{"ha":1023,"x_min":52,"x_max":951,"o":"m 183 101 q 117 173 183 101 q 52 444 52 244 q 183 787 52 644 q 502 930 314 930 q 820 787 689 930 q 951 444 951 644 q 820 101 951 244 q 502 -41 689 -41 q 183 101 314 -41 m 241 730 q 187 671 241 730 q 134 445 134 612 q 241 159 134 277 q 500 41 349 41 q 759 159 652 41 q 867 445 867 277 q 759 730 867 612 q 500 847 652 847 q 241 730 349 847 m 372 1079 q 356 1106 358 1089 q 366 1137 354 1124 l 467 1270 l 465 1268 q 498 1285 477 1285 q 532 1268 519 1284 l 632 1136 q 640 1106 642 1122 q 624 1078 637 1089 q 593 1070 610 1068 q 566 1086 576 1072 l 498 1175 l 431 1086 q 404 1070 421 1073 q 372 1079 386 1068 z "},"":{"ha":1023,"x_min":52,"x_max":951,"o":"m 183 101 q 117 173 183 101 q 52 444 52 244 q 183 787 52 644 q 502 930 314 930 q 820 787 689 930 q 951 444 951 644 q 820 101 951 244 q 502 -41 689 -41 q 183 101 314 -41 m 241 730 q 187 671 241 730 q 134 445 134 612 q 241 159 134 277 q 500 41 349 41 q 759 159 652 41 q 867 445 867 277 q 759 730 867 612 q 500 847 652 847 q 241 730 349 847 z "},"":{"ha":1023,"x_min":52,"x_max":951,"o":"m 183 101 q 117 173 183 101 q 52 444 52 244 q 183 787 52 644 q 502 930 314 930 q 820 787 689 930 q 951 444 951 644 q 820 101 951 244 q 502 -41 689 -41 q 183 101 314 -41 m 241 730 q 187 671 241 730 q 134 445 134 612 q 241 159 134 277 q 500 41 349 41 q 759 159 652 41 q 867 445 867 277 q 759 730 867 612 q 500 847 652 847 q 241 730 349 847 m 367 1153 q 381 1190 367 1174 q 419 1206 396 1206 q 456 1191 440 1206 q 472 1153 472 1177 q 457 1116 472 1132 q 419 1100 443 1100 q 382 1115 398 1100 q 367 1153 367 1129 m 517 1153 q 531 1190 517 1174 q 570 1206 546 1206 q 607 1191 591 1206 q 623 1153 623 1177 q 608 1116 623 1132 q 570 1100 593 1100 q 533 1115 549 1100 q 517 1153 517 1129 z "},"":{"ha":711,"x_min":30,"x_max":644,"o":"m 43 -32 q 37 -26 43 -32 q 30 -4 31 -21 q 40 26 29 14 l 243 244 q 271 257 254 256 q 301 247 289 258 q 315 219 314 236 q 304 189 315 201 l 102 -29 q 73 -42 91 -41 q 43 -32 56 -43 m 77 514 q 66 544 65 526 q 79 572 66 561 q 109 583 92 583 q 138 570 126 582 l 633 28 q 644 -2 644 16 q 630 -31 643 -20 q 601 -41 618 -41 q 572 -28 583 -40 l 77 514 m 382 336 q 376 342 382 336 q 369 365 370 347 q 379 395 368 382 l 541 570 q 569 583 551 582 q 598 572 586 583 q 612 544 611 561 q 602 514 612 526 l 440 339 q 412 326 429 327 q 382 336 395 325 z "},"":{"ha":1023,"x_min":52,"x_max":951,"o":"m 183 101 q 117 173 183 101 q 52 444 52 244 q 183 787 52 644 q 502 930 314 930 q 820 787 689 930 q 951 444 951 644 q 820 101 951 244 q 502 -41 689 -41 q 183 101 314 -41 m 241 730 q 187 671 241 730 q 134 445 134 612 q 241 159 134 277 q 500 41 349 41 q 759 159 652 41 q 867 445 867 277 q 759 730 867 612 q 500 847 652 847 q 241 730 349 847 m 386 229 l 536 704 q 557 729 542 721 q 589 732 572 737 q 614 711 606 726 q 616 679 623 696 l 467 204 q 446 179 461 187 q 414 176 431 171 q 389 197 397 182 q 386 229 380 212 z "},"":{"ha":958,"x_min":103,"x_max":848,"o":"m 103 236 l 103 889 q 115 919 103 907 q 144 930 126 930 q 174 919 163 930 q 186 889 186 907 l 186 236 q 174 206 186 218 q 144 195 163 195 q 115 206 126 195 q 103 236 103 218 m 164 71 q 153 101 153 83 q 166 129 154 118 q 196 140 179 140 q 225 126 214 139 q 293 78 253 97 l 294 77 q 473 42 366 42 q 656 78 581 41 q 724 126 696 98 q 752 139 734 138 q 782 129 770 140 q 795 101 794 118 q 785 71 796 83 q 692 3 746 29 q 473 -41 603 -42 q 257 3 350 -41 q 164 71 203 29 m 351 1225 q 350 1257 345 1240 q 371 1280 355 1274 q 402 1282 386 1287 q 427 1261 419 1276 q 522 1143 460 1195 l 521 1145 q 536 1116 534 1134 q 527 1085 538 1099 q 498 1069 515 1071 q 467 1079 481 1068 q 351 1225 390 1144 m 765 235 l 765 888 q 777 918 765 906 q 807 929 789 929 q 837 917 825 929 q 848 888 848 905 l 848 235 q 837 205 848 216 q 807 193 825 193 q 777 205 789 193 q 765 235 765 216 z "},"":{"ha":958,"x_min":103,"x_max":848,"o":"m 103 236 l 103 889 q 115 919 103 907 q 144 930 126 930 q 174 919 163 930 q 186 889 186 907 l 186 236 q 174 206 186 218 q 144 195 163 195 q 115 206 126 195 q 103 236 103 218 m 164 71 q 153 101 153 83 q 166 129 154 118 q 196 140 179 140 q 225 126 214 139 q 293 78 253 97 l 294 77 q 473 42 366 42 q 656 78 581 41 q 724 126 696 98 q 752 139 734 138 q 782 129 770 140 q 795 101 794 118 q 785 71 796 83 q 692 3 746 29 q 473 -41 603 -42 q 257 3 350 -41 q 164 71 203 29 m 408 1083 q 403 1090 408 1083 q 399 1115 397 1097 q 414 1143 400 1132 q 510 1261 476 1195 q 533 1282 517 1277 q 565 1280 550 1287 q 586 1257 581 1274 q 585 1225 591 1240 q 469 1079 546 1144 l 468 1078 q 437 1068 454 1067 q 408 1083 419 1069 m 765 235 l 765 888 q 777 918 765 906 q 807 929 789 929 q 837 917 825 929 q 848 888 848 905 l 848 235 q 837 205 848 216 q 807 193 825 193 q 777 205 789 193 q 765 235 765 216 z "},"":{"ha":958,"x_min":103,"x_max":848,"o":"m 103 236 l 103 889 q 115 919 103 907 q 144 930 126 930 q 174 919 163 930 q 186 889 186 907 l 186 236 q 174 206 186 218 q 144 195 163 195 q 115 206 126 195 q 103 236 103 218 m 164 71 q 153 101 153 83 q 166 129 154 118 q 196 140 179 140 q 225 126 214 139 q 293 78 253 97 l 294 77 q 473 42 366 42 q 656 78 581 41 q 724 126 696 98 q 752 139 734 138 q 782 129 770 140 q 795 101 794 118 q 785 71 796 83 q 692 3 746 29 q 473 -41 603 -42 q 257 3 350 -41 q 164 71 203 29 m 349 1078 q 333 1105 335 1088 q 342 1136 330 1122 l 443 1268 l 441 1267 q 475 1283 454 1284 q 509 1267 496 1283 l 608 1135 q 616 1104 618 1121 q 600 1076 614 1088 q 570 1069 587 1067 q 542 1084 553 1071 l 475 1174 l 407 1084 q 380 1069 397 1071 q 349 1078 363 1067 m 765 235 l 765 888 q 777 918 765 906 q 807 929 789 929 q 837 917 825 929 q 848 888 848 905 l 848 235 q 837 205 848 216 q 807 193 825 193 q 777 205 789 193 q 765 235 765 216 z "},"":{"ha":958,"x_min":103,"x_max":848,"o":"m 103 236 l 103 889 q 115 919 103 907 q 144 930 126 930 q 174 919 163 930 q 186 889 186 907 l 186 236 q 174 206 186 218 q 144 195 163 195 q 115 206 126 195 q 103 236 103 218 m 164 71 q 153 101 153 83 q 166 129 154 118 q 196 140 179 140 q 225 126 214 139 q 293 78 253 97 l 294 77 q 473 42 366 42 q 656 78 581 41 q 724 126 696 98 q 752 139 734 138 q 782 129 770 140 q 795 101 794 118 q 785 71 796 83 q 692 3 746 29 q 473 -41 603 -42 q 257 3 350 -41 q 164 71 203 29 m 340 1152 q 355 1188 340 1173 q 393 1204 370 1204 q 430 1190 414 1204 q 446 1152 446 1175 q 431 1115 446 1131 q 393 1099 416 1099 q 356 1113 372 1099 q 340 1152 340 1128 m 490 1152 q 505 1188 490 1173 q 543 1204 519 1204 q 580 1190 564 1204 q 596 1152 596 1175 q 582 1115 596 1131 q 543 1099 567 1099 q 506 1113 522 1099 q 490 1152 490 1128 m 765 235 l 765 888 q 777 918 765 906 q 807 929 789 929 q 837 917 825 929 q 848 888 848 905 l 848 235 q 837 205 848 216 q 807 193 825 193 q 777 205 789 193 q 765 235 765 216 z "},"":{"ha":915,"x_min":34,"x_max":876,"o":"m 45 861 q 34 891 33 873 q 47 919 35 908 q 77 930 60 930 q 106 917 94 929 l 485 503 q 495 473 496 490 q 482 445 494 456 q 452 434 469 433 q 424 447 435 435 l 45 861 m 406 1085 q 400 1092 406 1085 q 396 1116 395 1099 q 411 1145 397 1133 q 507 1263 473 1196 q 531 1284 514 1278 q 563 1282 547 1289 q 583 1258 578 1275 q 582 1226 589 1242 q 467 1080 543 1145 l 465 1079 q 434 1069 452 1068 q 406 1085 416 1071 m 412 0 l 412 334 q 424 363 412 352 q 454 375 436 375 q 484 363 472 375 q 496 334 496 351 l 496 0 q 484 -30 496 -18 q 454 -41 472 -41 q 424 -30 436 -41 q 412 0 412 -18 m 567 597 q 560 603 567 597 q 553 626 554 608 q 564 656 553 643 l 804 917 q 832 930 815 929 q 862 919 850 930 q 876 891 875 908 q 865 861 876 873 l 625 600 q 597 587 614 588 q 567 597 579 586 z "},"":{"ha":842,"x_min":119,"x_max":778,"o":"m 119 0 l 119 889 q 131 919 119 907 q 161 930 143 930 q 191 919 179 930 q 203 889 203 907 l 203 0 q 191 -30 203 -18 q 161 -41 179 -41 q 131 -30 143 -41 q 119 0 119 -18 m 271 751 q 266 756 271 751 q 260 781 260 762 q 272 810 260 799 q 301 822 283 822 l 503 822 q 708 740 637 822 q 778 536 778 659 q 705 338 778 410 q 519 265 632 265 l 306 265 q 276 277 288 265 q 264 307 264 289 q 276 337 264 325 q 306 349 288 349 l 519 349 q 647 398 600 349 q 694 536 694 447 q 651 679 694 618 q 503 739 607 739 l 301 739 q 271 751 283 739 z "},"":{"ha":940,"x_min":-31,"x_max":789,"o":"m -31 77 q -19 106 -31 95 q 11 118 -7 118 q 41 106 29 118 q 53 77 53 94 q 61 52 53 63 q 78 41 69 41 l 92 41 q 113 47 107 41 l 114 49 l 114 50 q 118 96 118 62 l 118 107 l 118 888 q 130 918 118 906 q 160 929 142 929 q 190 917 178 929 q 201 888 201 905 l 200 109 l 200 98 q 193 31 200 57 q 189 19 192 26 q 183 7 186 12 l 182 5 q 178 0 180 3 q 175 -5 176 -3 q 90 -41 144 -41 l 71 -41 q -1 -2 28 -39 q -31 77 -31 34 m 326 859 q 320 865 326 859 q 314 889 314 871 q 326 919 314 907 q 355 930 338 930 l 436 930 q 643 860 579 930 q 707 686 707 790 q 635 522 707 585 q 436 460 564 460 l 363 460 q 333 472 345 460 q 321 502 321 484 q 333 531 321 519 q 363 543 345 543 l 436 543 q 576 582 528 543 q 624 686 624 621 q 436 847 624 848 l 355 847 q 326 859 337 847 m 327 -30 q 321 -24 327 -30 q 315 0 315 -18 q 327 30 315 18 q 357 41 339 41 l 457 41 q 547 51 506 41 q 624 84 587 61 q 683 152 661 107 q 704 257 704 196 l 704 258 q 646 414 704 363 q 631 442 632 425 q 642 474 631 460 q 670 488 653 488 q 701 478 688 489 q 789 258 789 401 l 787 257 q 699 38 787 117 q 457 -41 610 -41 l 357 -41 q 327 -30 338 -41 z "},"":{"ha":908,"x_min":26,"x_max":866,"o":"m 47 -38 q 40 -34 47 -38 q 26 -14 32 -31 q 26 18 20 3 l 335 737 q 358 759 342 753 q 390 758 375 765 q 412 735 406 751 q 411 703 418 718 l 103 -17 q 79 -39 96 -33 q 47 -38 62 -45 m 303 285 q 298 291 303 285 q 292 315 292 297 q 303 345 292 334 q 334 357 315 357 l 555 357 q 586 345 574 357 q 597 315 597 334 q 586 285 597 297 q 555 273 574 273 l 334 273 q 303 285 315 273 m 322 1226 q 321 1258 315 1242 q 341 1282 326 1275 q 373 1283 357 1289 q 397 1263 390 1278 q 493 1145 431 1196 l 492 1146 q 507 1118 505 1135 q 497 1086 509 1100 q 469 1071 486 1072 q 437 1080 452 1069 q 322 1226 361 1145 m 408 872 q 408 904 401 888 q 429 928 414 921 q 461 928 444 935 q 485 907 478 922 l 865 18 q 866 -14 872 3 q 845 -38 860 -31 q 813 -38 829 -45 q 789 -17 796 -32 l 408 872 z "},"":{"ha":908,"x_min":26,"x_max":866,"o":"m 47 -42 q 40 -38 47 -42 q 26 -18 32 -35 q 26 14 20 -1 l 335 733 q 358 755 342 749 q 390 754 375 761 q 412 731 406 747 q 411 699 418 714 l 103 -21 q 79 -43 96 -37 q 47 -42 62 -49 m 303 281 q 298 287 303 281 q 292 311 292 293 q 303 341 292 329 q 334 353 315 353 l 555 353 q 586 341 574 353 q 597 311 597 329 q 586 281 597 293 q 555 269 574 269 l 334 269 q 303 281 315 269 m 407 1085 q 401 1092 407 1085 q 397 1116 396 1099 q 412 1145 399 1133 q 509 1263 475 1196 q 532 1284 515 1278 q 564 1282 549 1289 q 585 1258 579 1275 q 583 1226 590 1242 q 468 1080 545 1145 l 467 1079 q 435 1069 453 1068 q 407 1085 418 1071 m 408 868 q 408 900 401 884 q 429 924 414 917 q 461 924 444 930 q 485 903 478 918 l 865 14 q 866 -18 872 -2 q 845 -42 860 -35 q 813 -42 829 -49 q 789 -21 796 -36 l 408 868 z "},"":{"ha":908,"x_min":26,"x_max":866,"o":"m 47 -42 q 40 -38 47 -42 q 26 -18 32 -35 q 26 14 20 -1 l 335 733 q 358 755 342 749 q 390 754 375 761 q 412 731 406 747 q 411 699 418 714 l 103 -21 q 79 -43 96 -37 q 47 -42 62 -49 m 303 281 q 298 287 303 281 q 292 311 292 293 q 303 341 292 329 q 334 353 315 353 l 555 353 q 586 341 574 353 q 597 311 597 329 q 586 281 597 293 q 555 269 574 269 l 334 269 q 303 281 315 269 m 323 1079 q 308 1106 310 1089 q 317 1137 306 1124 l 418 1270 l 416 1268 q 450 1285 429 1285 q 484 1268 471 1284 l 583 1136 q 591 1106 593 1122 q 575 1078 589 1089 q 545 1070 562 1068 q 517 1086 528 1072 l 450 1175 l 382 1086 q 355 1070 372 1073 q 323 1079 338 1068 m 408 868 q 408 900 401 884 q 429 924 414 917 q 461 924 444 930 q 485 903 478 918 l 865 14 q 866 -18 872 -2 q 845 -42 860 -35 q 813 -42 829 -49 q 789 -21 796 -36 l 408 868 z "},"":{"ha":908,"x_min":35,"x_max":876,"o":"m 57 -42 q 49 -38 57 -42 q 35 -18 41 -35 q 36 14 29 -1 l 345 733 q 368 755 351 749 q 400 754 385 761 q 421 731 415 747 q 421 699 428 714 l 113 -21 q 89 -43 106 -37 q 57 -42 72 -49 m 261 1137 q 279 1197 261 1171 q 357 1240 303 1236 l 366 1240 l 376 1240 q 416 1229 395 1239 q 461 1200 433 1222 q 518 1157 507 1161 q 538 1153 528 1153 l 539 1153 q 555 1158 547 1153 q 565 1170 562 1162 q 567 1175 568 1177 l 566 1173 q 567 1179 567 1175 l 566 1183 q 572 1215 563 1200 q 598 1232 582 1229 q 630 1225 615 1235 q 647 1198 644 1215 q 650 1178 650 1190 l 659 1177 q 653 1145 657 1157 q 648 1133 653 1142 q 607 1085 635 1103 q 549 1065 579 1067 l 543 1065 q 492 1076 517 1065 q 412 1132 469 1084 q 386 1149 397 1144 q 372 1153 378 1153 l 368 1153 l 366 1153 q 349 1146 355 1153 q 346 1136 346 1142 l 346 1132 q 344 1100 351 1115 q 319 1079 336 1084 q 287 1081 302 1074 q 267 1105 272 1089 q 261 1137 261 1122 m 313 281 q 307 287 313 281 q 301 311 301 293 q 313 341 301 329 q 343 353 325 353 l 566 353 q 595 341 584 353 q 607 311 607 329 q 595 281 607 293 q 566 269 583 269 l 343 269 q 313 281 325 269 m 418 868 q 417 900 411 884 q 439 924 424 917 q 471 924 454 930 q 494 903 488 918 l 875 14 q 876 -18 882 -2 q 854 -42 869 -35 q 822 -42 839 -49 q 799 -21 806 -36 l 418 868 z "},"":{"ha":908,"x_min":27,"x_max":867,"o":"m 48 -39 q 41 -35 48 -39 q 27 -15 33 -32 q 28 17 21 1 l 336 736 q 360 758 343 751 q 392 757 376 764 q 413 733 407 750 q 412 701 419 717 l 104 -18 q 81 -40 98 -34 q 48 -39 64 -46 m 305 284 q 299 290 305 284 q 293 314 293 296 q 305 343 293 332 q 335 355 317 355 l 557 355 q 587 343 575 355 q 599 314 599 332 q 587 284 599 296 q 557 272 575 272 l 335 272 q 305 284 317 272 m 328 1153 q 342 1190 328 1174 q 380 1206 357 1206 q 417 1191 401 1206 q 433 1153 433 1177 q 419 1116 433 1132 q 380 1100 404 1100 q 343 1115 359 1100 q 328 1153 328 1129 m 410 871 q 409 903 403 886 q 430 926 415 920 q 463 927 446 933 q 486 905 479 921 l 867 17 q 867 -15 873 1 q 846 -39 861 -32 q 814 -40 831 -46 q 790 -18 798 -33 l 410 871 m 478 1153 q 493 1190 478 1174 q 530 1206 507 1206 q 567 1191 551 1206 q 583 1153 583 1177 q 569 1116 583 1132 q 530 1100 554 1100 q 494 1115 509 1100 q 478 1153 478 1129 z "},"":{"ha":908,"x_min":27,"x_max":867,"o":"m 48 -39 q 41 -35 48 -39 q 27 -15 33 -32 q 28 17 21 1 l 336 736 q 360 758 343 751 q 392 757 376 764 q 413 733 407 750 q 412 701 419 717 l 104 -18 q 81 -40 98 -34 q 48 -39 64 -46 m 305 284 q 299 290 305 284 q 293 314 293 296 q 305 343 293 332 q 335 355 317 355 l 557 355 q 587 343 575 355 q 599 314 599 332 q 587 284 599 296 q 557 272 575 272 l 335 272 q 305 284 317 272 m 376 1101 q 362 1116 376 1101 q 347 1172 347 1131 q 376 1243 347 1214 q 447 1272 406 1272 q 518 1243 489 1272 q 547 1172 547 1214 q 518 1101 547 1131 q 447 1072 489 1072 q 376 1101 406 1072 m 410 871 q 409 903 403 886 q 430 926 415 920 q 463 927 446 933 q 486 905 479 921 l 867 17 q 867 -15 873 1 q 846 -39 861 -32 q 814 -40 831 -46 q 790 -18 798 -33 l 410 871 m 447 1189 q 439 1189 447 1189 q 431 1172 431 1189 q 447 1156 431 1156 q 464 1172 464 1156 q 447 1189 464 1189 z "},"":{"ha":1499,"x_min":24,"x_max":1429,"o":"m 39 -32 q 32 -26 39 -32 q 24 -4 25 -21 q 33 28 22 14 l 682 794 q 710 809 693 808 q 742 800 728 811 q 757 771 755 789 q 747 741 758 754 l 98 -26 q 70 -41 87 -40 q 39 -32 53 -43 m 459 284 q 453 290 459 284 q 447 314 447 296 q 459 343 447 332 q 489 355 471 355 l 705 355 q 735 343 724 355 q 747 314 747 332 q 735 284 747 296 q 705 272 724 272 l 489 272 q 459 284 471 272 m 785 1 l 785 890 q 797 920 785 909 q 826 932 808 932 q 856 920 844 932 q 868 890 868 908 l 868 1 q 856 -28 868 -17 q 826 -40 844 -40 q 797 -28 808 -40 q 785 1 785 -17 m 913 -28 q 907 -23 913 -28 q 901 1 901 -17 q 913 31 901 20 q 943 43 925 43 l 1388 43 q 1417 31 1406 43 q 1429 1 1429 20 q 1417 -28 1429 -17 q 1388 -40 1406 -40 l 943 -40 q 913 -28 925 -40 m 916 449 q 910 455 916 449 q 904 479 904 461 q 916 509 904 497 q 946 521 928 521 l 1304 521 q 1334 509 1322 521 q 1346 479 1346 497 q 1334 449 1346 461 q 1304 437 1322 437 l 946 437 q 916 449 928 437 m 916 860 q 910 866 916 860 q 904 890 904 872 q 916 920 904 908 q 946 932 928 932 l 1386 932 q 1416 920 1404 932 q 1428 890 1428 908 q 1416 860 1428 872 q 1386 848 1404 848 l 946 848 q 916 860 928 848 z "},"":{"ha":894,"x_min":47,"x_max":818,"o":"m 47 415 l 47 433 q 86 637 47 542 q 262 857 143 779 q 489 924 366 924 q 715 857 612 924 q 733 830 729 848 q 728 799 737 812 q 701 781 718 785 q 669 786 684 777 q 489 839 586 839 q 309 786 392 839 q 164 603 212 722 q 131 432 131 522 l 131 418 q 178 235 135 316 q 309 90 225 143 q 490 35 392 37 l 496 35 q 746 139 642 35 q 775 151 758 151 q 805 139 793 151 q 818 109 818 126 q 806 79 818 92 q 515 -47 686 -40 q 498 -18 513 -28 q 467 -11 485 -7 q 439 -28 449 -14 l 428 -40 q 262 22 336 -24 q 103 197 158 87 q 47 415 52 297 m 345 -252 q 323 -228 329 -244 q 323 -196 317 -211 q 347 -174 330 -180 q 379 -175 364 -168 q 415 -184 395 -182 l 429 -184 q 449 -182 437 -184 q 463 -174 460 -176 q 465 -168 465 -171 l 460 -172 q 458 -168 460 -170 q 446 -163 453 -163 l 443 -163 q 435 -164 437 -163 q 387 -149 406 -174 q 387 -100 369 -125 l 429 -40 q 488 -45 458 -44 l 493 -45 l 514 -45 q 507 -72 515 -58 l 494 -90 q 514 -104 508 -98 q 543 -170 543 -131 l 543 -171 q 518 -235 543 -205 q 467 -264 498 -256 q 425 -269 448 -269 q 403 -268 412 -269 q 345 -252 372 -264 z "},"":{"ha":848,"x_min":117,"x_max":761,"o":"m 117 1 l 117 890 q 129 920 117 909 q 158 932 140 932 q 188 920 176 932 q 200 890 200 908 l 200 1 q 188 -28 200 -17 q 158 -40 176 -40 q 129 -28 140 -40 q 117 1 117 -17 m 245 -28 q 239 -23 245 -28 q 233 1 233 -17 q 245 31 233 20 q 275 43 257 43 l 720 43 q 749 31 738 43 q 761 1 761 20 q 749 -28 761 -17 q 720 -40 737 -40 l 275 -40 q 245 -28 257 -40 m 248 449 q 242 455 248 449 q 236 479 236 461 q 248 509 236 497 q 278 521 260 521 l 636 521 q 666 509 654 521 q 677 479 677 497 q 666 449 677 461 q 636 437 654 437 l 278 437 q 248 449 260 437 m 248 860 q 242 866 248 860 q 236 890 236 872 q 248 920 236 908 q 278 932 260 932 l 718 932 q 748 920 736 932 q 760 890 760 908 q 748 860 760 872 q 718 848 736 848 l 278 848 q 248 860 260 848 m 322 1226 q 321 1258 315 1242 q 341 1282 326 1275 q 373 1283 357 1289 q 397 1263 390 1278 q 493 1145 431 1196 l 492 1146 q 507 1118 505 1135 q 497 1086 509 1100 q 469 1071 486 1072 q 437 1080 452 1069 q 322 1226 361 1145 z "},"":{"ha":848,"x_min":117,"x_max":761,"o":"m 117 -1 l 117 888 q 129 918 117 906 q 158 929 140 929 q 188 917 176 929 q 200 888 200 905 l 200 -1 q 188 -31 200 -20 q 158 -43 176 -43 q 129 -31 140 -43 q 117 -1 117 -20 m 245 -31 q 239 -25 245 -31 q 233 -1 233 -20 q 245 28 233 17 q 275 40 257 40 l 720 40 q 749 28 738 40 q 761 -1 761 17 q 749 -31 761 -20 q 720 -43 737 -43 l 275 -43 q 245 -31 257 -43 m 248 447 q 242 453 248 447 q 236 476 236 458 q 248 506 236 494 q 278 518 260 518 l 636 518 q 666 506 654 518 q 677 476 677 494 q 666 447 677 458 q 636 435 654 435 l 278 435 q 248 447 260 435 m 248 858 q 242 863 248 858 q 236 887 236 869 q 248 917 236 905 q 278 929 260 929 l 718 929 q 748 917 736 929 q 760 887 760 905 q 748 858 760 869 q 718 846 736 846 l 278 846 q 248 858 260 846 m 407 1085 q 401 1092 407 1085 q 397 1116 396 1099 q 412 1145 399 1133 q 509 1263 475 1196 q 532 1284 515 1278 q 564 1282 549 1289 q 585 1258 579 1275 q 583 1226 590 1242 q 468 1080 545 1145 l 467 1079 q 435 1069 453 1068 q 407 1085 418 1071 z "},"":{"ha":848,"x_min":117,"x_max":761,"o":"m 117 -1 l 117 888 q 129 918 117 906 q 158 929 140 929 q 188 917 176 929 q 200 888 200 905 l 200 -1 q 188 -31 200 -20 q 158 -43 176 -43 q 129 -31 140 -43 q 117 -1 117 -20 m 245 -31 q 239 -25 245 -31 q 233 -1 233 -20 q 245 28 233 17 q 275 40 257 40 l 720 40 q 749 28 738 40 q 761 -1 761 17 q 749 -31 761 -20 q 720 -43 737 -43 l 275 -43 q 245 -31 257 -43 m 248 447 q 242 453 248 447 q 236 476 236 458 q 248 506 236 494 q 278 518 260 518 l 636 518 q 666 506 654 518 q 677 476 677 494 q 666 447 677 458 q 636 435 654 435 l 278 435 q 248 447 260 435 m 248 858 q 242 863 248 858 q 236 887 236 869 q 248 917 236 905 q 278 929 260 929 l 718 929 q 748 917 736 929 q 760 887 760 905 q 748 858 760 869 q 718 846 736 846 l 278 846 q 248 858 260 846 m 323 1079 q 308 1106 310 1089 q 317 1137 306 1124 l 418 1270 l 416 1268 q 450 1285 429 1285 q 484 1268 471 1284 l 583 1136 q 591 1106 593 1122 q 575 1078 589 1089 q 545 1070 562 1068 q 517 1086 528 1072 l 450 1175 l 382 1086 q 355 1070 372 1073 q 323 1079 338 1068 z "},"":{"ha":848,"x_min":118,"x_max":762,"o":"m 118 0 l 118 889 q 130 919 118 907 q 160 930 142 930 q 190 919 178 930 q 201 889 201 907 l 201 0 q 190 -30 201 -18 q 160 -41 178 -41 q 130 -30 142 -41 q 118 0 118 -18 m 247 -30 q 241 -24 247 -30 q 235 0 235 -18 q 247 30 235 18 q 277 41 258 41 l 721 41 q 751 30 739 41 q 762 0 762 18 q 751 -30 762 -18 q 721 -41 739 -41 l 277 -41 q 247 -30 258 -41 m 249 448 q 243 454 249 448 q 237 478 237 460 q 249 508 237 496 q 279 519 261 519 l 637 519 q 667 508 656 519 q 679 478 679 496 q 667 448 679 460 q 637 436 656 436 l 279 436 q 249 448 261 436 m 249 859 q 243 865 249 859 q 237 889 237 871 q 249 919 237 907 q 279 930 261 930 l 720 930 q 749 919 738 930 q 761 889 761 907 q 749 859 761 871 q 720 847 737 847 l 279 847 q 249 859 261 847 m 328 1153 q 342 1190 328 1174 q 380 1206 357 1206 q 417 1191 401 1206 q 433 1153 433 1177 q 419 1116 433 1132 q 380 1100 404 1100 q 343 1115 359 1100 q 328 1153 328 1129 m 478 1153 q 493 1190 478 1174 q 530 1206 507 1206 q 567 1191 551 1206 q 583 1153 583 1177 q 569 1116 583 1132 q 530 1100 554 1100 q 494 1115 509 1100 q 478 1153 478 1129 z "},"":{"ha":319,"x_min":60,"x_max":246,"o":"m 61 1226 q 60 1258 54 1242 q 80 1282 65 1275 q 112 1283 96 1289 q 136 1263 129 1278 q 232 1145 170 1196 l 231 1146 q 246 1118 244 1135 q 236 1086 248 1100 q 208 1071 225 1072 q 176 1080 191 1069 q 61 1226 100 1145 m 117 1 l 117 890 q 129 920 117 909 q 158 932 140 932 q 188 920 176 932 q 200 890 200 908 l 200 1 q 188 -28 200 -17 q 158 -40 176 -40 q 129 -28 140 -40 q 117 1 117 -17 z "},"":{"ha":319,"x_min":92,"x_max":279,"o":"m 101 1085 q 96 1092 101 1085 q 92 1116 90 1099 q 107 1145 93 1133 q 203 1263 170 1196 q 226 1284 210 1278 q 258 1282 243 1289 q 279 1258 273 1275 q 278 1226 285 1242 q 163 1080 239 1145 l 161 1079 q 130 1069 148 1068 q 101 1085 113 1071 m 117 -1 l 117 888 q 129 918 117 906 q 158 929 140 929 q 188 917 176 929 q 200 888 200 905 l 200 -1 q 188 -31 200 -20 q 158 -43 176 -43 q 129 -31 140 -43 q 117 -1 117 -20 z "},"":{"ha":319,"x_min":19,"x_max":302,"o":"m 35 1079 q 19 1106 21 1089 q 28 1137 17 1124 l 129 1270 l 127 1268 q 161 1285 140 1285 q 195 1268 182 1284 l 294 1136 q 302 1106 304 1122 q 286 1078 300 1089 q 256 1070 273 1068 q 228 1086 239 1072 l 161 1175 l 93 1086 q 66 1070 83 1073 q 35 1079 49 1068 m 117 -1 l 117 888 q 129 918 117 906 q 158 929 140 929 q 188 917 176 929 q 200 888 200 905 l 200 -1 q 188 -31 200 -20 q 158 -43 176 -43 q 129 -31 140 -43 q 117 -1 117 -20 z "},"":{"ha":319,"x_min":28,"x_max":283,"o":"m 28 1153 q 42 1190 28 1174 q 81 1206 57 1206 q 118 1191 102 1206 q 134 1153 134 1177 q 119 1116 134 1132 q 81 1100 104 1100 q 44 1115 60 1100 q 28 1153 28 1129 m 118 0 l 118 889 q 130 919 118 907 q 160 930 142 930 q 190 919 178 930 q 201 889 201 907 l 201 0 q 190 -30 201 -18 q 160 -41 178 -41 q 130 -30 142 -41 q 118 0 118 -18 m 178 1153 q 192 1190 178 1174 q 231 1206 207 1206 q 268 1191 252 1206 q 283 1153 283 1177 q 269 1116 283 1132 q 231 1100 254 1100 q 194 1115 210 1100 q 178 1153 178 1129 z "},"":{"ha":1017,"x_min":5,"x_max":940,"o":"m 17 411 q 11 417 17 411 q 5 440 5 422 q 17 470 5 458 q 47 482 29 482 l 222 482 l 221 482 q 251 470 239 482 q 262 440 262 458 q 251 411 262 422 q 221 399 239 399 l 47 399 q 17 411 29 399 m 289 3 l 289 892 q 301 922 289 910 q 331 933 313 933 q 360 921 349 933 q 372 892 372 909 l 372 3 q 360 -27 372 -16 q 331 -39 349 -39 q 301 -27 313 -39 q 289 3 289 -16 m 419 -30 q 413 -24 419 -30 q 407 0 407 -18 q 419 30 407 18 q 449 41 431 41 l 514 41 l 532 41 l 550 41 q 632 57 590 43 q 772 151 717 85 q 840 286 819 204 q 860 439 860 354 l 860 441 q 842 593 860 522 q 779 722 822 667 q 682 803 739 774 q 558 842 628 831 q 505 847 538 844 l 458 847 q 428 859 440 847 q 416 889 416 871 q 428 919 416 907 q 458 930 440 930 l 507 930 l 504 933 q 568 928 549 930 q 718 879 652 914 q 842 777 793 840 q 920 616 895 710 q 940 444 941 538 l 940 441 q 920 265 940 345 q 836 98 892 165 q 657 -22 766 12 q 554 -41 604 -41 l 532 -41 l 511 -41 l 449 -41 q 419 -30 431 -41 m 449 411 q 443 417 449 411 q 437 440 437 422 q 449 470 437 458 q 479 482 461 482 l 654 482 l 653 482 q 683 470 671 482 q 694 440 694 458 q 683 411 694 422 q 653 399 671 399 l 479 399 q 449 411 461 399 z "},"":{"ha":920,"x_min":127,"x_max":812,"o":"m 127 -1 l 127 610 q 139 640 127 628 q 169 652 151 652 q 199 640 187 652 q 211 610 211 628 l 211 -1 q 199 -31 211 -20 q 169 -43 187 -43 q 139 -31 151 -43 q 127 -1 127 -20 m 135 864 q 129 895 125 878 q 148 922 134 913 q 179 928 161 932 q 205 909 196 924 l 807 21 q 812 -10 817 7 q 794 -38 808 -28 q 763 -43 781 -47 q 736 -25 746 -39 l 135 864 m 261 1137 q 279 1197 261 1171 q 357 1240 303 1236 l 366 1240 l 376 1240 q 416 1229 395 1239 q 461 1200 433 1222 q 518 1157 507 1161 q 538 1153 528 1153 l 539 1153 q 555 1158 547 1153 q 565 1170 562 1162 q 567 1175 568 1177 l 566 1173 q 567 1179 567 1175 l 566 1183 q 572 1215 563 1200 q 598 1232 582 1229 q 630 1225 615 1235 q 647 1198 644 1215 q 650 1178 650 1190 l 659 1177 q 653 1145 657 1157 q 648 1133 653 1142 q 607 1085 635 1103 q 549 1065 579 1067 l 543 1065 q 492 1076 517 1065 q 412 1132 469 1084 q 386 1149 397 1144 q 372 1153 378 1153 l 368 1153 l 366 1153 q 349 1146 355 1153 q 346 1136 346 1142 l 346 1132 q 344 1100 351 1115 q 319 1079 336 1084 q 287 1081 302 1074 q 267 1105 272 1089 q 261 1137 261 1122 m 729 277 l 729 888 q 741 918 729 906 q 771 929 753 929 q 801 917 789 929 q 812 888 812 905 l 812 277 q 801 247 812 258 q 771 235 789 235 q 741 247 753 235 q 729 277 729 258 z "},"":{"ha":1023,"x_min":50,"x_max":950,"o":"m 181 103 q 116 174 181 103 q 50 446 50 245 q 181 789 50 646 q 500 932 313 932 q 819 789 688 932 q 950 446 950 646 q 819 103 950 245 q 500 -40 688 -40 q 181 103 313 -40 m 240 731 q 186 672 240 731 q 132 446 132 614 q 240 160 132 278 q 498 43 347 43 q 758 160 650 43 q 865 446 865 278 q 758 731 865 614 q 498 848 650 848 q 240 731 347 848 m 367 1226 q 365 1258 359 1242 q 386 1282 371 1275 q 418 1283 401 1289 q 441 1263 435 1278 q 538 1145 475 1196 l 536 1146 q 551 1118 550 1135 q 542 1086 553 1100 q 513 1071 530 1072 q 482 1080 496 1069 q 367 1226 406 1145 z "},"":{"ha":1023,"x_min":50,"x_max":950,"o":"m 181 98 q 116 170 181 98 q 50 441 50 241 q 181 785 50 642 q 500 928 313 928 q 819 785 688 928 q 950 441 950 642 q 819 98 950 241 q 500 -45 688 -45 q 181 98 313 -45 m 240 727 q 186 668 240 727 q 132 441 132 610 q 240 156 132 273 q 498 39 347 39 q 758 156 650 39 q 865 441 865 273 q 758 727 865 610 q 498 844 650 844 q 240 727 347 844 m 432 1085 q 427 1092 432 1085 q 422 1116 421 1099 q 437 1145 424 1133 q 533 1263 500 1196 q 557 1284 540 1278 q 589 1282 574 1289 q 610 1258 604 1275 q 608 1226 615 1242 q 493 1080 570 1145 l 492 1079 q 460 1069 478 1068 q 432 1085 443 1071 z "},"":{"ha":1023,"x_min":50,"x_max":950,"o":"m 181 98 q 116 170 181 98 q 50 441 50 241 q 181 785 50 642 q 500 928 313 928 q 819 785 688 928 q 950 441 950 642 q 819 98 950 241 q 500 -45 688 -45 q 181 98 313 -45 m 240 727 q 186 668 240 727 q 132 441 132 610 q 240 156 132 273 q 498 39 347 39 q 758 156 650 39 q 865 441 865 273 q 758 727 865 610 q 498 844 650 844 q 240 727 347 844 m 374 1079 q 357 1106 359 1089 q 367 1137 355 1124 l 468 1270 l 467 1268 q 500 1285 479 1285 q 533 1268 521 1284 l 633 1136 q 641 1106 643 1122 q 625 1078 639 1089 q 595 1070 612 1068 q 567 1086 578 1072 l 500 1175 l 432 1086 q 405 1070 422 1073 q 374 1079 387 1068 z "},"":{"ha":1023,"x_min":52,"x_max":951,"o":"m 183 101 q 117 173 183 101 q 52 444 52 244 q 183 787 52 644 q 502 930 314 930 q 820 787 689 930 q 951 444 951 644 q 820 101 951 244 q 502 -41 689 -41 q 183 101 314 -41 m 241 730 q 187 671 241 730 q 134 445 134 612 q 241 159 134 277 q 500 41 349 41 q 759 159 652 41 q 867 445 867 277 q 759 730 867 612 q 500 847 652 847 q 241 730 349 847 z "},"":{"ha":1023,"x_min":52,"x_max":951,"o":"m 183 101 q 117 173 183 101 q 52 444 52 244 q 183 787 52 644 q 502 930 314 930 q 820 787 689 930 q 951 444 951 644 q 820 101 951 244 q 502 -41 689 -41 q 183 101 314 -41 m 241 730 q 187 671 241 730 q 134 445 134 612 q 241 159 134 277 q 500 41 349 41 q 759 159 652 41 q 867 445 867 277 q 759 730 867 612 q 500 847 652 847 q 241 730 349 847 m 367 1153 q 381 1190 367 1174 q 419 1206 396 1206 q 456 1191 440 1206 q 472 1153 472 1177 q 457 1116 472 1132 q 419 1100 443 1100 q 382 1115 398 1100 q 367 1153 367 1129 m 517 1153 q 531 1190 517 1174 q 570 1206 546 1206 q 607 1191 591 1206 q 623 1153 623 1177 q 608 1116 623 1132 q 570 1100 593 1100 q 533 1115 549 1100 q 517 1153 517 1129 z "},"":{"ha":308,"x_min":24,"x_max":281,"o":"m 35 277 q 30 283 35 277 q 24 307 24 289 q 36 337 24 325 q 65 349 47 349 l 240 349 l 239 349 q 269 337 257 349 q 281 307 281 325 q 269 277 281 289 q 239 265 257 265 l 65 265 q 35 277 47 265 m 99 -15 q 85 -1 99 -15 q 72 51 72 12 q 99 117 72 90 q 165 144 126 144 q 231 117 204 144 q 258 51 258 90 q 231 -15 258 12 q 165 -41 204 -41 q 99 -15 126 -41 m 99 508 q 85 521 99 508 q 72 573 72 534 q 99 640 72 612 q 165 667 126 667 q 231 640 204 667 q 258 573 258 612 q 231 508 258 534 q 165 481 204 481 q 99 508 126 481 z "},"":{"ha":1023,"x_min":52,"x_max":951,"o":"m 183 101 q 117 173 183 101 q 52 444 52 244 q 183 787 52 644 q 502 930 314 930 q 820 787 689 930 q 951 444 951 644 q 820 101 951 244 q 502 -41 689 -41 q 183 101 314 -41 m 241 730 q 187 671 241 730 q 134 445 134 612 q 241 159 134 277 q 500 41 349 41 q 759 159 652 41 q 867 445 867 277 q 759 730 867 612 q 500 847 652 847 q 241 730 349 847 m 386 229 l 536 704 q 557 729 542 721 q 589 732 572 737 q 614 711 606 726 q 616 679 623 696 l 467 204 q 446 179 461 187 q 414 176 431 171 q 389 197 397 182 q 386 229 380 212 z "},"":{"ha":958,"x_min":102,"x_max":847,"o":"m 102 237 l 102 890 q 113 920 102 909 q 143 932 125 932 q 173 920 161 932 q 184 890 184 908 l 184 237 q 173 208 184 219 q 143 196 161 196 q 113 208 125 196 q 102 237 102 219 m 163 72 q 152 102 151 85 q 165 131 153 119 q 195 141 178 142 q 224 127 212 140 q 292 79 252 98 l 293 78 q 472 43 365 43 q 654 79 579 43 q 722 127 694 99 q 751 141 733 140 q 781 131 768 142 q 793 102 793 119 q 783 72 794 85 q 690 4 745 31 q 472 -40 602 -41 q 256 4 349 -40 q 163 72 201 31 m 350 1226 q 349 1258 343 1242 q 369 1282 354 1275 q 401 1283 385 1289 q 425 1263 418 1278 q 521 1145 458 1196 l 519 1146 q 535 1118 533 1135 q 525 1086 536 1100 q 497 1071 514 1072 q 465 1080 479 1069 q 350 1226 389 1145 m 764 236 l 764 889 q 775 919 764 907 q 805 930 787 930 q 835 919 823 930 q 847 889 847 907 l 847 236 q 835 206 847 218 q 805 195 823 195 q 775 206 787 195 q 764 236 764 218 z "},"":{"ha":958,"x_min":102,"x_max":847,"o":"m 102 233 l 102 886 q 113 916 102 905 q 143 928 125 928 q 173 916 161 928 q 184 886 184 904 l 184 233 q 173 203 184 215 q 143 192 161 192 q 113 203 125 192 q 102 233 102 215 m 163 68 q 152 98 151 81 q 165 126 153 115 q 195 137 178 138 q 224 123 212 136 q 292 75 252 94 l 293 74 q 472 39 365 39 q 654 75 579 39 q 722 123 694 95 q 751 137 733 136 q 781 126 768 138 q 793 98 793 115 q 783 68 794 81 q 690 0 745 26 q 472 -45 602 -45 q 256 0 349 -45 q 163 68 201 26 m 407 1085 q 401 1092 407 1085 q 397 1116 396 1099 q 412 1145 399 1133 q 509 1263 475 1196 q 532 1284 515 1278 q 564 1282 549 1289 q 585 1258 579 1275 q 583 1226 590 1242 q 468 1080 545 1145 l 467 1079 q 435 1069 453 1068 q 407 1085 418 1071 m 764 232 l 764 885 q 775 915 764 903 q 805 926 787 926 q 835 915 823 926 q 847 885 847 903 l 847 232 q 835 202 847 214 q 805 191 823 191 q 775 202 787 191 q 764 232 764 214 z "},"":{"ha":958,"x_min":103,"x_max":848,"o":"m 103 233 l 103 886 q 115 916 103 905 q 144 928 126 928 q 174 916 163 928 q 186 886 186 904 l 186 233 q 174 203 186 215 q 144 192 163 192 q 115 203 126 192 q 103 233 103 215 m 164 68 q 153 98 153 81 q 166 126 154 115 q 196 137 179 138 q 225 123 214 136 q 293 75 253 94 l 294 74 q 473 39 366 39 q 656 75 581 39 q 724 123 696 95 q 752 137 734 136 q 782 126 770 138 q 795 98 794 115 q 785 68 796 81 q 692 0 746 26 q 473 -45 603 -45 q 257 0 350 -45 q 164 68 203 26 m 349 1079 q 333 1106 335 1089 q 342 1137 330 1124 l 443 1270 l 441 1268 q 475 1285 454 1285 q 509 1268 496 1284 l 608 1136 q 616 1106 618 1122 q 600 1078 614 1089 q 570 1070 587 1068 q 542 1086 553 1072 l 475 1175 l 407 1086 q 380 1070 397 1073 q 349 1079 363 1068 m 765 232 l 765 885 q 777 915 765 903 q 807 926 789 926 q 837 915 825 926 q 848 885 848 903 l 848 232 q 837 202 848 214 q 807 191 825 191 q 777 202 789 191 q 765 232 765 214 z "},"":{"ha":958,"x_min":103,"x_max":848,"o":"m 103 236 l 103 889 q 115 919 103 907 q 144 930 126 930 q 174 919 163 930 q 186 889 186 907 l 186 236 q 174 206 186 218 q 144 195 163 195 q 115 206 126 195 q 103 236 103 218 m 164 71 q 153 101 153 83 q 166 129 154 118 q 196 140 179 140 q 225 126 214 139 q 293 78 253 97 l 294 77 q 473 42 366 42 q 656 78 581 41 q 724 126 696 98 q 752 139 734 138 q 782 129 770 140 q 795 101 794 118 q 785 71 796 83 q 692 3 746 29 q 473 -41 603 -42 q 257 3 350 -41 q 164 71 203 29 m 339 1153 q 354 1190 339 1174 q 392 1206 368 1206 q 429 1191 413 1206 q 444 1153 444 1177 q 430 1116 444 1132 q 392 1100 415 1100 q 355 1115 371 1100 q 339 1153 339 1129 m 489 1153 q 504 1190 489 1174 q 542 1206 518 1206 q 579 1191 563 1206 q 595 1153 595 1177 q 580 1116 595 1132 q 542 1100 566 1100 q 505 1115 521 1100 q 489 1153 489 1129 m 765 235 l 765 888 q 777 918 765 906 q 807 929 789 929 q 837 917 825 929 q 848 888 848 905 l 848 235 q 837 205 848 216 q 807 193 825 193 q 777 205 789 193 q 765 235 765 216 z "},"":{"ha":915,"x_min":33,"x_max":874,"o":"m 43 860 q 33 889 32 872 q 46 918 33 907 q 76 928 58 929 q 104 916 93 928 l 484 501 q 494 472 494 489 q 480 443 493 454 q 451 433 468 432 q 422 446 433 433 l 43 860 m 407 1085 q 401 1092 407 1085 q 397 1116 396 1099 q 412 1145 399 1133 q 509 1263 475 1196 q 532 1284 515 1278 q 564 1282 549 1289 q 585 1258 579 1275 q 583 1226 590 1242 q 468 1080 545 1145 l 467 1079 q 435 1069 453 1068 q 407 1085 418 1071 m 411 -1 l 411 332 q 423 362 411 350 q 453 374 435 374 q 483 362 471 374 q 494 332 494 350 l 494 -1 q 483 -31 494 -20 q 453 -43 471 -43 q 423 -31 435 -43 q 411 -1 411 -20 m 565 596 q 559 601 565 596 q 552 624 553 607 q 562 654 551 642 l 803 916 q 831 928 814 928 q 861 918 848 929 q 874 889 873 907 q 864 860 875 872 l 624 599 q 595 586 613 587 q 565 596 578 585 z "},"":{"ha":842,"x_min":119,"x_max":778,"o":"m 119 0 l 119 889 q 131 919 119 907 q 161 930 143 930 q 191 919 179 930 q 203 889 203 907 l 203 0 q 191 -30 203 -18 q 161 -41 179 -41 q 131 -30 143 -41 q 119 0 119 -18 m 271 751 q 266 756 271 751 q 260 781 260 762 q 272 810 260 799 q 301 822 283 822 l 503 822 q 708 740 637 822 q 778 536 778 659 q 705 338 778 410 q 519 265 632 265 l 306 265 q 276 277 288 265 q 264 307 264 289 q 276 337 264 325 q 306 349 288 349 l 519 349 q 647 398 600 349 q 694 536 694 447 q 651 679 694 618 q 503 739 607 739 l 301 739 q 271 751 283 739 z "},"":{"ha":915,"x_min":34,"x_max":876,"o":"m 45 861 q 34 891 33 873 q 47 919 35 908 q 77 930 60 930 q 106 917 94 929 l 485 503 q 495 473 496 490 q 482 445 494 456 q 452 434 469 433 q 424 447 435 435 l 45 861 m 338 1153 q 352 1190 338 1174 q 390 1206 367 1206 q 427 1191 411 1206 q 443 1153 443 1177 q 428 1116 443 1132 q 390 1100 414 1100 q 353 1115 369 1100 q 338 1153 338 1129 m 412 0 l 412 334 q 424 363 412 352 q 454 375 436 375 q 484 363 472 375 q 496 334 496 351 l 496 0 q 484 -30 496 -18 q 454 -41 472 -41 q 424 -30 436 -41 q 412 0 412 -18 m 488 1153 q 502 1190 488 1174 q 541 1206 517 1206 q 577 1191 562 1206 q 593 1153 593 1177 q 578 1116 593 1132 q 541 1100 564 1100 q 504 1115 519 1100 q 488 1153 488 1129 m 567 597 q 560 603 567 597 q 553 626 554 608 q 564 656 553 643 l 804 917 q 832 930 815 929 q 862 919 850 930 q 876 891 875 908 q 865 861 876 873 l 625 600 q 597 587 614 588 q 567 597 579 586 z "},"":{"ha":1514,"x_min":46,"x_max":1447,"o":"m 46 458 l 46 476 q 103 676 54 582 q 298 880 172 814 q 529 928 408 939 q 747 840 651 917 q 763 813 761 831 q 754 782 765 796 q 727 766 745 768 q 696 775 710 764 q 519 845 618 835 q 335 808 421 854 q 174 640 231 753 q 125 471 134 559 l 125 457 q 154 269 118 357 q 271 115 193 174 q 449 45 350 56 l 454 45 q 714 125 602 33 q 745 135 728 136 q 773 120 762 134 q 783 88 785 106 q 768 60 782 71 q 447 -39 628 -56 l 449 -40 l 443 -40 q 225 47 321 -28 q 82 236 131 119 q 46 458 39 340 m 803 -1 l 803 888 q 815 918 803 906 q 845 929 827 929 q 874 917 863 929 q 886 888 886 905 l 886 -1 q 874 -31 886 -20 q 845 -43 863 -43 q 815 -31 827 -43 q 803 -1 803 -20 m 931 -31 q 925 -25 931 -31 q 920 -1 920 -20 q 931 28 920 17 q 961 40 943 40 l 1406 40 q 1436 28 1424 40 q 1447 -1 1447 17 q 1435 -31 1447 -20 q 1406 -43 1423 -43 l 961 -43 q 931 -31 943 -43 m 934 447 q 928 453 934 447 q 922 476 922 458 q 934 506 922 494 q 964 518 946 518 l 1322 518 q 1352 506 1341 518 q 1364 476 1364 494 q 1352 447 1364 458 q 1322 435 1340 435 l 964 435 q 934 447 945 435 m 934 858 q 928 863 934 858 q 922 887 922 869 q 934 917 922 905 q 964 929 946 929 l 1404 929 q 1434 917 1423 929 q 1446 887 1446 905 q 1434 858 1446 869 q 1404 846 1422 846 l 964 846 q 934 858 945 846 z "},"":{"ha":1514,"x_min":46,"x_max":1447,"o":"m 46 458 l 46 476 q 103 676 54 582 q 298 880 172 814 q 529 928 408 939 q 747 840 651 917 q 763 813 761 831 q 754 782 765 796 q 727 766 745 768 q 696 775 710 764 q 519 845 618 835 q 335 808 421 854 q 174 640 231 753 q 125 471 134 559 l 125 457 q 154 269 118 357 q 271 115 193 174 q 449 45 350 56 l 454 45 q 714 125 602 33 q 745 135 728 136 q 773 120 762 134 q 783 88 785 106 q 768 60 782 71 q 447 -39 628 -56 l 449 -40 l 443 -40 q 225 47 321 -28 q 82 236 131 119 q 46 458 39 340 m 803 -1 l 803 888 q 815 918 803 906 q 845 929 827 929 q 874 917 863 929 q 886 888 886 905 l 886 -1 q 874 -31 886 -20 q 845 -43 863 -43 q 815 -31 827 -43 q 803 -1 803 -20 m 931 -31 q 925 -25 931 -31 q 920 -1 920 -20 q 931 28 920 17 q 961 40 943 40 l 1406 40 q 1436 28 1424 40 q 1447 -1 1447 17 q 1435 -31 1447 -20 q 1406 -43 1423 -43 l 961 -43 q 931 -31 943 -43 m 934 447 q 928 453 934 447 q 922 476 922 458 q 934 506 922 494 q 964 518 946 518 l 1322 518 q 1352 506 1341 518 q 1364 476 1364 494 q 1352 447 1364 458 q 1322 435 1340 435 l 964 435 q 934 447 945 435 m 934 858 q 928 863 934 858 q 922 887 922 869 q 934 917 922 905 q 964 929 946 929 l 1404 929 q 1434 917 1423 929 q 1446 887 1446 905 q 1434 858 1446 869 q 1404 846 1422 846 l 964 846 q 934 858 945 846 z "},"":{"ha":915,"x_min":34,"x_max":876,"o":"m 328 1067 q 343 1104 328 1088 q 381 1120 357 1120 q 418 1105 402 1120 q 433 1067 433 1090 q 419 1030 433 1046 q 381 1014 404 1014 q 344 1028 360 1014 q 328 1067 328 1043 m 478 1067 q 493 1104 478 1088 q 531 1120 507 1120 q 568 1105 552 1120 q 584 1067 584 1090 q 569 1030 584 1046 q 531 1014 555 1014 q 494 1028 510 1014 q 478 1067 478 1043 m 47 920 q 75 930 59 930 q 77 930 76 930 q 106 917 95 929 l 485 503 q 495 473 496 490 q 482 445 494 456 q 452 434 469 433 q 424 447 435 435 l 45 861 q 34 889 35 873 q 47 920 34 908 m 412 0 l 412 334 q 424 363 412 352 q 454 375 436 375 q 484 363 472 375 q 496 334 496 351 l 496 0 q 484 -30 496 -18 q 454 -41 472 -41 q 424 -30 436 -41 q 412 0 412 -18 m 553 628 q 564 656 553 644 l 804 917 q 833 930 815 929 q 835 930 834 930 q 863 920 851 930 q 876 891 875 909 q 876 889 876 890 q 865 861 876 873 l 625 600 q 597 587 614 588 q 595 587 595 587 q 567 597 578 587 q 553 628 553 609 z "},"":{"ha":226,"x_min":-31,"x_max":252,"o":"m -16 671 q -31 698 -29 681 q -22 729 -33 715 l 79 861 l 78 860 q 111 877 90 877 q 144 860 132 876 l 244 728 q 252 697 254 714 q 236 669 250 681 q 206 662 222 660 q 178 677 189 664 l 111 766 l 43 677 q 16 662 33 664 q -16 671 -1 660 z "},"":{"ha":264,"x_min":-198,"x_max":199,"o":"m -198 155 q -180 215 -198 189 q -102 258 -157 254 l -94 258 l -83 258 q -43 247 -64 257 q 2 218 -26 240 q 58 175 48 179 q 78 171 68 171 l 79 171 q 96 176 87 171 q 106 187 103 180 q 107 193 109 194 l 106 190 q 107 197 107 193 l 106 201 q 113 233 103 218 q 139 250 123 247 q 171 243 156 252 q 188 216 185 233 q 191 195 191 208 l 199 194 q 193 162 197 174 q 189 151 193 159 q 148 103 176 121 q 90 83 120 85 l 83 83 q 33 94 57 83 q -47 150 10 102 q -73 166 -62 162 q -87 171 -81 170 l -92 171 l -94 171 q -111 163 -105 171 q -113 154 -113 159 l -113 150 q -116 118 -108 133 q -140 97 -123 102 q -172 99 -157 92 q -193 123 -187 106 q -198 155 -198 140 z "},"":{"ha":642,"x_min":0,"x_max":0,"o":""},"":{"ha":1284,"x_min":0,"x_max":0,"o":""},"":{"ha":642,"x_min":0,"x_max":0,"o":""},"":{"ha":1284,"x_min":0,"x_max":0,"o":""},"":{"ha":427,"x_min":0,"x_max":0,"o":""},"":{"ha":321,"x_min":0,"x_max":0,"o":""},"":{"ha":214,"x_min":0,"x_max":0,"o":""},"":{"ha":214,"x_min":0,"x_max":0,"o":""},"":{"ha":159,"x_min":0,"x_max":0,"o":""},"":{"ha":256,"x_min":0,"x_max":0,"o":""},"":{"ha":71,"x_min":0,"x_max":0,"o":""},"":{"ha":281,"x_min":-21,"x_max":298,"o":"m -9 360 q -15 366 -9 360 q -21 390 -21 372 q -9 420 -21 408 q 21 432 3 432 l 258 432 l 257 432 q 287 420 275 432 q 298 390 298 408 q 287 360 298 372 q 257 349 275 349 l 21 349 q -9 360 3 349 z "},"":{"ha":281,"x_min":-21,"x_max":298,"o":"m -9 360 q -15 366 -9 360 q -21 390 -21 372 q -9 420 -21 408 q 21 432 3 432 l 258 432 l 257 432 q 287 420 275 432 q 298 390 298 408 q 287 360 298 372 q 257 349 275 349 l 21 349 q -9 360 3 349 z "},"":{"ha":281,"x_min":-21,"x_max":298,"o":"m -9 360 q -15 366 -9 360 q -21 390 -21 372 q -9 420 -21 408 q 21 432 3 432 l 258 432 l 257 432 q 287 420 275 432 q 298 390 298 408 q 287 360 298 372 q 257 349 275 349 l 21 349 q -9 360 3 349 z "},"":{"ha":694,"x_min":-21,"x_max":711,"o":"m -21 349 l -21 432 l 711 432 l 711 349 l -21 349 z "},"":{"ha":1389,"x_min":-21,"x_max":1406,"o":"m -21 349 l -21 432 l 1406 432 l 1406 349 l -21 349 z "},"":{"ha":141,"x_min":-24,"x_max":163,"o":"m -22 818 q -24 850 -29 833 q -3 873 -18 867 q 29 875 12 880 q 53 854 46 869 q 149 736 86 788 l 147 737 q 162 709 161 726 q 153 678 164 692 q 124 663 142 664 q 93 672 107 661 q -22 818 16 737 z "},"":{"ha":223,"x_min":20,"x_max":210,"o":"m 20 848 q 47 915 20 887 q 113 942 74 942 l 114 942 q 144 937 131 942 l 143 933 q 192 895 174 924 q 210 839 209 872 l 210 833 q 191 761 210 796 q 150 708 175 736 q 82 653 118 672 q 50 650 66 645 q 25 671 33 656 q 22 703 17 686 q 43 728 28 720 q 83 760 61 737 q 38 793 56 769 q 20 848 20 818 z "},"":{"ha":190,"x_min":1,"x_max":189,"o":"m 1 684 l 1 901 q 13 931 1 920 q 43 943 25 943 q 73 931 61 943 q 85 901 85 920 l 85 684 q 73 653 85 665 q 43 642 61 642 q 13 653 25 642 q 1 684 1 665 m 106 684 l 106 901 q 117 931 106 920 q 147 943 129 943 q 177 931 165 943 q 189 901 189 920 l 189 684 q 177 653 189 665 q 147 642 165 642 q 117 653 129 642 q 106 684 106 665 z "},"":{"ha":190,"x_min":1,"x_max":189,"o":"m 1 684 l 1 901 q 13 931 1 920 q 43 943 25 943 q 73 931 61 943 q 85 901 85 920 l 85 684 q 73 653 85 665 q 43 642 61 642 q 13 653 25 642 q 1 684 1 665 m 106 684 l 106 901 q 117 931 106 920 q 147 943 129 943 q 177 931 165 943 q 189 901 189 920 l 189 684 q 177 653 189 665 q 147 642 165 642 q 117 653 129 642 q 106 684 106 665 z "},"":{"ha":708,"x_min":24,"x_max":682,"o":"m 523 -15 q 509 -1 523 -15 q 496 51 496 12 q 523 117 496 90 q 589 144 550 144 q 654 117 627 144 q 682 51 682 90 q 654 -15 682 12 q 589 -41 627 -41 q 523 -15 550 -41 m 287 -15 q 273 -1 287 -15 q 260 51 260 12 q 287 117 260 90 q 353 144 314 144 q 418 117 391 144 q 446 51 446 90 q 418 -15 446 12 q 353 -41 391 -41 q 287 -15 314 -41 m 51 -15 q 37 -1 51 -15 q 24 51 24 12 q 51 117 24 90 q 117 144 78 144 q 182 117 155 144 q 210 51 210 90 q 182 -15 210 12 q 117 -41 155 -41 q 51 -15 78 -41 z "},"":{"ha":256,"x_min":0,"x_max":0,"o":""},"":{"ha":180,"x_min":-22,"x_max":221,"o":"m 1 267 q -22 304 -22 278 q 3 342 -22 330 q 78 376 53 364 q 161 421 106 390 q 193 425 177 429 q 217 406 208 421 q 221 374 225 390 q 201 350 216 358 q 117 306 146 319 l 117 304 q 200 260 144 291 q 220 236 216 252 q 215 204 224 220 q 191 185 207 189 q 160 189 175 180 q 77 232 132 205 q 1 267 52 244 z "},"":{"ha":180,"x_min":-36,"x_max":207,"o":"m -17 353 q -36 377 -32 361 q -32 409 -40 393 q -8 428 -24 424 q 24 424 8 432 q 107 379 79 393 l 107 380 q 182 346 132 368 q 207 309 207 335 q 183 271 207 282 q 109 236 133 248 q 25 193 53 208 q -6 189 9 185 q -31 209 -22 193 q -35 240 -39 224 q -16 264 -31 256 q 68 309 40 294 q -17 353 39 322 z "},"":{"ha":321,"x_min":0,"x_max":0,"o":""},"":{"ha":2037,"x_min":29,"x_max":1922,"o":"m 914 0 l 914 889 q 926 919 914 907 q 956 930 938 930 q 986 919 974 930 q 998 889 998 907 l 998 0 q 986 -30 998 -18 q 956 -41 974 -41 q 926 -30 938 -41 q 914 0 914 -18 m 1036 672 q 1057 696 1042 689 q 1089 697 1073 703 q 1113 676 1106 692 l 1446 17 q 1447 -15 1453 1 q 1427 -39 1442 -32 q 1409 -43 1418 -43 q 1395 -40 1402 -43 q 1371 -20 1378 -35 l 1038 640 q 1034 658 1034 649 q 1036 672 1034 665 m 1468 163 q 1466 176 1466 170 q 1471 195 1466 185 l 1842 908 q 1867 929 1850 924 q 1880 931 1874 931 q 1899 926 1889 931 q 1920 901 1914 918 q 1922 888 1922 895 q 1917 869 1922 879 l 1546 155 q 1521 134 1538 140 q 1489 137 1504 129 q 1468 163 1474 146 m 1838 0 l 1838 619 q 1850 649 1838 637 q 1880 661 1862 661 q 1909 649 1898 661 q 1921 619 1921 637 l 1921 0 q 1909 -30 1921 -18 q 1880 -41 1898 -41 q 1850 -30 1862 -41 q 1838 0 1838 -18 m 41 859 q 35 865 41 859 q 29 889 29 871 q 41 919 29 907 q 71 930 53 930 l 722 930 q 752 919 741 930 q 764 889 764 907 q 752 859 764 871 q 722 847 741 847 l 71 847 q 41 859 52 847 m 354 0 l 354 764 q 366 794 354 782 q 396 806 378 806 q 426 794 414 806 q 437 764 437 782 l 437 0 q 426 -30 437 -18 q 396 -41 414 -41 q 366 -30 378 -41 q 354 0 354 -18 z "},"":{"ha":929,"x_min":0,"x_max":929,"o":"m 0 929 l 929 929 l 929 0 l 0 0 l 0 929 z "},"":{"ha":1112,"x_min":118,"x_max":994,"o":"m 911 0 l 911 889 q 923 919 911 907 q 952 930 935 930 q 982 919 970 930 q 994 889 994 907 l 994 0 q 982 -30 994 -18 q 952 -41 970 -41 q 923 -30 935 -41 q 911 0 911 -18 m 118 0 l 118 889 q 130 919 118 907 q 160 930 142 930 q 190 919 178 930 q 201 889 201 907 l 201 0 q 190 -30 201 -18 q 160 -41 178 -41 q 130 -30 142 -41 q 118 0 118 -18 m 249 448 q 243 454 249 448 q 237 478 237 460 q 249 508 237 496 q 279 519 261 519 l 615 519 q 645 508 633 519 q 657 478 657 496 q 645 448 657 460 q 615 436 633 436 l 279 436 q 249 448 261 436 m 249 859 q 243 865 249 859 q 237 889 237 871 q 249 919 237 907 q 279 930 261 930 l 697 930 q 727 919 715 930 q 739 889 739 907 q 727 859 739 871 q 697 847 715 847 l 279 847 q 249 859 261 847 z "},"":{"ha":1568,"x_min":118,"x_max":1551,"o":"m 911 0 l 911 889 q 923 919 911 907 q 952 930 935 930 q 982 919 970 930 q 994 889 994 907 l 994 0 q 982 -30 994 -18 q 952 -41 970 -41 q 923 -30 935 -41 q 911 0 911 -18 m 1061 -30 q 1056 -24 1061 -30 q 1050 0 1050 -18 q 1062 30 1050 18 q 1091 41 1074 41 l 1510 41 q 1539 30 1528 41 q 1551 0 1551 18 q 1539 -30 1551 -18 q 1510 -41 1527 -41 l 1091 -41 q 1061 -30 1073 -41 m 118 0 l 118 889 q 130 919 118 907 q 160 930 142 930 q 190 919 178 930 q 201 889 201 907 l 201 0 q 190 -30 201 -18 q 160 -41 178 -41 q 130 -30 142 -41 q 118 0 118 -18 m 249 448 q 243 454 249 448 q 237 478 237 460 q 249 508 237 496 q 279 519 261 519 l 615 519 q 645 508 633 519 q 657 478 657 496 q 645 448 657 460 q 615 436 633 436 l 279 436 q 249 448 261 436 m 249 859 q 243 865 249 859 q 237 889 237 871 q 249 919 237 907 q 279 930 261 930 l 697 930 q 727 919 715 930 q 739 889 739 907 q 727 859 739 871 q 697 847 715 847 l 279 847 q 249 859 261 847 z "},"":{"ha":1905,"x_min":118,"x_max":1788,"o":"m 1704 0 l 1704 889 q 1716 919 1704 907 q 1746 930 1728 930 q 1776 919 1764 930 q 1788 889 1788 907 l 1788 0 q 1776 -30 1788 -18 q 1746 -41 1764 -41 q 1716 -30 1728 -41 q 1704 0 1704 -18 m 911 0 l 911 889 q 923 919 911 907 q 952 930 935 930 q 982 919 970 930 q 994 889 994 907 l 994 0 q 982 -30 994 -18 q 952 -41 970 -41 q 923 -30 935 -41 q 911 0 911 -18 m 1042 448 q 1036 454 1042 448 q 1030 478 1030 460 q 1042 508 1030 496 q 1072 519 1054 519 l 1408 519 q 1438 508 1426 519 q 1450 478 1450 496 q 1438 448 1450 460 q 1408 436 1426 436 l 1072 436 q 1042 448 1054 436 m 1042 859 q 1036 865 1042 859 q 1030 889 1030 871 q 1042 919 1030 907 q 1072 930 1054 930 l 1490 930 q 1520 919 1508 930 q 1532 889 1532 907 q 1520 859 1532 871 q 1490 847 1508 847 l 1072 847 q 1042 859 1054 847 m 118 0 l 118 889 q 130 919 118 907 q 160 930 142 930 q 190 919 178 930 q 201 889 201 907 l 201 0 q 190 -30 201 -18 q 160 -41 178 -41 q 130 -30 142 -41 q 118 0 118 -18 m 249 448 q 243 454 249 448 q 237 478 237 460 q 249 508 237 496 q 279 519 261 519 l 615 519 q 645 508 633 519 q 657 478 657 496 q 645 448 657 460 q 615 436 633 436 l 279 436 q 249 448 261 436 m 249 859 q 243 865 249 859 q 237 889 237 871 q 249 919 237 907 q 279 930 261 930 l 697 930 q 727 919 715 930 q 739 889 739 907 q 727 859 739 871 q 697 847 715 847 l 279 847 q 249 859 261 847 z "},"":{"ha":2361,"x_min":118,"x_max":2344,"o":"m 1704 0 l 1704 889 q 1716 919 1704 907 q 1746 930 1728 930 q 1776 919 1764 930 q 1788 889 1788 907 l 1788 0 q 1776 -30 1788 -18 q 1746 -41 1764 -41 q 1716 -30 1728 -41 q 1704 0 1704 -18 m 1855 -30 q 1849 -24 1855 -30 q 1843 0 1843 -18 q 1855 30 1843 18 q 1885 41 1867 41 l 2303 41 q 2333 30 2321 41 q 2344 0 2344 18 q 2333 -30 2344 -18 q 2303 -41 2321 -41 l 1885 -41 q 1855 -30 1866 -41 m 911 0 l 911 889 q 923 919 911 907 q 952 930 935 930 q 982 919 970 930 q 994 889 994 907 l 994 0 q 982 -30 994 -18 q 952 -41 970 -41 q 923 -30 935 -41 q 911 0 911 -18 m 1042 448 q 1036 454 1042 448 q 1030 478 1030 460 q 1042 508 1030 496 q 1072 519 1054 519 l 1408 519 q 1438 508 1426 519 q 1450 478 1450 496 q 1438 448 1450 460 q 1408 436 1426 436 l 1072 436 q 1042 448 1054 436 m 1042 859 q 1036 865 1042 859 q 1030 889 1030 871 q 1042 919 1030 907 q 1072 930 1054 930 l 1490 930 q 1520 919 1508 930 q 1532 889 1532 907 q 1520 859 1532 871 q 1490 847 1508 847 l 1072 847 q 1042 859 1054 847 m 118 0 l 118 889 q 130 919 118 907 q 160 930 142 930 q 190 919 178 930 q 201 889 201 907 l 201 0 q 190 -30 201 -18 q 160 -41 178 -41 q 130 -30 142 -41 q 118 0 118 -18 m 249 448 q 243 454 249 448 q 237 478 237 460 q 249 508 237 496 q 279 519 261 519 l 615 519 q 645 508 633 519 q 657 478 657 496 q 645 448 657 460 q 615 436 633 436 l 279 436 q 249 448 261 436 m 249 859 q 243 865 249 859 q 237 889 237 871 q 249 919 237 907 q 279 930 261 930 l 697 930 q 727 919 715 930 q 739 889 739 907 q 727 859 739 871 q 697 847 715 847 l 279 847 q 249 859 261 847 z "}}}
